<svg id="Calque_1" data-name="Calque 1" xmlns="http://www.w3.org/2000/svg" viewBox="0 0 218.92 218.92"><defs><style>.cls-1{fill:#1e2045;}</style></defs><title>ALMA ICON</title><path class="cls-1" d="M109.46,0A109.46,109.46,0,1,0,218.92,109.46,109.46,109.46,0,0,0,109.46,0ZM40.68,161c-3.65-.81-4.38-2.41-3.56-5.92C45,121.58,59,90.9,80,63.67c8.9-11.52,18.93-22.17,28.73-33.54A248.13,248.13,0,0,1,172,123l-29.45,7c-8.44-20.28-19-39-33.06-56.17-22.36,27.67-36.54,58.61-44.13,93.22C56.8,165,48.78,162.8,40.68,161Zm93.8-31.23-1.4,1.65H85.59l-1.14-1.66,23.88-42.2,2.25-.08ZM73.25,168c2.77-9.38,5.26-18.11,8-26.76a3.92,3.92,0,0,1,3.16-2c30.49,3.74,60.32.39,90.58-8.63l8,28.91A244.13,244.13,0,0,1,73.25,168Z"/></svg>