<svg xmlns="http://www.w3.org/2000/svg" width="23.958" height="23.992" viewBox="0 0 23.958 23.992">
    <path fill="#fff" d="M28.086 16.171H7.658l9.815-9.815a.79.79 0 0 0-1.117-1.117L5.184 16.411a.58.58 0 0 0-.106.133.093.093 0 0 1-.027.053c-.027.027-.027.053-.053.08 0 .027-.027.053-.027.08s-.027.053-.027.08a.648.648 0 0 0 0 .319c0 .027.027.053.027.08s.027.053.027.08.027.053.053.08a.093.093 0 0 0 .027.053.467.467 0 0 0 .106.133l11.172 11.17a.771.771 0 0 0 1.117 0 .771.771 0 0 0 0-1.117l-9.815-9.868h20.428a.8.8 0 1 0 0-1.6z" transform="rotate(180 14.441 14.496)"/>
</svg>
