<svg xmlns="http://www.w3.org/2000/svg" width="18" height="15.231" viewBox="0 0 18 15.231"><defs><style>.a{fill:#355b97;}</style></defs><g transform="translate(-3 -5)"><path class="a" d="M18.106,7.769H4.385A1.385,1.385,0,0,1,5.769,6.385H18.923a.692.692,0,1,0,0-1.385H5.769A2.769,2.769,0,0,0,3,7.769a2.665,2.665,0,0,0,.042.478A.741.741,0,0,0,3,8.462v8.875a2.894,2.894,0,0,0,2.894,2.894H18.106A2.894,2.894,0,0,0,21,17.337V10.663a2.894,2.894,0,0,0-2.894-2.894Zm1.509,7.615H15.462a1.385,1.385,0,0,1,0-2.769h4.154Zm0-4.154H15.462a2.769,2.769,0,0,0,0,5.538h4.154v.568a1.516,1.516,0,0,1-1.509,1.509H5.894a1.516,1.516,0,0,1-1.509-1.509V9.154H18.106a1.516,1.516,0,0,1,1.509,1.509Z" transform="translate(0 0)"/></g></svg>