<svg xmlns="http://www.w3.org/2000/svg" width="109.706" height="109.706" viewBox="0 0 109.706 109.706"><defs><style>.a{fill:#f5f5fb;}.b{fill:#99c2ec;}.c{fill:#fefeff;}.d{fill:#355b97;}.e{fill:#fec62e;}.f,.g{stroke:none;}.g{fill:#fff;}</style></defs><g transform="translate(-1250 -237.147)"><g class="a" transform="translate(1250 237.147)"><path class="f" d="M 54.85309219360352 106.7061920166016 C 47.85164260864258 106.7061920166016 41.06122589111328 105.3356246948242 34.67045974731445 102.6325454711914 C 28.49619293212891 100.0210571289062 22.95049285888672 96.28184509277344 18.18742561340332 91.51876068115234 C 13.42435932159424 86.75569152832031 9.685142517089844 81.21000671386719 7.073642253875732 75.03572845458984 C 4.370575428009033 68.64495849609375 3.000008821487427 61.85454177856445 3.000008821487427 54.85309219360352 C 3.000008821487427 47.85164260864258 4.370575428009033 41.06122589111328 7.073642253875732 34.67045974731445 C 9.685142517089844 28.49619293212891 13.42435932159424 22.95049285888672 18.18742561340332 18.18742561340332 C 22.95049285888672 13.42435932159424 28.49619293212891 9.685142517089844 34.67045974731445 7.073642253875732 C 41.06122589111328 4.370575428009033 47.85164260864258 3.000008821487427 54.85309219360352 3.000008821487427 C 61.85454177856445 3.000008821487427 68.64495849609375 4.370575428009033 75.03572845458984 7.073642253875732 C 81.21000671386719 9.685142517089844 86.75569152832031 13.42435932159424 91.51876068115234 18.18742561340332 C 96.28184509277344 22.95049285888672 100.0210571289062 28.49619293212891 102.6325454711914 34.67045974731445 C 105.3356246948242 41.06122589111328 106.7061920166016 47.85164260864258 106.7061920166016 54.85309219360352 C 106.7061920166016 61.85454177856445 105.3356246948242 68.64495849609375 102.6325454711914 75.03572845458984 C 100.0210418701172 81.21000671386719 96.28182220458984 86.75569152832031 91.51876068115234 91.51876068115234 C 86.75569152832031 96.28182220458984 81.21000671386719 100.0210418701172 75.03572845458984 102.6325454711914 C 68.64495849609375 105.3356246948242 61.85454177856445 106.7061920166016 54.85309219360352 106.7061920166016 Z"/><path class="g" d="M 54.85309219360352 5.999992370605469 C 27.91539001464844 5.999992370605469 5.999992370605469 27.91539001464844 5.999992370605469 54.85309219360352 C 5.999992370605469 81.790771484375 27.91539001464844 103.706169128418 54.85309219360352 103.706169128418 C 81.790771484375 103.706169128418 103.706169128418 81.790771484375 103.706169128418 54.85309219360352 C 103.706169128418 27.91539001464844 81.790771484375 5.999992370605469 54.85309219360352 5.999992370605469 M 54.85309219360352 -7.62939453125e-06 C 85.14761352539062 -7.62939453125e-06 109.706169128418 24.55857086181641 109.706169128418 54.85309219360352 C 109.706169128418 85.14761352539062 85.14761352539062 109.706169128418 54.85309219360352 109.706169128418 C 24.55857086181641 109.706169128418 -7.62939453125e-06 85.14761352539062 -7.62939453125e-06 54.85309219360352 C -7.62939453125e-06 24.55857086181641 24.55857086181641 -7.62939453125e-06 54.85309219360352 -7.62939453125e-06 Z"/></g><g transform="translate(-0.143)"><path class="b" d="M57.575,24.042,41.9,17.075a.869.869,0,0,0-.708,0L25.517,24.042a.871.871,0,0,0-.517.8v7.23A27.29,27.29,0,0,0,41.192,56.984a.874.874,0,0,0,.708,0A27.29,27.29,0,0,0,58.092,32.068v-7.23a.87.87,0,0,0-.517-.8Z" transform="translate(1273.9 261.938)"/><path class="c" d="M6.951,13.919a.752.752,0,0,1-.536-.223L.222,7.5A.759.759,0,1,1,1.295,6.431l5.657,5.657L18.8.238a.759.759,0,1,1,1.073,1.073L7.489,13.7A.761.761,0,0,1,6.951,13.919Zm0,0" transform="translate(1306.738 292.003)"/><g transform="translate(1278 265.004)"><path class="d" d="M34.963,1H10.579A2.615,2.615,0,0,0,7.967,3.613V7.967H3.613A2.615,2.615,0,0,0,1,10.579V41.93a2.615,2.615,0,0,0,2.613,2.613H28a2.615,2.615,0,0,0,2.613-2.613V37.576h4.354a2.615,2.615,0,0,0,2.613-2.613V3.613A2.615,2.615,0,0,0,34.963,1Zm-6.1,40.93A.872.872,0,0,1,28,42.8H3.613a.872.872,0,0,1-.871-.871V10.579a.872.872,0,0,1,.871-.871H21.03v5.223a2.612,2.612,0,0,0,2.612,2.613h0l5.222-.006Zm-6.1-31.847L28.364,15.8l-4.722.006h0a.871.871,0,0,1-.871-.871Zm13.063,24.88a.872.872,0,0,1-.871.871H30.609V16.666h0a2.6,2.6,0,0,0-.745-1.826L23.906,8.752a2.629,2.629,0,0,0-1.867-.785H9.708V3.613a.872.872,0,0,1,.871-.871H34.963a.872.872,0,0,1,.871.871Z" transform="translate(-1 -1)"/><path class="e" d="M5.871,18.742H18.934a.871.871,0,1,0,0-1.742H5.871a.871.871,0,1,0,0,1.742Z" transform="translate(-1.517 -3.066)"/><path class="e" d="M26.771,25H5.871a.871.871,0,1,0,0,1.742h20.9a.871.871,0,1,0,0-1.742Z" transform="translate(-1.517 -4.1)"/><path class="e" d="M26.771,33H5.871a.871.871,0,1,0,0,1.742h20.9a.871.871,0,1,0,0-1.742Z" transform="translate(-1.517 -5.133)"/><path class="e" d="M28.321,41H17.871a.871.871,0,0,0,0,1.742h10.45a.871.871,0,1,0,0-1.742Z" transform="translate(-3.066 -6.166)"/></g></g></g></svg>