<svg xmlns="http://www.w3.org/2000/svg" width="157" height="157" viewBox="0 0 157 157"><defs><style>.a{fill:#f5f5fb;opacity:0.663;}.b{fill:#355b97;}.b,.c{stroke:#f8f8fc;stroke-width:2px;}.c{fill:#99c2ec;}.d{fill:#fec62e;}.e{stroke:none;}.f{fill:none;}</style></defs><g transform="translate(-363 -409)"><circle class="a" cx="78.5" cy="78.5" r="78.5" transform="translate(363 409)"/><g transform="translate(395.536 467.07)"><path class="b" d="M10.32,8A7.363,7.363,0,0,0,3,15.33V38.974a7.354,7.354,0,0,0,7.32,7.32H52.2a21.47,21.47,0,1,0,36.967-20.55V15.33A7.363,7.363,0,0,0,81.842,8Zm0,4.787H81.842a2.482,2.482,0,0,1,2.534,2.543v5.89A21.522,21.522,0,0,0,50.868,39.114a21.024,21.024,0,0,0,.243,2.4H10.32a2.482,2.482,0,0,1-2.534-2.543V15.33A2.482,2.482,0,0,1,10.32,12.787ZM72.409,22.36A16.754,16.754,0,1,1,55.655,39.114,16.717,16.717,0,0,1,72.409,22.36Z" transform="translate(-3 -8)"/><g class="c" transform="translate(13.464 12.93)"><circle class="e" cx="5.5" cy="5.5" r="5.5"/><circle class="f" cx="5.5" cy="5.5" r="4.5"/></g><g class="c" transform="translate(30.464 12.93)"><ellipse class="e" cx="6" cy="5.5" rx="6" ry="5.5"/><ellipse class="f" cx="6" cy="5.5" rx="5" ry="4.5"/></g></g><path class="d" d="M14144.334-3737.16l6.616,6.792-11.541,10.769h-6.234v-6.877Z" transform="translate(-13675.473 4224.877)"/></g></svg>