<svg xmlns="http://www.w3.org/2000/svg" width="89" height="73" viewBox="0 0 89 73"><defs><style>.a{fill:#f5f5fb;}.b{fill:#355b97;}.c{fill:#fec62e;stroke:#fff;stroke-width:3px;}.d{fill:#fefeff;font-size:14px;font-family:Roboto-Regular, Roboto;letter-spacing:0.02em;}.e{stroke:none;}.f{fill:none;}</style></defs><g transform="translate(-1646 -409)"><g transform="translate(1846 -1422)"><path class="a" d="M-145.191,1880.387h-11.43l-19.5,12.026c0,.5,5.22-12.026,5.22-12.026h-24.415l-3.631-1.948V1847.56l2.424-3.052h66.707l3.18,1.691c.6,0,0,17.5,0,17.5l-2.179,2.534h-16.373Z" transform="translate(0 4.813)"/><g transform="translate(375 684.313)"><path class="b" d="M22.171,71.108a1.167,1.167,0,0,0,1.81,1.332L43.2,57.426h5.235a1.167,1.167,0,0,0,0-2.334H42.8a1.168,1.168,0,0,0-.719.247l-16.249,12.7,4.3-11.363a1.167,1.167,0,0,0-1.092-1.58H4.718a2.408,2.408,0,0,1-2.384-2.425V16.759a2.408,2.408,0,0,1,2.384-2.425H36.763a1.167,1.167,0,1,0,0-2.334H4.718A4.744,4.744,0,0,0,0,16.759V52.667a4.744,4.744,0,0,0,4.718,4.759H27.346Z" transform="translate(-575 1147)"/><path class="b" d="M102.024,12H78.167a1.167,1.167,0,1,0,0,2.334h23.856a2.409,2.409,0,0,1,2.4,2.409V35.789a2.408,2.408,0,0,1-2.4,2.408H86.337a1.167,1.167,0,0,0-1.167,1.167V56.349a1.167,1.167,0,1,0,2.334,0V40.53h14.52a4.745,4.745,0,0,0,4.737-4.742V16.743A4.745,4.745,0,0,0,102.024,12Z" transform="translate(-607.068 1147)"/><ellipse class="b" cx="1" cy="1.5" rx="1" ry="1.5" transform="translate(-522 1207.688)"/><circle class="b" cx="1.5" cy="1.5" r="1.5" transform="translate(-535 1158.688)"/><path class="b" d="M41.76,34H13.167a1.167,1.167,0,1,0,0,2.334H41.76a1.167,1.167,0,1,0,0-2.334Z" transform="translate(-579.998 1137.838)"/><path class="b" d="M41.76,44H13.167a1.167,1.167,0,0,0,0,2.334H41.76a1.167,1.167,0,0,0,0-2.334Z" transform="translate(-579.998 1133.673)"/><path class="b" d="M41.76,54H13.167a1.167,1.167,0,0,0,0,2.334H41.76a1.167,1.167,0,0,0,0-2.334Z" transform="translate(-579.998 1129.508)"/><path class="b" d="M41.76,64H13.167a1.167,1.167,0,0,0,0,2.334H41.76a1.167,1.167,0,0,0,0-2.334Z" transform="translate(-579.998 1125.344)"/></g></g><g class="c" transform="translate(1706 409)"><circle class="e" cx="14.5" cy="14.5" r="14.5"/><circle class="f" cx="14.5" cy="14.5" r="13"/></g><text class="d" transform="translate(1717 429)"><tspan x="0" y="0">0</tspan></text></g></svg>