<svg xmlns="http://www.w3.org/2000/svg" width="162.72" height="62.017" viewBox="0 0 162.72 62.017"><defs><style>.a{fill:#fec402;}.b{fill:#99c2ec;}.c{fill:none;stroke:#ff61bf;stroke-miterlimit:10;stroke-width:0.5px;}.d{fill:#040650;}.e{fill:#0f0050;}</style></defs><g transform="translate(-96.553 -266.074)"><path class="a" d="M233.4,274.028a3.6,3.6,0,0,1,.628,1.026,6.369,6.369,0,0,1,.488,2.51v1.721a6.571,6.571,0,0,1-.184,1.58,3.864,3.864,0,0,1-.268.8,3.469,3.469,0,0,1-3.1,2.15h-1.318a3.055,3.055,0,0,1-.461-.037,7.035,7.035,0,0,1-3.365-1.828,1.893,1.893,0,0,0-.32-.236c-.482-.278-.972-.14-1.307.526a3.9,3.9,0,0,0-.531,1.868v8.933H232.8a5.562,5.562,0,0,1,2.608.621,4.741,4.741,0,0,1,.968.673,2.774,2.774,0,0,1,.854,1.787,3.24,3.24,0,0,1-.584,2.256l-.011.015-.6.713c-.075.09-.152.178-.231.264a2.7,2.7,0,0,0-.773,1.609v1.032a1.744,1.744,0,0,0,.787,1.486l.021.013a1.018,1.018,0,0,0,.218.1h0a4.989,4.989,0,0,0,1.512.235h1.654a5.013,5.013,0,0,0,1.555-.243l.093-.032q.062-.032.119-.068a1.743,1.743,0,0,0,.787-1.486v-1.032a2.674,2.674,0,0,0-.759-1.594c-.087-.1-.173-.194-.257-.294l-.584-.7-.011-.015a3.24,3.24,0,0,1-.584-2.256,2.774,2.774,0,0,1,.854-1.787,4.74,4.74,0,0,1,.968-.673,5.561,5.561,0,0,1,2.608-.621h9.174v-9.312a5.29,5.29,0,0,1,.387-2.028,3.25,3.25,0,0,1,2.41-2.127,4.217,4.217,0,0,1,1.447.024l.1.024a17.031,17.031,0,0,0-2.66-5.445c-.1-.13-.2-.259-.3-.391a11.9,11.9,0,0,0-4.981-3.816,19.9,19.9,0,0,0-6.992-1.124,31.323,31.323,0,0,0-6.725.994s-3.751-3.347-7.34-3.694-4.883.776-4.883.776v5.892a3.1,3.1,0,0,0,.422,1.589c.331.556.818,1.053,1.615.385A8.128,8.128,0,0,1,228.73,273S231.964,272.487,233.4,274.028Z" transform="translate(-102.215 0)"/><path class="b" d="M119.375,276.333v4.638a5.564,5.564,0,0,0,.62,2.608,4.748,4.748,0,0,0,.673.968,2.774,2.774,0,0,0,1.787.854,3.24,3.24,0,0,0,2.256-.584l.015-.011.7-.584c.1-.084.193-.175.294-.257a2.9,2.9,0,0,1,1.594-.759h1.032a1.651,1.651,0,0,1,1.487.787c.02.04.046.077.068.119,0,0,.012.033.032.093a5.011,5.011,0,0,1,.243,1.555v1.654a4.99,4.99,0,0,1-.234,1.512h0a1.012,1.012,0,0,1-.1.218l-.013.021a1.743,1.743,0,0,1-1.487.787h-1.032a2.7,2.7,0,0,1-1.609-.773c-.087-.079-.174-.156-.264-.231l-.714-.6-.015-.011a3.24,3.24,0,0,0-2.256-.584,2.774,2.774,0,0,0-1.787.853,4.75,4.75,0,0,0-.673.968,5.564,5.564,0,0,0-.62,2.608v9.1h-9.15a5.561,5.561,0,0,0-2.608.621,4.738,4.738,0,0,0-.968.673,2.774,2.774,0,0,0-.854,1.787,3.24,3.24,0,0,0,.584,2.256l.011.015.584.7c.084.1.17.2.257.294a2.676,2.676,0,0,1,.759,1.594v1.032a1.744,1.744,0,0,1-.787,1.486q-.057.036-.119.068l-.093.031a5.011,5.011,0,0,1-1.555.243h-1.654a4.988,4.988,0,0,1-1.512-.235h0a1.014,1.014,0,0,1-.218-.1l-.021-.013a1.743,1.743,0,0,1-.787-1.486v-1.032a2.7,2.7,0,0,1,.773-1.609c.079-.087.156-.174.231-.264l.6-.713.011-.015a3.24,3.24,0,0,0,.584-2.256,2.774,2.774,0,0,0-.854-1.787,4.737,4.737,0,0,0-.968-.673,5.561,5.561,0,0,0-2.608-.621H97.264l-.016-.092c-.345-1.488-.582-2.867-.582-2.867a11.625,11.625,0,0,1,1.4-7.221c1.681-3.061,5.842-4.915,5.842-4.915a10.691,10.691,0,0,1,2.026-3.708,9.731,9.731,0,0,1,5.044-3.169,22.78,22.78,0,0,1,5.885-.367,22.877,22.877,0,0,1,2.457-2.565Z" transform="translate(0 -8.25)"/><path class="b" d="M393.592,353.31a11.328,11.328,0,0,1-1.233,3.476h-7.332l-.007-.627v-8.329a3.409,3.409,0,0,1,.664-2.053q.037-.049.072-.092a.822.822,0,0,1,1.21-.108l1.094.889a4.684,4.684,0,0,0,.519.364,5.169,5.169,0,0,0,2.689.725h.521a7.519,7.519,0,0,1,1.811,4.311A9.09,9.09,0,0,1,393.592,353.31Z" transform="translate(-231.986 -63.763)"/><path class="c" d="M428.572,475.658" transform="translate(-267.009 -168.547)"/><path class="c" d="M368.929,582.807" transform="translate(-219.044 -254.716)"/><path class="a" d="M334.853,430.893l-.014.011-.7.584c-.1.084-.2.17-.294.257a3.041,3.041,0,0,1-1.642.711h-1.032a1.743,1.743,0,0,1-1.487-.787q-.036-.057-.068-.119s-.012-.033-.032-.093a5.013,5.013,0,0,1-.243-1.555v-1.654a5,5,0,0,1,.234-1.512h0a1.028,1.028,0,0,1,.1-.218l.013-.021a1.744,1.744,0,0,1,1.487-.787H332.2a2.7,2.7,0,0,1,1.609.773c.087.079.174.156.265.231l.66.552.133.091a4.212,4.212,0,0,0,2.191.548,2.615,2.615,0,0,0,1.787-.854,4.744,4.744,0,0,0,.673-.968,5.618,5.618,0,0,0,.677-2.608v-9.059h5.715s-.7.344-.417.828a1.352,1.352,0,0,1,.16.373,14.32,14.32,0,0,1-.059,6.592,11.072,11.072,0,0,1-3.274,5.27,13.856,13.856,0,0,1-6.37,3.161s-.008-.626-1.116.261" transform="translate(-187.209 -119.298)"/><path class="d" d="M207.518,414.413h9.067a3.593,3.593,0,0,1,1.479.3c.664.3,1.317.845.631,1.741a7.19,7.19,0,0,0-1.6,2.533,6.318,6.318,0,0,0,0,3.74,3.6,3.6,0,0,0,2.5,2.242,13.738,13.738,0,0,0,5.206,0,3.5,3.5,0,0,0,2.738-2.452,7.168,7.168,0,0,0,0-3.25,7.574,7.574,0,0,0-1-1.913s-1.649-1.477-.69-2.242a4.086,4.086,0,0,1,2.409-.7h8.736v9.549s-.587,2.8-1.946,1.692a7.415,7.415,0,0,0-2.468-1.681,5.643,5.643,0,0,0-3.611-.2c-1.983.415-2.565,2.705-2.565,2.705a6.9,6.9,0,0,0-.248,1.816,10.544,10.544,0,0,0,.437,4.058c.908,2.244,3.616,2.161,3.616,2.161a6.011,6.011,0,0,0,4.268-1.573l.574-.534,1.895,6a3.625,3.625,0,0,1,.174,1.331c0,.01,0,.019,0,.029a1.27,1.27,0,0,1-.4.827,10.926,10.926,0,0,1-2.4,1.547s-1.3.814-2,0c-.818-.946-4.414-5.885-4.414-5.885l-3.3-4.454a12.756,12.756,0,0,1-7.162-2.74,17.359,17.359,0,0,1-3.913,1.479,12,12,0,0,1-4.583.154,13.031,13.031,0,0,1-5.351-2.8,3.424,3.424,0,0,0,3.663-2.608,5.8,5.8,0,0,0,.265-1.791Z" transform="translate(-86.079 -119.293)"/><path class="a" d="M107.3,427.387a10.172,10.172,0,0,1-2.149-.7,10.921,10.921,0,0,1-4.324-3.378,13.212,13.212,0,0,1-1.835-3.929,12.094,12.094,0,0,1-.469-3.366v-1.6h2.01a3.593,3.593,0,0,1,1.479.3c.664.3,1.317.845.631,1.741a7.19,7.19,0,0,0-1.6,2.533,6.318,6.318,0,0,0,0,3.74,3.6,3.6,0,0,0,2.5,2.242,13.738,13.738,0,0,0,5.206,0,3.5,3.5,0,0,0,2.738-2.452,7.168,7.168,0,0,0,0-3.25,7.574,7.574,0,0,0-1-1.913s-1.649-1.477-.69-2.242a4.086,4.086,0,0,1,2.409-.7h8.736v9.549s-.587,2.8-1.945,1.692a7.415,7.415,0,0,0-2.468-1.681,5.643,5.643,0,0,0-3.611-.2c-1.983.415-2.565,2.705-2.565,2.705a6.824,6.824,0,0,0-.2,1.328A23.151,23.151,0,0,1,107.3,427.387Z" transform="translate(-1.583 -119.293)"/><path class="a" d="M168.539,474.121a45.691,45.691,0,0,1,4.874-.865,3.024,3.024,0,0,0-2.072-1.206c-2.355-.281-2.625.68-2.8,2.02C168.543,474.087,168.541,474.1,168.539,474.121Z" transform="translate(-57.891 -165.606)"/><g transform="translate(168.875 283.062)"><path class="e" d="M476.09,354.017l6.133,12.674a2.967,2.967,0,0,1,.386,1.158q0,.818-1.317,1.476a2.983,2.983,0,0,1-1.215.386,1.214,1.214,0,0,1-.727-.2,1.353,1.353,0,0,1-.409-.432q-.125-.227-.352-.681l-1.181-2.453h-6.291l-1.181,2.453q-.227.455-.352.659a1.616,1.616,0,0,1-.409.42,1.168,1.168,0,0,1-.727.216,2.98,2.98,0,0,1-1.215-.386q-1.318-.636-1.317-1.454a2.96,2.96,0,0,1,.386-1.158l6.133-12.7a1.985,1.985,0,0,1,.761-.84,2.011,2.011,0,0,1,1.079-.318A1.924,1.924,0,0,1,476.09,354.017Zm-1.84,5.451-1.5,3.112h3.021Z" transform="translate(-465.915 -352.836)"/><path class="e" d="M601.13,366.123h6.178a2.585,2.585,0,0,1,1.091.17.863.863,0,0,1,.454.534,4.159,4.159,0,0,1,0,1.931.783.783,0,0,1-.386.5,2.557,2.557,0,0,1-1.181.227h-8.177q-1.59,0-1.862-.863a3.567,3.567,0,0,1-.136-1.158V354.835a6.594,6.594,0,0,1,.034-.784,1.813,1.813,0,0,1,.216-.6q.318-.613,1.772-.613,1.589,0,1.885.84a4.512,4.512,0,0,1,.114,1.181Z" transform="translate(-571.422 -352.836)"/><path class="e" d="M722.451,353.565a1.82,1.82,0,0,1,.216.613,6.952,6.952,0,0,1,.034.795v12.606q0,1.567-.863,1.84a3.682,3.682,0,0,1-1.09.136,3.827,3.827,0,0,1-1.045-.114,1.79,1.79,0,0,1-.591-.273,1.021,1.021,0,0,1-.318-.454,4.513,4.513,0,0,1-.114-1.181v-7.609q-.568.7-1.658,2.237t-1.385,1.919l-.409.534a2.173,2.173,0,0,1-.556.409,1.9,1.9,0,0,1-1.885.023,2.09,2.09,0,0,1-.6-.466l-.182-.25q-.455-.567-1.794-2.419t-1.454-1.987v7.654a6.611,6.611,0,0,1-.034.784,1.614,1.614,0,0,1-.216.579q-.341.613-1.771.613-1.386,0-1.726-.613a1.6,1.6,0,0,1-.216-.591,7.129,7.129,0,0,1-.034-.818V354.928a6.553,6.553,0,0,1,.034-.784,1.808,1.808,0,0,1,.216-.6q.341-.59,1.772-.591a3.36,3.36,0,0,1,1.056.148,1.37,1.37,0,0,1,.579.307l.136.136,5.156,6.769q3.861-5.11,5.156-6.746.386-.613,1.828-.613T722.451,353.565Z" transform="translate(-657.991 -352.929)"/><path class="e" d="M852.508,354.017l6.133,12.674a2.967,2.967,0,0,1,.386,1.158q0,.818-1.317,1.476a2.982,2.982,0,0,1-1.215.386,1.214,1.214,0,0,1-.727-.2,1.355,1.355,0,0,1-.409-.432q-.125-.227-.352-.681l-1.181-2.453h-6.292l-1.181,2.453q-.227.455-.352.659a1.615,1.615,0,0,1-.409.42,1.168,1.168,0,0,1-.727.216,2.98,2.98,0,0,1-1.215-.386q-1.317-.636-1.317-1.454a2.961,2.961,0,0,1,.386-1.158l6.133-12.7a1.985,1.985,0,0,1,.761-.84,2.011,2.011,0,0,1,1.079-.318A1.923,1.923,0,0,1,852.508,354.017Zm-1.84,5.451-1.5,3.112h3.021Z" transform="translate(-768.629 -352.836)"/></g></g></svg>