<svg xmlns="http://www.w3.org/2000/svg" width="109.706" height="109.706" viewBox="0 0 109.706 109.706"><defs><style>.a{fill:#f5f5fb;}.b{fill:#99c2ec;}.c{fill:#355b97;}.d{fill:#fec62e;}.e,.f{stroke:none;}.f{fill:#fff;}</style></defs><g transform="translate(-560 -237.147)"><g class="a" transform="translate(560 237.147)"><path class="e" d="M 54.85309219360352 106.7061920166016 C 47.85164260864258 106.7061920166016 41.06122589111328 105.3356246948242 34.67045974731445 102.6325454711914 C 28.49619293212891 100.0210571289062 22.95049285888672 96.28184509277344 18.18742561340332 91.51876068115234 C 13.42435932159424 86.75569152832031 9.685142517089844 81.21000671386719 7.073642253875732 75.03572845458984 C 4.370575428009033 68.64495849609375 3.000008821487427 61.85454177856445 3.000008821487427 54.85309219360352 C 3.000008821487427 47.85164260864258 4.370575428009033 41.06122589111328 7.073642253875732 34.67045974731445 C 9.685142517089844 28.49619293212891 13.42435932159424 22.95049285888672 18.18742561340332 18.18742561340332 C 22.95049285888672 13.42435932159424 28.49619293212891 9.685142517089844 34.67045974731445 7.073642253875732 C 41.06122589111328 4.370575428009033 47.85164260864258 3.000008821487427 54.85309219360352 3.000008821487427 C 61.85454177856445 3.000008821487427 68.64495849609375 4.370575428009033 75.03572845458984 7.073642253875732 C 81.21000671386719 9.685142517089844 86.75569152832031 13.42435932159424 91.51876068115234 18.18742561340332 C 96.28184509277344 22.95049285888672 100.0210571289062 28.49619293212891 102.6325454711914 34.67045974731445 C 105.3356246948242 41.06122589111328 106.7061920166016 47.85164260864258 106.7061920166016 54.85309219360352 C 106.7061920166016 61.85454177856445 105.3356246948242 68.64495849609375 102.6325454711914 75.03572845458984 C 100.0210418701172 81.21000671386719 96.28182220458984 86.75569152832031 91.51876068115234 91.51876068115234 C 86.75569152832031 96.28182220458984 81.21000671386719 100.0210418701172 75.03572845458984 102.6325454711914 C 68.64495849609375 105.3356246948242 61.85454177856445 106.7061920166016 54.85309219360352 106.7061920166016 Z"/><path class="f" d="M 54.85309219360352 5.999992370605469 C 27.91539001464844 5.999992370605469 5.999992370605469 27.91539001464844 5.999992370605469 54.85309219360352 C 5.999992370605469 81.790771484375 27.91539001464844 103.706169128418 54.85309219360352 103.706169128418 C 81.790771484375 103.706169128418 103.706169128418 81.790771484375 103.706169128418 54.85309219360352 C 103.706169128418 27.91539001464844 81.790771484375 5.999992370605469 54.85309219360352 5.999992370605469 M 54.85309219360352 -7.62939453125e-06 C 85.14761352539062 -7.62939453125e-06 109.706169128418 24.55857086181641 109.706169128418 54.85309219360352 C 109.706169128418 85.14761352539062 85.14761352539062 109.706169128418 54.85309219360352 109.706169128418 C 24.55857086181641 109.706169128418 -7.62939453125e-06 85.14761352539062 -7.62939453125e-06 54.85309219360352 C -7.62939453125e-06 24.55857086181641 24.55857086181641 -7.62939453125e-06 54.85309219360352 -7.62939453125e-06 Z"/></g><g transform="translate(588 265.004)"><path class="b" d="M42.875,35.119A18.288,18.288,0,0,0,21,53.053a6.3,6.3,0,0,0,7.535,6.177,54.545,54.545,0,0,1,21.511,0,6.3,6.3,0,0,0,7.531-6.177,18.339,18.339,0,0,0-14.7-17.934Z" transform="translate(-3.583 -5.36)"/><circle class="b" cx="7.838" cy="7.838" r="7.838" transform="translate(27.868 11.642)"/><g transform="translate(0 0)"><path class="c" d="M40.189,6.225H37.577V3.613A2.613,2.613,0,0,0,34.964,1H3.613A2.613,2.613,0,0,0,1,3.613v20.9a2.613,2.613,0,0,0,2.613,2.613H6.225v2.613a2.613,2.613,0,0,0,2.613,2.613H40.189A2.613,2.613,0,0,0,42.8,29.739V8.838A2.613,2.613,0,0,0,40.189,6.225ZM2.742,24.514V3.613a.871.871,0,0,1,.871-.871H34.964a.871.871,0,0,1,.871.871v20.9a.871.871,0,0,1-.871.871H3.613A.871.871,0,0,1,2.742,24.514ZM41.06,29.739a.871.871,0,0,1-.871.871H8.838a.871.871,0,0,1-.871-.871V27.126h27a2.613,2.613,0,0,0,2.613-2.613V7.967h2.613a.871.871,0,0,1,.871.871Z" transform="translate(-1 -1)"/><path class="d" d="M12.1,17.742A4.36,4.36,0,0,1,16.45,22.1a.871.871,0,0,0,1.742,0A6.1,6.1,0,1,0,6,22.1a.871.871,0,1,0,1.742,0A4.36,4.36,0,0,1,12.1,17.742Z" transform="translate(-1.646 -2.937)"/><path class="d" d="M12.483,12.967A3.483,3.483,0,1,0,9,9.483,3.483,3.483,0,0,0,12.483,12.967Zm0-5.225a1.742,1.742,0,1,1-1.742,1.742A1.742,1.742,0,0,1,12.483,7.742Z" transform="translate(-2.033 -1.646)"/><path class="c" d="M23.871,9.742H35.192a.871.871,0,0,0,0-1.742H23.871a.871.871,0,1,0,0,1.742Z" transform="translate(-3.841 -1.904)"/><path class="c" d="M23.871,15.742H35.192a.871.871,0,0,0,0-1.742H23.871a.871.871,0,1,0,0,1.742Z" transform="translate(-3.841 -2.679)"/><path class="c" d="M23.871,21.742H35.192a.871.871,0,0,0,0-1.742H23.871a.871.871,0,1,0,0,1.742Z" transform="translate(-3.841 -3.453)"/></g></g></g></svg>