<svg xmlns="http://www.w3.org/2000/svg" width="289.654" height="250.342" viewBox="0 0 289.654 250.342"><defs><style>.a{fill:#ede7f6;}.b,.n{fill:#fff;}.c{fill:#03084e;}.d{fill:#0d3a61;}.e{fill:#ffc600;}.f{fill:#99b9ff;}.g{fill:#99c2ec;}.h{fill:#355b97;}.i{fill:#02044f;}.j{fill:#caddff;}.k{fill:#d1c4e9;}.l{fill:#ce2048;}.m{fill:#ffd740;}.n{stroke:#fff;}.o{fill:#fec402;}.p{fill:none;stroke:#ff61bf;stroke-miterlimit:10;stroke-width:0.5px;}.q{fill:#040650;}.r{fill:#0f0050;}</style></defs><g transform="translate(-643.346 -333.318)"><g transform="translate(626.181 333.318)"><g transform="translate(0)"><g transform="translate(34.604)"><g transform="translate(39.598 14.621)"><g transform="translate(0 0.456)"><rect class="a" width="206.815" height="165.178" rx="31.325"/><path class="a" d="M1684.864,258.223H1478.05V247.415a9.544,9.544,0,0,1,9.544-9.544H1675.32a9.544,9.544,0,0,1,9.544,9.544Z" transform="translate(-1478.002 -237.871)"/><rect class="a" width="175.598" height="115.049" rx="25.95" transform="translate(15.608 34.812)"/></g><g transform="translate(169.367 6.081)"><ellipse class="a" cx="3.474" cy="3.474" rx="3.474" ry="3.474" transform="translate(0 7.496) rotate(-76.717)"/><ellipse class="a" cx="3.474" cy="3.474" rx="3.474" ry="3.474" transform="translate(11.359 7.496) rotate(-76.717)"/><circle class="a" cx="3.474" cy="3.474" r="3.474" transform="translate(21.984 4.913) rotate(-45)"/></g><path class="a" d="M1695.915,466.872H1536.091a8.353,8.353,0,0,1-8.343-8.343V403.518a.456.456,0,0,1,.912,0v55.011a7.44,7.44,0,0,0,7.431,7.431h159.824a7.44,7.44,0,0,0,7.431-7.431V359.254a7.44,7.44,0,0,0-7.431-7.431h-89.373a.456.456,0,1,1,0-.912h89.373a8.352,8.352,0,0,1,8.343,8.343v99.275A8.352,8.352,0,0,1,1695.915,466.872Z" transform="translate(-1512.596 -316.099)"/><path class="a" d="M1889.016,402.461h-74.3a.456.456,0,0,1,0-.912h74.3a9.075,9.075,0,0,0,9.065-9.065V246.347a9.075,9.075,0,0,0-9.065-9.065H1785.543a.456.456,0,0,1,0-.912h103.473a9.988,9.988,0,0,1,9.977,9.976V392.484A9.988,9.988,0,0,1,1889.016,402.461Z" transform="translate(-1691.722 -236.371)"/></g><g transform="translate(0)"><g transform="translate(0.456 0.456)"><rect class="b" width="125.403" height="93.385" rx="6"/></g><path class="c" d="M1453.8,282.562h-99.354a6.844,6.844,0,0,1-6.837-6.837V195.1a6.844,6.844,0,0,1,6.837-6.837h112.641a6.844,6.844,0,0,1,6.837,6.837v59.035a.456.456,0,1,1-.912,0V195.1a5.932,5.932,0,0,0-5.925-5.925H1354.443a5.932,5.932,0,0,0-5.926,5.925v80.623a5.932,5.932,0,0,0,5.926,5.925H1453.8a.456.456,0,1,1,0,.912Z" transform="translate(-1347.606 -188.265)"/></g><g transform="translate(78.485 18.52)"><path class="d" d="M1937.929,646.5c-.292-1.52-.568-2.648-.819-3.718-1.855-7.909-3.846-14.358-5.3-18.706l-3.942-14.364-48.635,8.843s-1.575,10.621-4.787,27.944Z" transform="translate(-1792.81 -500.143)"/><g transform="translate(0 17.66)"><path class="d" d="M1881.115,680.249c5.339,0,8.813-5.816,6.424-10.76-.548-1.134-1.105-2.276-1.654-3.384a9.1,9.1,0,0,0-17.309,2.71c-.025.161-.353.323-.374.487a9.622,9.622,0,0,0,9.376,10.947Z" transform="translate(-1788.405 -553.364)"/><g transform="translate(18.403 18.542)"><path class="e" d="M1893.579,382.318c27.774,7.635,31.739,17.062,31.739,37.479,0,17.8-18.332,27.606-18.332,27.606s8.8,29.372,3.832,32.215a22.222,22.222,0,0,1-19.355,1.57c-15.161-5.762-38.818-12.284-45.881-7.226,0,0,11.228-47.5,1.516-65.9,0,0-23.614-6.2-3.087-20.251C1856.939,378.97,1880.769,378.8,1893.579,382.318Z" transform="translate(-1784.191 -376.571)"/><path class="e" d="M1733.795,404.477c-6.518.757-28.423,7.353-38.751,5.815-11.661-1.737-24.262-22.84-27.848-29.264a6.341,6.341,0,0,1-.689-4.286c.439-2.273,1.479-5.513,3.913-6.9,2.033-1.156,5.83-3.123,9.41.764,0,0,8.985,14.045,19.8,14.387,10.435.33,21.882-13.818,54.042-12.478Z" transform="translate(-1666.393 -368.311)"/><path d="M1678.965,404.1c-3.215,0-5.288-3.536-5.375-3.688a.456.456,0,0,1,.79-.455c.019.033,1.9,3.231,4.585,3.231h.053c2.091-.033,4.175-1.956,6.2-5.716a.456.456,0,0,1,.8.432c-2.189,4.076-4.54,6.16-6.988,6.2Z" transform="translate(-1671.361 -388.44)"/><path class="b" d="M1986.376,509.018a.456.456,0,0,1-.192-.87c10.256-4.745,15.229-11.7,17.594-16.7a27.317,27.317,0,0,0,2.709-9.836.456.456,0,0,1,.912.023,27.666,27.666,0,0,1-2.776,10.161c-2.427,5.152-7.53,12.315-18.055,17.183A.451.451,0,0,1,1986.376,509.018Z" transform="translate(-1888.806 -446.865)"/><path class="b" d="M2001.363,606.541a.456.456,0,0,1-.005-.912c12.58-.15,20.9-4.827,20.979-4.874a.456.456,0,0,1,.453.791c-.084.048-8.59,4.842-21.421,4.995Z" transform="translate(-1899.238 -530.066)"/></g><g transform="translate(86.312 81.577)"><path class="b" d="M1913.392,588.936a24.789,24.789,0,0,0,7.711-1.005c3.872-.97,2.729-13.538-1.98-10.134-3.932,2.842-6.232,3.212-6.232,3.212l-3.792-1.889a14.365,14.365,0,0,0-4.726-1.422c-6.535-.77-6.142.739-6.142.739-.281,1.525.266,1.756,1.466,2.261l5.112,2.148a1.09,1.09,0,0,1,.3,1.792h0a9.7,9.7,0,0,1-3.023,1.905,65.679,65.679,0,0,1-9.148,2.893c-1.7.385-2.242,2.494-.673,3.275l11.286.832a10.419,10.419,0,0,0,7.825-2.753Z" transform="translate(-1890.875 -576.757)"/><path d="M1903.245,592.983q-.388,0-.776-.029l-11.286-.831a.451.451,0,0,1-.169-.047,2,2,0,0,1-1.17-2.077,2.459,2.459,0,0,1,1.944-2.051,65.723,65.723,0,0,0,9.081-2.873,9.205,9.205,0,0,0,2.881-1.816l.007-.006a.631.631,0,0,0,.184-.572.6.6,0,0,0-.357-.459l-5.112-2.149c-1.2-.5-2.064-.868-1.749-2.7a.9.9,0,0,1,.238-.625c.7-.8,2.794-.977,6.418-.55a14.8,14.8,0,0,1,4.876,1.466l3.649,1.818a18.118,18.118,0,0,0,5.905-3.1,2.484,2.484,0,0,1,2.923-.346c1.761,1.075,2.4,4.674,1.989,7.392-.328,2.154-1.259,3.575-2.555,3.9a27.159,27.159,0,0,1-7.658,1.032l-1.874,1.723A10.965,10.965,0,0,1,1903.245,592.983Zm-11.9-1.763,11.19.825a10.023,10.023,0,0,0,7.483-2.634l2.019-1.856a.454.454,0,0,1,.356-.118h0a24.827,24.827,0,0,0,7.553-.994c.921-.231,1.6-1.38,1.875-3.152.411-2.691-.32-5.718-1.563-6.477a1.649,1.649,0,0,0-1.914.307c-3.975,2.873-6.329,3.277-6.427,3.292a.455.455,0,0,1-.276-.042l-3.792-1.889a13.893,13.893,0,0,0-4.576-1.377c-4.8-.566-5.556.158-5.634.258a.459.459,0,0,1-.007.111c-.214,1.166,0,1.256,1.194,1.758l5.112,2.149a1.513,1.513,0,0,1,.9,1.142,1.542,1.542,0,0,1-.468,1.4l-.009.007a10.114,10.114,0,0,1-3.158,1.988,65.457,65.457,0,0,1-9.215,2.914,1.544,1.544,0,0,0-1.241,1.27A1.091,1.091,0,0,0,1891.347,591.22Zm6.28-13.94h0Zm0,0h0Zm0,0v0Z" transform="translate(-1889.829 -575.711)"/></g><path class="b" d="M1607.421,309.86a1.5,1.5,0,0,1,1.731-1.022c2.072.456,12.742,2.807,14.732,3.259s2.069,2.668,3.2,4.7c.985,1.764,4.378,8.229,8.075,12.734a4.335,4.335,0,0,1,.4,4.845,6.76,6.76,0,0,1-1.88,2.266c-1.929,1.318-3.379,2.889-7.251-6.378a3.081,3.081,0,0,0-1.146-1.388,14.057,14.057,0,0,1-2.963-2.65s-6.489,7.922-8.147-8.164a3.615,3.615,0,0,1,1.693-3.526c.1-.056.2-.112.3-.168l-7.774-2.493a1.582,1.582,0,0,1-.979-2.01Z" transform="translate(-1606.884 -308.348)"/><path d="M1630.567,337.056a2,2,0,0,1-.562-.082c-1.487-.433-2.993-2.7-5.033-7.582a2.618,2.618,0,0,0-.976-1.183,14.407,14.407,0,0,1-2.721-2.348c-.721.727-2.419,2.146-4.225,1.6-2.255-.677-3.725-4.178-4.366-10.4a4.14,4.14,0,0,1,1.4-3.6l-6.86-2.2a1.961,1.961,0,0,1-1.154-.991,2.091,2.091,0,0,1-.12-1.6h0a1.952,1.952,0,0,1,2.262-1.325c3.478.766,12.906,2.844,14.735,3.259,1.624.369,2.149,1.714,2.705,3.137a14.066,14.066,0,0,0,.795,1.782c.108.194.245.444.408.741a83.123,83.123,0,0,0,7.621,11.926,4.8,4.8,0,0,1,.448,5.357,7.078,7.078,0,0,1-2.02,2.419l-.253.175A3.8,3.8,0,0,1,1630.567,337.056Zm-9.283-12.334a.456.456,0,0,1,.349.162,13.56,13.56,0,0,0,2.866,2.563,3.527,3.527,0,0,1,1.315,1.593c1.845,4.416,3.3,6.725,4.446,7.059.578.168,1.086-.157,1.867-.7l.26-.18a6.208,6.208,0,0,0,1.739-2.113,3.877,3.877,0,0,0-.358-4.332,83.958,83.958,0,0,1-7.716-12.066c-.161-.3-.3-.543-.4-.735a14.785,14.785,0,0,1-.848-1.894c-.579-1.481-.96-2.331-2.059-2.58-1.827-.415-11.251-2.493-14.729-3.258a1.043,1.043,0,0,0-1.2.721,1.158,1.158,0,0,0,.067.9,1.056,1.056,0,0,0,.619.537l7.773,2.493a.456.456,0,0,1,.073.837q-.149.079-.285.159a3.166,3.166,0,0,0-1.47,3.086c.748,7.252,2.435,9.236,3.719,9.623,1.761.531,3.6-1.679,3.622-1.7a.457.457,0,0,1,.349-.167Z" transform="translate(-1605.842 -307.304)"/><path d="M1646.744,335.848a.454.454,0,0,1-.229-.062c-.52-.3-1.473-.98-1.859-1.256a15.481,15.481,0,0,1-3.821-3.8,3.081,3.081,0,0,1-.549-1.808,1.582,1.582,0,0,1,1.183-1.627c1.317-.459,3.377.777,3.607.92a.456.456,0,0,1-.479.776c-.729-.45-2.142-1.074-2.828-.835-.311.108-.557.194-.572.79a2.181,2.181,0,0,0,.393,1.274,14.56,14.56,0,0,0,3.6,3.568c.292.21,1.286.918,1.787,1.21a.456.456,0,0,1-.23.85Z" transform="translate(-1629.817 -321.149)"/><path d="M1652.382,357.525a.455.455,0,0,1-.332-.143,5.682,5.682,0,0,1-1.653-3.967.456.456,0,0,1,.91.056,4.777,4.777,0,0,0,1.407,3.287.456.456,0,0,1-.332.768Z" transform="translate(-1636.853 -339.103)"/></g><g transform="translate(91.26)"><g transform="translate(11.935 21.988)"><path class="b" d="M1960.929,342.073l-.7-19.027-13.347,7.009.147,12.026a5.682,5.682,0,0,0,2.3,4.176c2.728,2.074,6.55,1.7,9.33-.3l.644-.463A3.987,3.987,0,0,0,1960.929,342.073Z" transform="translate(-1946.422 -322.59)"/><path d="M1952.543,347.067a7.442,7.442,0,0,1-4.54-1.491,6.093,6.093,0,0,1-2.478-4.522l-.147-12.037a.457.457,0,0,1,.244-.409l13.347-7.009a.456.456,0,0,1,.667.387l.7,19.025a4.421,4.421,0,0,1-1.822,3.81l-.644.463A9.188,9.188,0,0,1,1952.543,347.067Zm-6.25-17.783.143,11.746a5.261,5.261,0,0,0,2.1,3.806,7.487,7.487,0,0,0,8.807-.294l.644-.463a3.513,3.513,0,0,0,1.443-3.031v0l-.677-18.3Z" transform="translate(-1945.378 -321.546)"/></g><path d="M1912.444,249.852c3.563-.212-.916,3.56,12.26-.4,5.247-1.577,2.593,4.724,3.955,4.319,5.03-1.5,4.858-1.451,7.313-.788,1.626.439,2.685,3.523,2.379,5.827-.4,3.041-2.843,3.827-5,10.253-1.517,4.513-1.144,7.255-2.9,7.913-1.778.666-3.09-1.788-5.085-1.211-2.581.746-2.071,5.344-4.584,7.252-1.584,1.2-5.271,1.762-11.181-1.2a2.308,2.308,0,0,1-1.167-2.659c.363-1.359.83-3.074,1.41-4.673,2.761-7.623,5.4-9.347,4.443-11.322-1.465-3.025-7.028-1.289-7.95-3.775C1905.373,256.812,1907.565,250.143,1912.444,249.852Z" transform="translate(-1906.11 -249.199)"/><g transform="translate(2.412 9.641)"><path class="b" d="M1931.445,286.122l-1.02,1.958a23.058,23.058,0,0,0-1.25,2.858c-.661,1.841-1.916,4.956-2.6,6.716-2.2,5.659-8.968-.557-8.968-.557l-.471-1.558-.91-.381a1.093,1.093,0,0,1-.455-.34,1.11,1.11,0,0,1-.045-1.277c1.359-2.065,4.194-6.7,5.212-10.866A11.213,11.213,0,0,1,1931.445,286.122Z" transform="translate(-1915.089 -281.986)"/><path d="M1922.476,299.423c-2.863,0-6.074-2.919-6.222-3.055a.45.45,0,0,1-.128-.2l-.409-1.352-.712-.3a1.541,1.541,0,0,1-.7-2.288c1.209-1.838,4.132-6.563,5.15-10.723a.457.457,0,0,1,.326-.332,11.571,11.571,0,0,1,10.957,3.574.456.456,0,0,1,.073.523l-1.019,1.958a22.572,22.572,0,0,0-1.225,2.8c-.481,1.34-1.287,3.38-1.934,5.019-.251.636-.483,1.224-.672,1.708a3.786,3.786,0,0,1-2.635,2.575A3.727,3.727,0,0,1,1922.476,299.423Zm-5.515-3.646c.58.506,3.815,3.208,6.154,2.664a2.9,2.9,0,0,0,1.99-2.017c.189-.486.422-1.075.673-1.712.645-1.633,1.448-3.666,1.924-4.993a23.627,23.627,0,0,1,1.275-2.915l.868-1.666a10.845,10.845,0,0,0-9.58-3.14,40.354,40.354,0,0,1-5.2,10.73.629.629,0,0,0,.3.946l.909.381a.455.455,0,0,1,.26.288Z" transform="translate(-1914.046 -280.92)"/></g><path class="b" d="M1963.124,309.138s2.445-4.711,4.282-3.106-.981,6.72-4.282,3.106Z" transform="translate(-1945.796 -288.527)"/><g transform="translate(2.197 14.276)"><path d="M1928.124,304.505a1.97,1.97,0,0,1-1.406-.539c-.678-.655-.96-1.831-.861-3.6.077-1.363.471-2.184,1.206-2.51h0a2.017,2.017,0,0,1,1.609-.045,1.577,1.577,0,0,1,.884.869,5.784,5.784,0,0,1-.128,5,1.519,1.519,0,0,1-1.06.806C1928.284,304.5,1928.2,304.505,1928.124,304.505Zm-.188-5.923a1.249,1.249,0,0,0-.5.112h0c-.386.171-.609.752-.664,1.727-.1,1.823.261,2.576.583,2.888a1.119,1.119,0,0,0,.932.276c.035-.007.219-.108.422-.47a5.031,5.031,0,0,0,0-4.109.681.681,0,0,0-.383-.35A.989.989,0,0,0,1927.936,298.582Zm-.689-.3h0Z" transform="translate(-1922.038 -297.214)"/><path d="M1943.832,300.042a.447.447,0,0,1-.06,0l-11.14-1.455a.456.456,0,0,1,.118-.9l11.139,1.455a.456.456,0,0,1-.058.908Z" transform="translate(-1926.492 -297.218)"/><path d="M1914.544,302.269a.451.451,0,0,1-.2-.045,1.9,1.9,0,0,1-.735-1.182,5.318,5.318,0,0,1,.255-4.022,1.581,1.581,0,0,1,1.1-.82,3.578,3.578,0,0,1,2.464.865.456.456,0,1,1-.576.707,2.775,2.775,0,0,0-1.72-.676.66.66,0,0,0-.471.372,4.484,4.484,0,0,0,.117,3.954.456.456,0,0,1-.234.847Zm.244-.837Zm-.047-.03h0Z" transform="translate(-1913.337 -296.171)"/></g></g></g><g transform="translate(94.84 142.174)"><ellipse class="f" cx="8.432" cy="8.432" rx="8.432" ry="8.432"/><g transform="translate(27.568)"><ellipse class="g" cx="8.432" cy="8.432" rx="8.432" ry="8.432"/></g><g transform="translate(55.137)"><ellipse class="g" cx="8.432" cy="8.432" rx="8.432" ry="8.432"/></g></g><path class="b" d="M1735.1,550.166a.456.456,0,0,1-.247-.839l14.923-9.592a.456.456,0,1,1,.493.767l-14.923,9.592A.453.453,0,0,1,1735.1,550.166Z" transform="translate(-1617.011 -432.862)"/><path class="b" d="M1669.872,594.172a.456.456,0,0,1-.247-.839l13.511-8.685a.456.456,0,1,1,.493.767l-13.511,8.685A.452.452,0,0,1,1669.872,594.172Z" transform="translate(-1571.608 -464.125)"/><path class="b" d="M1712.38,570.1a.456.456,0,0,1-.247-.84l34.747-22.335a.456.456,0,1,1,.493.767l-34.747,22.335A.453.453,0,0,1,1712.38,570.1Z" transform="translate(-1601.197 -437.865)"/></g><g transform="translate(39.143 97.609)"><g transform="translate(0 33.517)"><path class="h" d="M1428.176,683.616l-42.585-.424c-7.7,0-14.287-5.027-15.636-12.68l-7.29-41.362a8.02,8.02,0,0,1,7.844-9.451h27.786Z" transform="translate(-1362.539 -619.7)"/><path class="h" d="M1478.864,879.434h-7.006V828.363l7.006.267Z" transform="translate(-1438.633 -764.944)"/><path class="h" d="M1445.253,968.287h-31.516a8.9,8.9,0,0,0-8.9,8.9h49.32A8.9,8.9,0,0,0,1445.253,968.287Z" transform="translate(-1391.98 -862.341)"/><path class="h" d="M1391.717,678.2a.456.456,0,0,1-.448-.377l-3.534-20.079a.456.456,0,0,1,.9-.158l3.533,20.079a.456.456,0,0,1-.37.528A.482.482,0,0,1,1391.717,678.2Z" transform="translate(-1380.072 -645.812)"/></g><g transform="translate(5.381)"><path d="M1426.571,509.6c2.8-.248,4.754,2.3,6.32,6.167,1.278,3.154.776,5.78-.951,7.51-5.585,5.595-11.645,21.738-19.929,26.648-6.61,3.918-20.448,3.192-26.838-4.93-6.076-7.722-7-18.908-.124-23.941,6.181-4.524,11.938,3.23,18.5-.977,6.468-4.148,6.366-7.587,10.192-9.61C1417.846,508.294,1418.64,510.3,1426.571,509.6Z" transform="translate(-1380.245 -509.422)"/><g transform="translate(16.818 71.636)"><path class="g" d="M1650.744,914.416c-.058.243,2.792,13.288,2.792,13.288l-6.552-1.1-1.974-11.03Z" transform="translate(-1581.358 -862.962)"/><g transform="translate(61.481 59.094)"><path class="b" d="M1646.133,941.977a2.831,2.831,0,0,1,1.7-.7,2.723,2.723,0,0,1,2.555,1.651c1.136,2.525,4.132,9.56,4.979,15.31.3,2.032-1.234,3.685-3.623,2.353A29.227,29.227,0,0,1,1639.555,946a2.679,2.679,0,0,1,.326-2.542,12.768,12.768,0,0,1,1.721-1.942,1.792,1.792,0,0,1,2.334-.037l.615.506A1.233,1.233,0,0,0,1646.133,941.977Z" transform="translate(-1638.915 -940.609)"/><path d="M1652.312,960.479a3.774,3.774,0,0,1-1.836-.54,29.593,29.593,0,0,1-12.4-14.826,3.121,3.121,0,0,1,.384-2.975,13.032,13.032,0,0,1,1.785-2.012,2.236,2.236,0,0,1,2.928-.05l.616.506a.781.781,0,0,0,1-.008h0a3.286,3.286,0,0,1,1.977-.8,3.2,3.2,0,0,1,2.99,1.919c1.226,2.723,4.167,9.678,5.014,15.431a2.969,2.969,0,0,1-1.079,2.941A2.4,2.4,0,0,1,1652.312,960.479Zm-10.575-20.01a1.311,1.311,0,0,0-.879.337,12.144,12.144,0,0,0-1.658,1.871,2.212,2.212,0,0,0-.268,2.11,28.64,28.64,0,0,0,11.988,14.356,2.12,2.12,0,0,0,2.255.169,2.077,2.077,0,0,0,.7-2.058c-.831-5.64-3.734-12.5-4.944-15.19a2.282,2.282,0,0,0-2.119-1.382,2.355,2.355,0,0,0-1.429.591,1.693,1.693,0,0,1-2.165.015l-.615-.506A1.354,1.354,0,0,0,1641.737,940.469Z" transform="translate(-1637.867 -939.556)"/><path d="M1657.5,968.089c-.527,0-6.14-.327-12.879-13.647a.456.456,0,0,1,.814-.411c6.671,13.185,12.01,13.148,12.066,13.147a.45.45,0,0,1,.472.44.456.456,0,0,1-.439.472Z" transform="translate(-1642.536 -949.457)"/><path d="M1672.258,971.98a.456.456,0,0,1-.167-.88l3.106-1.226a.456.456,0,0,1,.335.848l-3.106,1.226A.457.457,0,0,1,1672.258,971.98Z" transform="translate(-1661.488 -960.638)"/><path d="M1668.677,963.711a.456.456,0,0,1-.166-.881l3.644-1.418a.456.456,0,0,1,.33.85l-3.643,1.418A.457.457,0,0,1,1668.677,963.711Z" transform="translate(-1658.995 -954.748)"/></g><path class="g" d="M1554.121,914.3a28.657,28.657,0,0,0-.7,4.211c-.473,4.3,4.339,8.28,4.339,8.28l-11.4-1.537.435-9.95Z" transform="translate(-1512.695 -862.882)"/><g transform="translate(31.903 56.716)"><path class="b" d="M1545.99,935.536c.668-.221.516-1.253,1.063-1.741a2.415,2.415,0,0,1,2.84-.224c2.457,1.24,9.173,4.8,13.417,8.731,1.5,1.389,1.339,3.647-1.347,4.131a28.8,28.8,0,0,1-18.572-3.589,2.663,2.663,0,0,1-1.333-2.183,32.073,32.073,0,0,1,.152-4.126,1.809,1.809,0,0,1,1.79-1.512l.794,0C1545.389,935.027,1545.423,935.723,1545.99,935.536Z" transform="translate(-1541.59 -932.766)"/><path d="M1556.93,946.186a30.016,30.016,0,0,1-14.813-3.983,3.1,3.1,0,0,1-1.56-2.557,32.377,32.377,0,0,1,.158-4.22,2.253,2.253,0,0,1,2.235-1.894h.006l.794,0a1.233,1.233,0,0,1,.9.43,1.167,1.167,0,0,0,.124.112l.028-.009h0c.135-.044.2-.221.322-.587a2.228,2.228,0,0,1,.581-1.061,2.872,2.872,0,0,1,3.348-.29c2.651,1.337,9.276,4.873,13.521,8.8a2.974,2.974,0,0,1,1,2.963,2.918,2.918,0,0,1-2.576,1.951A23.132,23.132,0,0,1,1556.93,946.186Zm-13.98-11.743a1.345,1.345,0,0,0-1.335,1.13,31.649,31.649,0,0,0-.146,4.032,2.194,2.194,0,0,0,1.1,1.808,28.218,28.218,0,0,0,18.264,3.535,2.138,2.138,0,0,0,1.862-1.31,2.08,2.08,0,0,0-.744-2.038c-4.161-3.853-10.7-7.339-13.313-8.659a1.988,1.988,0,0,0-2.331.157,1.539,1.539,0,0,0-.319.659,1.544,1.544,0,0,1-.9,1.175h0a.982.982,0,0,1-1.078-.32c-.135-.133-.178-.167-.262-.167l-.794,0Zm1.831-.364h0Z" transform="translate(-1540.546 -931.729)"/><path d="M1562.315,962.432c-2.9,0-7.268-.787-13.6-3.622a.456.456,0,0,1,.373-.832c13.292,5.954,17.534,2.578,17.575,2.543a.456.456,0,0,1,.6.688C1567.164,961.3,1565.8,962.432,1562.315,962.432Z" transform="translate(-1546.046 -949.972)"/><path d="M1582.591,950.46a.456.456,0,0,1-.4-.68l1.649-2.926a.456.456,0,1,1,.794.448l-1.649,2.926A.455.455,0,0,1,1582.591,950.46Z" transform="translate(-1569.495 -942.096)"/><path d="M1574.925,946.374a.45.45,0,0,1-.236-.067.456.456,0,0,1-.152-.627l1.857-3.047a.456.456,0,1,1,.778.474l-1.856,3.048A.457.457,0,0,1,1574.925,946.374Z" transform="translate(-1564.159 -939.167)"/></g><path class="i" d="M1456.22,748.425s39.9-1.732,44.263,2.319c5.917,5.495,16.081,51.236,16.081,51.236l-9.814,2.751s-14.787-37.539-18.452-37.539-38.21-1.233-38.21-1.233Z" transform="translate(-1445.678 -747.165)"/><path class="i" d="M1438.272,745.121s-5.262,15.449-1.075,18.267,34.373,2.578,33.325,2.226-2.7,25.3-2.7,35.158l9.5.367s15.145-39.664,13.513-44.093c-2.921-7.923-24.942-10.6-32.136-11.657C1457.223,745.17,1438.272,745.121,1438.272,745.121Z" transform="translate(-1435.579 -745.121)"/><path class="j" d="M1560.215,783.751a.456.456,0,0,1-.434-.6q.513-1.6,1.014-3.145c2.652-8.193,4.942-15.269,4.006-18.091-1.99-6.006-17.02-8.331-21.959-9.1a.456.456,0,1,1,.14-.9c8.809,1.363,20.744,3.852,22.685,9.709,1.029,3.106-1.192,9.97-4,18.659q-.5,1.54-1.013,3.142A.457.457,0,0,1,1560.215,783.751Z" transform="translate(-1509.972 -749.853)"/></g><g transform="translate(13.741 22.991)"><g transform="translate(8.61)"><path class="b" d="M1456.719,587.919s.141-2.547-1.432,24c0,0,1.083,20.545,1.218,22.862s20.226,1.31,20.226,1.31c2.377-10.42,2.117-22.376.459-35.148l3.443-.308.24-8.027c-.624-2.364-3.254-4.063-5.022-4.695C1471.146,585.8,1462.8,586.482,1456.719,587.919Z" transform="translate(-1454.831 -586.116)"/><path d="M1466.668,635.72q-.522,0-1.047,0c-9.234-.069-10.559-.979-10.616-1.953-.134-2.291-1.208-22.659-1.218-22.864a.5.5,0,0,1,0-.051c.66-11.139,1.018-17.157,1.212-20.39.1-1.617.152-2.537.184-3.053.012-.2.023-.364.037-.5a.456.456,0,0,1,0-.059l0-.054h.012c.051-.347.154-.46.47-.443a.515.515,0,0,1,.109.021c5.841-1.347,14.263-2.118,19.164.075,1.639.591,4.579,2.3,5.292,5a.459.459,0,0,1,.015.13l-.239,8.028a.456.456,0,0,1-.415.44l-2.971.266c1.787,14.047,1.615,25.447-.527,34.837a.457.457,0,0,1-.422.354C1475.664,635.5,1471.3,635.72,1466.668,635.72ZM1454.7,610.876c.044.832,1.085,20.582,1.216,22.834.046.094.745,1.049,10.035,1.1,4.108.02,8.179-.146,9.368-.2,2.069-9.325,2.191-20.664.375-34.649a.456.456,0,0,1,.411-.513l3.041-.272.225-7.555c-.568-2.012-2.834-3.646-4.717-4.32l-.033-.013c-4.669-2.1-12.808-1.351-18.513-.047C1456.034,588.443,1455.75,593.151,1454.7,610.876Z" transform="translate(-1453.788 -585.067)"/></g><path class="g" d="M1529.255,640.187l-.872-42.346a4.864,4.864,0,0,0-2.648-3.883,8.414,8.414,0,0,0-2.672-1.1s-.469-.266-.572,2.3c-.05,1.25,1.54,15.151,1.826,27.066.2,8.339-1.045,15.623-.962,17.226.006.119,5.495,1.217,5.863.848Z" transform="translate(-1492.999 -590.484)"/><path d="M1498.457,639.718a.456.456,0,0,1-.213-.859c4.7-2.478,5.017-9.478,5.019-9.549a.456.456,0,0,1,.911.034c-.012.309-.341,7.6-5.505,10.322A.457.457,0,0,1,1498.457,639.718Z" transform="translate(-1475.953 -615.558)"/><path class="g" d="M1439.35,589.784a9.143,9.143,0,0,0-7.954,3.7,17.22,17.22,0,0,0-2.887,12.917c.99,6.574,5.123,14.06,4.932,16.1a37.78,37.78,0,0,1-5.123,14.353c-3.277,5.2-3.136,16.661-2.5,17.034,4.313,2.514,11.386,7.614,19.81,8.223a2.678,2.678,0,0,0,3.053-1.953,243.747,243.747,0,0,0,3.673-33.331c.314-11.866-8.136-29.885-8.508-31.432A9.506,9.506,0,0,0,1439.35,589.784Z" transform="translate(-1425.457 -588.333)"/><path class="g" d="M1471.524,694.246c3.941,9.014,10.988,11.156,22.547,12.7l-1.233,3.41c-17.271,2.156-20.522-1.261-27.5-10.406Z" transform="translate(-1453.214 -661.063)"/><g transform="translate(34.708 17.399)"><path class="g" d="M1539.949,642.316c.882,7.456,12.538,18.512,18.807,20.946l-4.2,3.172c-5.418.2-12.464-6.048-14.9-8.26Z" transform="translate(-1539.654 -642.316)"/><g transform="translate(11.315 18.754)"><path class="b" d="M1578.571,708.188a1.375,1.375,0,0,1,.752-.674,5.357,5.357,0,0,0,.687-.313l3.052-1.62c.572-.28,1.389.372,1.983.567,1.792.588,5.5,1.975,5.195,3.276-.33,1.4-3.517.74-4.648.456-.259-.065-2.6.784-3.341.839a2.415,2.415,0,0,1-1.759-.445,1.626,1.626,0,0,0-.758-.176,1.392,1.392,0,0,1-1.086-.509l-.006-.008a1.184,1.184,0,0,1-.13-1.278Z" transform="translate(-1577.926 -705.059)"/><path d="M1580.867,710.152a2.449,2.449,0,0,1-1.422-.4c-.066-.037-.134-.076-.208-.115a1.171,1.171,0,0,0-.548-.123,1.843,1.843,0,0,1-1.439-.68,1.645,1.645,0,0,1-.186-1.778l.06-.118a1.824,1.824,0,0,1,1-.9,4.794,4.794,0,0,0,.627-.286l3.052-1.62a2.075,2.075,0,0,1,1.821.3,4.229,4.229,0,0,0,.517.235c5.934,1.949,5.6,3.352,5.5,3.814a1.36,1.36,0,0,1-.638.86c-1.075.656-3.267.256-4.513-.052-.187.026-.782.2-1.223.333a13.124,13.124,0,0,1-2.024.506C1581.106,710.147,1580.982,710.152,1580.867,710.152Zm1.471-5.223a.264.264,0,0,0-.116.023l-3.039,1.613a5.7,5.7,0,0,1-.746.339.913.913,0,0,0-.5.453h0l-.06.118a.728.728,0,0,0,.08.785.941.941,0,0,0,.74.346,2.082,2.082,0,0,1,.966.228c.084.044.162.088.237.131a1.761,1.761,0,0,0,1.277.263,13.751,13.751,0,0,0,1.833-.47c1.141-.339,1.43-.413,1.653-.357,1.814.454,3.3.52,3.868.171a.444.444,0,0,0,.225-.29c.1-.422-1.122-1.5-4.893-2.739a4.976,4.976,0,0,1-.642-.286A2.588,2.588,0,0,0,1582.338,704.929Zm-4.809,2.22h0Z" transform="translate(-1576.884 -704.02)"/></g></g><g transform="translate(5.354 21.49)"><path class="j" d="M1447.458,754.091a10.9,10.9,0,0,1-4.1-.851.456.456,0,1,1,.341-.845c7.7,3.109,11.606-3.892,11.768-4.191a.456.456,0,1,1,.8.435C1456.233,748.7,1453.23,754.091,1447.458,754.091Z" transform="translate(-1443.073 -719.946)"/><path class="j" d="M1541.74,668.244a.456.456,0,0,1-.455-.44l-.414-11.558a.456.456,0,1,1,.911-.033l.414,11.558a.456.456,0,0,1-.439.472Z" transform="translate(-1511.147 -655.774)"/><path class="j" d="M1477.856,717.312a19.629,19.629,0,0,1-9.233-2.13c-.686-.3-1.4-.611-2.2-.933a11.1,11.1,0,0,1-5.5-4.715c-.671-1.065-1.242-2.2-1.8-3.291-.484-.959-.985-1.951-1.545-2.88a.456.456,0,1,1,.78-.471c.578.958,1.087,1.965,1.579,2.939.543,1.075,1.1,2.187,1.753,3.216a10.244,10.244,0,0,0,5.071,4.355c.814.327,1.53.641,2.223.944,3.566,1.561,5.921,2.592,13.562,1.767.659-.071,3.168-.041,3.7-.019a.456.456,0,0,1-.037.911c-.659-.027-3.025-.044-3.567.015A44.964,44.964,0,0,1,1477.856,717.312Z" transform="translate(-1453.127 -688.419)"/><path class="j" d="M1496.388,699.525a.453.453,0,0,1-.207-.05l-2.744-1.4-.058-.065c-1.75-1.987-3.062-5.4-4.219-8.783a.456.456,0,0,1,.863-.294c1.114,3.26,2.367,6.532,3.985,8.411l2.588,1.324a.456.456,0,0,1-.208.862Z" transform="translate(-1475.135 -678.637)"/></g><g transform="translate(37.468 44.34)"><path class="b" d="M1550.422,735.124a1.374,1.374,0,0,1,.752-.674,5.343,5.343,0,0,0,.687-.313l3.052-1.619c.572-.28,1.389.372,1.983.568,1.791.588,5.5,1.974,5.194,3.276-.329,1.4-3.517.74-4.648.456-.259-.065-2.6.784-3.341.839a2.413,2.413,0,0,1-1.759-.446,1.629,1.629,0,0,0-.758-.176,1.391,1.391,0,0,1-1.087-.509l-.006-.008a1.183,1.183,0,0,1-.13-1.278Z" transform="translate(-1549.777 -731.995)"/><path d="M1552.718,737.088a2.449,2.449,0,0,1-1.422-.4c-.066-.037-.134-.077-.208-.116a1.177,1.177,0,0,0-.548-.123,1.845,1.845,0,0,1-1.44-.68,1.646,1.646,0,0,1-.186-1.778l.06-.117h0a1.822,1.822,0,0,1,1-.9,4.816,4.816,0,0,0,.626-.286l3.053-1.62a2.076,2.076,0,0,1,1.822.3,4.251,4.251,0,0,0,.517.235c5.934,1.949,5.6,3.352,5.5,3.813a1.36,1.36,0,0,1-.639.86c-1.075.656-3.266.256-4.513-.052-.187.025-.782.2-1.223.333a13.067,13.067,0,0,1-2.024.506C1552.958,737.083,1552.833,737.088,1552.718,737.088Zm-2.932-2.8-.06.117a.729.729,0,0,0,.08.786.941.941,0,0,0,.74.346,2.084,2.084,0,0,1,.967.228c.084.044.162.089.237.132a1.761,1.761,0,0,0,1.276.263,13.754,13.754,0,0,0,1.833-.471c1.14-.339,1.43-.412,1.653-.357,1.814.454,3.3.52,3.869.171a.446.446,0,0,0,.225-.289c.1-.423-1.122-1.5-4.893-2.739a4.944,4.944,0,0,1-.642-.286c-.338-.17-.8-.4-1-.305l-3.04,1.613a5.672,5.672,0,0,1-.745.339.916.916,0,0,0-.5.452Z" transform="translate(-1548.735 -730.956)"/></g></g><g transform="translate(32.059 10.545)"><path class="b" d="M1504.547,553.89a.736.736,0,0,0,.621-.885c-.58-2.6-.357-7.054-.442-6.928-.927,1.36-2.857-.346-5.606-.455a2.289,2.289,0,0,0-2.511,1.7.319.319,0,0,1-.571.079c-.4-.621-1.083-1.147-2.1-.13-1.131,1.131-.184,3.753.839,4.613-.249.283-4.155,4.5-7.153,7.66a1.449,1.449,0,0,0,.177,2.151l2.665,2.022a4.976,4.976,0,0,0,5.7.221l.411-.264a.81.81,0,0,0,.151-1.237l-.807-.856A2.274,2.274,0,0,1,1495.8,559l1.647-2.792a7.437,7.437,0,0,0,1.3,1.288,2.116,2.116,0,0,0,2.742-.221,7.81,7.81,0,0,0,2.14-3.257Z" transform="translate(-1486.77 -545.163)"/><path d="M1492.431,564.138a5.431,5.431,0,0,1-3.286-1.1l-2.665-2.022a1.9,1.9,0,0,1-.233-2.828c2.588-2.733,5.863-6.256,6.855-7.333a5.332,5.332,0,0,1-1.174-3.014,2.5,2.5,0,0,1,.643-1.935,1.933,1.933,0,0,1,1.543-.7,1.624,1.624,0,0,1,1.1.681,2.714,2.714,0,0,1,2.875-1.764,11.561,11.561,0,0,1,3.024.623c1.324.41,1.855.52,2.188.031a.463.463,0,0,1,.515-.181c.341.105.341.236.341,1.253a32.2,32.2,0,0,0,.408,6.013,1.186,1.186,0,0,1-.183.931,1.2,1.2,0,0,1-.819.5h0l-.638.09a8.441,8.441,0,0,1-2.169,3.174,2.572,2.572,0,0,1-3.318.265,6.127,6.127,0,0,1-.965-.885l-1.325,2.246a1.855,1.855,0,0,0,.072,2.056l.791.836a1.266,1.266,0,0,1-.236,1.934l-.411.264A5.424,5.424,0,0,1,1492.431,564.138Zm1.543-18.028a1.282,1.282,0,0,0-.758.439,1.673,1.673,0,0,0-.377,1.251,4.2,4.2,0,0,0,1.186,2.691.456.456,0,0,1,.049.65c-.244.277-4.091,4.427-7.164,7.673a.993.993,0,0,0,.121,1.475l2.665,2.022a4.535,4.535,0,0,0,5.178.2l.411-.265a.354.354,0,0,0,.066-.541l-.808-.856a2.707,2.707,0,0,1-.191-3.1l1.661-2.817a.456.456,0,0,1,.744-.059,6.785,6.785,0,0,0,1.206,1.2,1.66,1.66,0,0,0,2.167-.177,7.316,7.316,0,0,0,2.019-3.06.456.456,0,0,1,.373-.318l.918-.129a.285.285,0,0,0,.2-.121.268.268,0,0,0,.042-.213,32.432,32.432,0,0,1-.429-6.135,4.244,4.244,0,0,1-2.4-.309,10.666,10.666,0,0,0-2.79-.583A1.85,1.85,0,0,0,1496,546.41a.775.775,0,0,1-1.39.194c-.136-.21-.349-.466-.593-.492Zm9.53,6.735h0Z" transform="translate(-1485.726 -544.119)"/><g transform="translate(9.698 9.856)"><path class="b" d="M1519.137,578.047l.526.734Z" transform="translate(-1518.681 -577.591)"/><path d="M1518.619,578.192a.456.456,0,0,1-.371-.191l-.526-.734a.456.456,0,1,1,.741-.531l.526.734a.456.456,0,0,1-.37.721Z" transform="translate(-1517.636 -576.546)"/></g></g></g><g transform="translate(51.553 42.707)"><path class="k" d="M1555.481,680.066l9.249-27.256a3.047,3.047,0,0,1,2.559-1.372h24.652a1.532,1.532,0,0,1,1.474,2.046c-.145.381-.3.759-.429,1.146l-8.359,25.485h0a2.736,2.736,0,0,1-2.734,2.69H1536.4a2.737,2.737,0,0,1-2.736-2.739Z" transform="translate(-1533.205 -650.982)"/><path d="M1580.845,682.217h-45.492a3.2,3.2,0,0,1-3.192-3.2.456.456,0,0,1,.456-.456h21.493l9.144-26.946a.455.455,0,0,1,.049-.1,3.487,3.487,0,0,1,2.942-1.58H1590.9a2,2,0,0,1,1.675.87,1.943,1.943,0,0,1,.225,1.794l-.126.327c-.107.274-.208.533-.3.8l-8.342,25.434A3.209,3.209,0,0,1,1580.845,682.217Zm-47.726-2.739a2.285,2.285,0,0,0,2.235,1.827h45.492a2.291,2.291,0,0,0,2.278-2.242.46.46,0,0,1,.043-.184l8.342-25.435c.1-.29.206-.573.313-.847l.124-.32a1.019,1.019,0,0,0-.123-.952,1.1,1.1,0,0,0-.924-.476h-24.651a2.578,2.578,0,0,0-2.146,1.119l-9.23,27.2a.456.456,0,0,1-.432.31Z" transform="translate(-1532.161 -649.938)"/><path class="b" d="M1665.5,693.708a1.915,1.915,0,1,0,2.444-1.542A2.057,2.057,0,0,0,1665.5,693.708Z" transform="translate(-1624.898 -679.283)"/></g><path class="b" d="M1583.749,753.146H1474.3a3.594,3.594,0,0,0-3.393,4.1l7.558,71.639h5.457l-4.731-67.235a1.984,1.984,0,0,1,1.885-2.2h93.951a2.967,2.967,0,0,1,2.82,3.285l-4.683,66.567h5.457l7.687-73.069A2.711,2.711,0,0,0,1583.749,753.146Z" transform="translate(-1437.956 -679.071)"/></g><g transform="translate(111.519 0.919)"><g transform="translate(0 104.214)"><g transform="translate(6.41 9.726)"><path class="i" d="M1635.426,568.9a.456.456,0,0,1-.349-.749l1.517-1.8a.456.456,0,1,1,.7.586l-1.517,1.8A.455.455,0,0,1,1635.426,568.9Z" transform="translate(-1630.957 -566.18)"/><path class="i" d="M1623.8,582.731a.456.456,0,0,1-.349-.749l1.517-1.8a.456.456,0,0,1,.7.587l-1.517,1.8A.456.456,0,0,1,1623.8,582.731Z" transform="translate(-1622.863 -575.81)"/><path class="i" d="M1624.026,570.186a.455.455,0,0,1-.293-.107l-1.8-1.517a.456.456,0,1,1,.587-.7l1.8,1.517a.456.456,0,0,1-.293.8Z" transform="translate(-1621.765 -567.278)"/><path class="i" d="M1637.86,581.814a.456.456,0,0,1-.293-.107l-1.805-1.517a.456.456,0,1,1,.587-.7l1.8,1.517a.456.456,0,0,1-.293.8Z" transform="translate(-1631.395 -575.372)"/></g><path class="i" d="M1603.222,539.335a2.536,2.536,0,0,1-2.234-1.346,2.6,2.6,0,0,1,1-3.493h0a2.484,2.484,0,0,1,1.919-.216,2.534,2.534,0,0,1,1.53,1.245,2.6,2.6,0,0,1-1,3.492A2.486,2.486,0,0,1,1603.222,539.335Zm-.791-4.042a1.683,1.683,0,0,0-.641,2.264,1.631,1.631,0,0,0,.983.8,1.575,1.575,0,0,0,1.218-.137,1.684,1.684,0,0,0,.641-2.264,1.631,1.631,0,0,0-.983-.8,1.576,1.576,0,0,0-1.219.137Z" transform="translate(-1600.676 -534.179)"/><path class="i" d="M1688.693,552.453a1.872,1.872,0,1,1,1.894,1.824A1.865,1.865,0,0,1,1688.693,552.453Z" transform="translate(-1661.942 -545.593)"/></g><g transform="translate(120.285)"><path class="i" d="M1998.226,193.525a.455.455,0,0,1-.323-.133l-1.326-1.325a.456.456,0,1,1,.645-.645l1.326,1.325a.456.456,0,0,1-.322.778Z" transform="translate(-1996.444 -191.288)"/><path class="i" d="M2013.5,208.782a.455.455,0,0,1-.322-.133l-1.326-1.325a.456.456,0,0,1,.645-.645l1.326,1.325a.456.456,0,0,1-.322.778Z" transform="translate(-2007.073 -201.908)"/><path class="i" d="M1996.9,208.782a.456.456,0,0,1-.322-.778l1.326-1.325a.456.456,0,1,1,.645.645l-1.326,1.325A.455.455,0,0,1,1996.9,208.782Z" transform="translate(-1996.444 -201.908)"/><path class="i" d="M2012.17,193.525a.456.456,0,0,1-.323-.778l1.326-1.325a.456.456,0,1,1,.645.645l-1.326,1.325A.453.453,0,0,1,2012.17,193.525Z" transform="translate(-2007.073 -191.288)"/></g><g transform="translate(123.761 189.791)"><path class="i" d="M2008.337,851.393a.456.456,0,0,1-.276-.819,122.1,122.1,0,0,0,30.952-34.607.456.456,0,0,1,.782.468,123.007,123.007,0,0,1-31.182,34.864A.455.455,0,0,1,2008.337,851.393Z" transform="translate(-2007.881 -815.745)"/><path class="i" d="M2078.1,859.627a.456.456,0,0,1-.333-.767,123.241,123.241,0,0,0,13.618-17.538.456.456,0,1,1,.767.492,124.053,124.053,0,0,1-13.719,17.668A.455.455,0,0,1,2078.1,859.627Z" transform="translate(-2056.438 -833.402)"/></g></g><g transform="translate(154.489 219.469)"><g transform="translate(1.831 0.673)"><path class="b" d="M1749.582,924.851a9.942,9.942,0,0,0,0-9.349l1.168-1.415,38.586,1.062-1.1,10.254-37.564.36Z" transform="translate(-1749.126 -913.631)"/><path class="f" d="M1749.626,925.174a.458.458,0,0,1-.293-.106l-1.089-.912a.455.455,0,0,1-.118-.547,9.447,9.447,0,0,0,.006-8.942.455.455,0,0,1,.053-.5l1.168-1.415a.464.464,0,0,1,.364-.166l38.586,1.062a.456.456,0,0,1,.441.5l-1.1,10.254a.456.456,0,0,1-.449.407l-37.564.36Zm-.528-1.492.692.579,36.99-.354,1.005-9.36-37.87-1.042-.837,1.015A10.365,10.365,0,0,1,1749.1,923.682Z" transform="translate(-1748.081 -912.587)"/></g><path class="l" d="M1809.242,910.372h-65.931a1.268,1.268,0,0,0,0,2.536h33.9a3.633,3.633,0,0,1,3.614,3.652v2.053a3.633,3.633,0,0,1-3.614,3.652h-33.9a1.268,1.268,0,0,0,0,2.536h65.931a6.7,6.7,0,0,0,6.664-6.734v-.961A6.7,6.7,0,0,0,1809.242,910.372Z" transform="translate(-1742.056 -910.372)"/><g transform="translate(3.757 5.032)"><g transform="translate(1.386 10.423)"><path class="b" d="M1760.477,976.424h60.2v-13.7h-60.2A20.125,20.125,0,0,1,1760.477,976.424Z" transform="translate(-1760.021 -962.266)"/><path class="f" d="M1819.628,975.836h-60.2a.456.456,0,0,1-.427-.615,19.673,19.673,0,0,0,0-13.391.456.456,0,0,1,.43-.607h60.2a.456.456,0,0,1,.456.456v13.7A.456.456,0,0,1,1819.628,975.836Zm-59.551-.912h59.1v-12.79h-59.105A20.6,20.6,0,0,1,1760.077,974.924Z" transform="translate(-1758.976 -961.222)"/></g><path class="j" d="M1822.659,977.935h-45.567a.456.456,0,0,1,0-.912h45.567a.456.456,0,0,1,0,.912Z" transform="translate(-1769.883 -961.798)"/><path class="j" d="M1841.273,990.536h-37.439a.456.456,0,1,1,0-.912h37.439a.456.456,0,1,1,0,.912Z" transform="translate(-1788.497 -970.569)"/><path class="h" d="M1809.568,960.089h-54.117a1.039,1.039,0,0,1-1.034-1.045h0a1.039,1.039,0,0,1,1.034-1.045H1823.7a4.567,4.567,0,0,1,4.543,4.591v7.216a4.567,4.567,0,0,1-4.543,4.59h-68.249a1.045,1.045,0,0,1,0-2.089h54.117a3.226,3.226,0,0,0,3.209-3.243v-5.733A3.226,3.226,0,0,0,1809.568,960.089Z" transform="translate(-1754.417 -948.557)"/><path class="j" d="M1790.451,927.841h-27.814a.456.456,0,0,1,0-.912h27.814a.456.456,0,0,1,0,.912Z" transform="translate(-1759.821 -926.929)"/></g></g><path class="m" d="M803.293,1585.612a.627.627,0,0,1,.129.462l-.3,2.464,2.246.272a.626.626,0,0,1,.546.7l-.278,2.294,2.411.292a.626.626,0,1,1-.15,1.243l-3.032-.367a.626.626,0,0,1-.546-.7l.277-2.294-2.246-.271a.626.626,0,0,1-.546-.7l.3-2.464-2.528-.306a.626.626,0,1,1,.15-1.243l3.149.381A.625.625,0,0,1,803.293,1585.612Z" transform="translate(-772.534 -1383.329)"/><path class="i" d="M516.849,765.634a.569.569,0,0,1,.4.971.588.588,0,0,0,.426,1,.612.612,0,0,0,.353-.139c.042-.031.085-.068.131-.106a1.951,1.951,0,0,1,.569-.364,1.726,1.726,0,0,1,2.344,1.66,1.7,1.7,0,0,1-.253.836,2.2,2.2,0,0,1-.25.322,1.6,1.6,0,0,0-.119.144.588.588,0,0,0,.5.919.608.608,0,0,0,.353-.139c.042-.031.085-.068.13-.106a1.956,1.956,0,0,1,.569-.364,1.726,1.726,0,0,1,1.84,2.831.569.569,0,0,1-.8-.8.588.588,0,0,0,0-.831.6.6,0,0,0-.627-.133,1.014,1.014,0,0,0-.245.173c-.053.045-.113.095-.179.144a1.9,1.9,0,0,1-.462.258,1.631,1.631,0,0,1-.556.109h-.03a1.727,1.727,0,0,1-1.425-2.7,2.593,2.593,0,0,1,.207-.256,1.3,1.3,0,0,0,.13-.161.549.549,0,0,0,.085-.274.59.59,0,0,0-.172-.433.6.6,0,0,0-.627-.133,1.014,1.014,0,0,0-.245.173c-.053.044-.113.095-.179.145a1.9,1.9,0,0,1-.462.258,1.637,1.637,0,0,1-.556.109,1.725,1.725,0,0,1-1.25-2.946A.568.568,0,0,1,516.849,765.634Z" transform="translate(-498.776 -664.416)"/><path class="i" d="M4288.437,449.8a.568.568,0,0,1,.887-.563.587.587,0,0,0,.914-.592.605.605,0,0,0-.2-.324c-.038-.036-.082-.072-.128-.11a1.959,1.959,0,0,1-.457-.5,1.726,1.726,0,0,1,1.231-2.6,1.7,1.7,0,0,1,.868.1,2.176,2.176,0,0,1,.36.191,1.528,1.528,0,0,0,.162.092.587.587,0,0,0,.819-.647.608.608,0,0,0-.2-.324c-.039-.036-.081-.072-.128-.11a1.942,1.942,0,0,1-.456-.5,1.726,1.726,0,0,1,1.844-2.575,1.733,1.733,0,0,1,.628.275.569.569,0,1,1-.655.931.588.588,0,0,0-.819.143.6.6,0,0,0-.022.641,1.01,1.01,0,0,0,.212.211c.054.044.113.095.174.151a1.931,1.931,0,0,1,.334.41,1.647,1.647,0,0,1,.2.529l.006.029a1.737,1.737,0,0,1-.288,1.29,1.713,1.713,0,0,1-.647.556,1.734,1.734,0,0,1-1.479.023,2.436,2.436,0,0,1-.288-.16,1.3,1.3,0,0,0-.181-.1.552.552,0,0,0-.285-.037.59.59,0,0,0-.4.244.6.6,0,0,0-.023.641,1,1,0,0,0,.213.211c.053.044.113.095.173.151a1.87,1.87,0,0,1,.333.41,1.617,1.617,0,0,1,.2.528,1.736,1.736,0,0,1-.283,1.319,1.711,1.711,0,0,1-.5.472,1.724,1.724,0,0,1-1.907-.052A.561.561,0,0,1,4288.437,449.8Z" transform="translate(-3988.011 -371.246)"/><ellipse class="b" cx="0.289" cy="0.579" rx="0.289" ry="0.579" transform="translate(193.255 155.76)"/><path class="b" d="M48.611,46.236a2.629,2.629,0,0,0,1.805-2.528,2.708,2.708,0,1,0-5.416,0,.9.9,0,1,0,1.805,0,.9.9,0,1,1,.9.9.853.853,0,0,0-.9.9v3.611a.9.9,0,1,0,1.805,0Z" transform="translate(145.131 104.009)"/><g transform="translate(161.135 146.881)"><path class="n" d="M18.509,22.783v3.154a1.784,1.784,0,0,0,1.783,1.783h2.743a1.784,1.784,0,0,0,1.783-1.783V23.88A1.784,1.784,0,0,0,23.034,22.1H20.062a.274.274,0,0,0,0,.549h2.972a1.236,1.236,0,0,1,1.234,1.234v2.057a1.236,1.236,0,0,1-1.234,1.234H20.291a1.236,1.236,0,0,1-1.234-1.234V22.783A1.784,1.784,0,0,0,17.274,21a.274.274,0,0,0,0,.549A1.236,1.236,0,0,1,18.509,22.783Z" transform="translate(-17 -21)"/><path class="n" d="M58,73.754A.754.754,0,1,0,58.754,73,.756.756,0,0,0,58,73.754Zm.96,0a.206.206,0,1,1-.206-.206A.205.205,0,0,1,58.96,73.754Z" transform="translate(-52.377 -65.869)"/><path class="n" d="M32,73.754A.754.754,0,1,0,32.754,73,.756.756,0,0,0,32,73.754Zm.96,0a.206.206,0,1,1-.206-.206A.205.205,0,0,1,32.96,73.754Z" transform="translate(-29.943 -65.869)"/></g></g><g transform="translate(50.276 9.808)"><path class="o" d="M228.048,269.661a1.621,1.621,0,0,1,.283.462,2.872,2.872,0,0,1,.22,1.132v.776a2.963,2.963,0,0,1-.083.712,1.743,1.743,0,0,1-.121.359,1.564,1.564,0,0,1-1.4.97h-.595a1.374,1.374,0,0,1-.208-.017,3.172,3.172,0,0,1-1.517-.824.854.854,0,0,0-.144-.107c-.218-.125-.438-.063-.589.237a1.761,1.761,0,0,0-.239.842v4.029h4.123a2.508,2.508,0,0,1,1.176.28,2.139,2.139,0,0,1,.437.3,1.251,1.251,0,0,1,.385.806,1.461,1.461,0,0,1-.263,1.017l0,.007-.269.322c-.034.041-.069.08-.1.119a1.216,1.216,0,0,0-.349.726v.466a.786.786,0,0,0,.355.67l.009.006a.459.459,0,0,0,.1.043h0a2.25,2.25,0,0,0,.682.106h.746a2.259,2.259,0,0,0,.7-.11l.042-.014.054-.031a.786.786,0,0,0,.355-.67v-.466a1.206,1.206,0,0,0-.342-.719c-.039-.044-.078-.088-.116-.133l-.264-.315,0-.007a1.461,1.461,0,0,1-.264-1.017,1.251,1.251,0,0,1,.385-.806,2.137,2.137,0,0,1,.437-.3,2.507,2.507,0,0,1,1.176-.28h4.137v-4.2a2.385,2.385,0,0,1,.175-.915,1.465,1.465,0,0,1,1.087-.959,1.9,1.9,0,0,1,.653.011l.047.011a7.681,7.681,0,0,0-1.2-2.456c-.045-.059-.09-.117-.134-.176a5.367,5.367,0,0,0-2.246-1.721,8.972,8.972,0,0,0-3.153-.507,14.128,14.128,0,0,0-3.033.448,7.188,7.188,0,0,0-3.31-1.666,3.051,3.051,0,0,0-2.2.35v2.657a1.4,1.4,0,0,0,.19.716c.149.251.369.475.729.174a3.666,3.666,0,0,1,1.371-.8S227.4,268.966,228.048,269.661Z" transform="translate(-212.431 -266.074)"/><path class="g" d="M106.845,276.333v2.091a2.509,2.509,0,0,0,.28,1.176,2.143,2.143,0,0,0,.3.437,1.251,1.251,0,0,0,.806.385,1.461,1.461,0,0,0,1.017-.263l.007,0,.315-.264c.045-.038.087-.079.133-.116a1.309,1.309,0,0,1,.719-.342h.465a.745.745,0,0,1,.67.355c.009.018.021.035.031.054,0,0,.005.015.014.042a2.259,2.259,0,0,1,.11.7v.746a2.25,2.25,0,0,1-.106.682h0a.455.455,0,0,1-.043.1l-.006.009a.786.786,0,0,1-.67.355h-.465a1.216,1.216,0,0,1-.726-.348c-.039-.036-.079-.07-.119-.1l-.322-.269-.007,0a1.461,1.461,0,0,0-1.017-.263,1.251,1.251,0,0,0-.806.385,2.143,2.143,0,0,0-.3.436,2.509,2.509,0,0,0-.28,1.176v4.1h-4.126a2.508,2.508,0,0,0-1.176.28,2.139,2.139,0,0,0-.437.3,1.251,1.251,0,0,0-.385.806,1.461,1.461,0,0,0,.263,1.017l0,.007.264.315c.038.045.077.089.116.133a1.207,1.207,0,0,1,.342.719v.466a.786.786,0,0,1-.355.67l-.053.031-.042.014a2.26,2.26,0,0,1-.7.11h-.746a2.251,2.251,0,0,1-.682-.106h0a.458.458,0,0,1-.1-.043l-.009-.006a.786.786,0,0,1-.355-.67v-.466a1.216,1.216,0,0,1,.348-.726c.036-.039.07-.079.1-.119l.269-.322,0-.007a1.461,1.461,0,0,0,.263-1.017,1.251,1.251,0,0,0-.385-.806,2.14,2.14,0,0,0-.437-.3,2.508,2.508,0,0,0-1.176-.28h-.788l-.007-.041c-.156-.671-.263-1.293-.263-1.293a5.242,5.242,0,0,1,.632-3.257,6.372,6.372,0,0,1,2.634-2.216,4.822,4.822,0,0,1,.914-1.672,4.389,4.389,0,0,1,2.275-1.429,10.273,10.273,0,0,1,2.654-.165,10.315,10.315,0,0,1,1.108-1.157Z" transform="translate(-96.553 -275.427)"/><path class="g" d="M388.886,348.946a5.107,5.107,0,0,1-.556,1.568h-3.306l0-.283v-3.756a1.537,1.537,0,0,1,.3-.926l.032-.041a.371.371,0,0,1,.546-.049l.493.4a2.122,2.122,0,0,0,.234.164,2.332,2.332,0,0,0,1.213.327h.235a3.392,3.392,0,0,1,.817,1.944A4.1,4.1,0,0,1,388.886,348.946Z" transform="translate(-359.549 -338.361)"/><path class="p" d="M428.572,475.658" transform="translate(-399.255 -457.152)"/><path class="o" d="M331.827,421.848l-.006,0-.315.263c-.045.038-.089.077-.133.116a1.37,1.37,0,0,1-.74.321h-.465a.786.786,0,0,1-.67-.355q-.016-.026-.031-.053s-.005-.015-.014-.042a2.261,2.261,0,0,1-.11-.7v-.746a2.253,2.253,0,0,1,.106-.682h0a.468.468,0,0,1,.043-.1l.006-.009a.786.786,0,0,1,.67-.355h.465a1.217,1.217,0,0,1,.726.349c.039.036.079.07.119.1l.3.249.06.041a1.9,1.9,0,0,0,.988.247,1.178,1.178,0,0,0,.806-.385,2.135,2.135,0,0,0,.3-.437,2.533,2.533,0,0,0,.305-1.176v-4.085h2.577s-.314.155-.188.373a.609.609,0,0,1,.072.168,6.458,6.458,0,0,1-.026,2.973,4.993,4.993,0,0,1-1.476,2.377,6.248,6.248,0,0,1-2.872,1.425s0-.282-.5.118" transform="translate(-308.787 -401.32)"/><path class="q" d="M205.361,414.413h4.089a1.621,1.621,0,0,1,.667.136c.3.135.594.381.285.785a3.242,3.242,0,0,0-.722,1.142,2.849,2.849,0,0,0,0,1.687,1.626,1.626,0,0,0,1.125,1.011,6.2,6.2,0,0,0,2.348,0,1.58,1.58,0,0,0,1.235-1.106,3.233,3.233,0,0,0,0-1.465,3.416,3.416,0,0,0-.452-.863s-.744-.666-.311-1.011a1.842,1.842,0,0,1,1.086-.316h3.939v4.306s-.265,1.264-.877.763a3.345,3.345,0,0,0-1.113-.758,2.545,2.545,0,0,0-1.628-.09,1.728,1.728,0,0,0-1.157,1.22,3.113,3.113,0,0,0-.112.819,4.756,4.756,0,0,0,.2,1.83,1.764,1.764,0,0,0,1.631.974,2.71,2.71,0,0,0,1.925-.71l.259-.241.854,2.7a1.634,1.634,0,0,1,.079.6v.013a.572.572,0,0,1-.179.373,4.925,4.925,0,0,1-1.081.7s-.587.367-.9,0c-.369-.427-1.99-2.654-1.99-2.654l-1.487-2.009a5.753,5.753,0,0,1-3.23-1.236,7.829,7.829,0,0,1-1.764.667,5.413,5.413,0,0,1-2.067.069,5.877,5.877,0,0,1-2.413-1.261,1.544,1.544,0,0,0,1.652-1.176,2.618,2.618,0,0,0,.12-.808Z" transform="translate(-194.138 -401.314)"/><path class="o" d="M102.479,420.263a4.587,4.587,0,0,1-.969-.314,4.924,4.924,0,0,1-1.95-1.523,5.958,5.958,0,0,1-.827-1.772,5.453,5.453,0,0,1-.212-1.518v-.724h.906a1.621,1.621,0,0,1,.667.136c.3.135.594.381.285.785a3.242,3.242,0,0,0-.722,1.142,2.849,2.849,0,0,0,0,1.687,1.626,1.626,0,0,0,1.125,1.011,6.2,6.2,0,0,0,2.348,0,1.58,1.58,0,0,0,1.235-1.106,3.232,3.232,0,0,0,0-1.465,3.416,3.416,0,0,0-.452-.863s-.744-.666-.311-1.011a1.843,1.843,0,0,1,1.086-.316h3.939v4.306s-.265,1.264-.877.763a3.345,3.345,0,0,0-1.113-.758,2.545,2.545,0,0,0-1.628-.09,1.728,1.728,0,0,0-1.157,1.22,3.077,3.077,0,0,0-.089.6A10.442,10.442,0,0,1,102.479,420.263Z" transform="translate(-98.347 -401.314)"/><path class="o" d="M168.539,472.957a20.593,20.593,0,0,1,2.2-.39,1.364,1.364,0,0,0-.934-.544c-1.062-.127-1.184.307-1.261.911Z" transform="translate(-162.183 -453.818)"/><g transform="translate(32.614 7.661)"><path class="r" d="M470.5,353.369l2.766,5.715a1.338,1.338,0,0,1,.174.522q0,.369-.594.666a1.343,1.343,0,0,1-.548.174.547.547,0,0,1-.328-.092.61.61,0,0,1-.184-.195q-.056-.1-.159-.307l-.533-1.106h-2.837l-.533,1.106q-.1.205-.159.3a.727.727,0,0,1-.184.19.527.527,0,0,1-.328.1,1.344,1.344,0,0,1-.548-.174q-.594-.287-.594-.656a1.335,1.335,0,0,1,.174-.522l2.766-5.726a.9.9,0,0,1,.343-.379.907.907,0,0,1,.487-.143A.868.868,0,0,1,470.5,353.369Zm-.83,2.458-.676,1.4h1.362Z" transform="translate(-465.915 -352.836)"/><path class="r" d="M598.923,358.828h2.786a1.166,1.166,0,0,1,.492.077.389.389,0,0,1,.2.241,1.878,1.878,0,0,1,0,.871.353.353,0,0,1-.174.225,1.153,1.153,0,0,1-.533.1h-3.687q-.717,0-.84-.389a1.608,1.608,0,0,1-.062-.522v-5.695a3,3,0,0,1,.015-.353.821.821,0,0,1,.1-.271q.143-.276.8-.277.717,0,.85.379a2.038,2.038,0,0,1,.051.533Z" transform="translate(-585.526 -352.836)"/><path class="r" d="M712.736,353.229a.818.818,0,0,1,.1.277,3.115,3.115,0,0,1,.015.358v5.685q0,.707-.389.83a1.662,1.662,0,0,1-.492.061,1.726,1.726,0,0,1-.471-.051.8.8,0,0,1-.266-.123.461.461,0,0,1-.144-.2,2.04,2.04,0,0,1-.051-.533V356.1q-.256.318-.748,1.009t-.625.866l-.184.241a.981.981,0,0,1-.251.184.859.859,0,0,1-.85.01.939.939,0,0,1-.271-.21l-.082-.113q-.205-.256-.809-1.091t-.656-.9v3.452a2.967,2.967,0,0,1-.015.353.725.725,0,0,1-.1.261q-.153.277-.8.276-.625,0-.779-.276a.724.724,0,0,1-.1-.266,3.211,3.211,0,0,1-.016-.369v-5.685a2.952,2.952,0,0,1,.016-.353.818.818,0,0,1,.1-.271q.154-.266.8-.266a1.515,1.515,0,0,1,.476.067.619.619,0,0,1,.261.138l.061.061,2.325,3.052q1.741-2.3,2.325-3.042.174-.277.825-.277T712.736,353.229Z" transform="translate(-683.667 -352.942)"/><path class="r" d="M846.922,353.369l2.765,5.715a1.337,1.337,0,0,1,.174.522q0,.369-.594.666a1.343,1.343,0,0,1-.548.174.547.547,0,0,1-.328-.092.61.61,0,0,1-.184-.195q-.056-.1-.159-.307l-.533-1.106h-2.837l-.533,1.106q-.1.205-.159.3a.728.728,0,0,1-.184.19.527.527,0,0,1-.328.1,1.344,1.344,0,0,1-.548-.174q-.594-.287-.594-.656a1.334,1.334,0,0,1,.174-.522l2.766-5.726a.894.894,0,0,1,.343-.379.907.907,0,0,1,.487-.143A.868.868,0,0,1,846.922,353.369Zm-.83,2.458-.676,1.4h1.362Z" transform="translate(-809.096 -352.836)"/></g></g><g transform="translate(50.63 48.392)"><g transform="translate(0.11 7.194)"><path class="g" d="M1405.5,385.409h-32.516a1.725,1.725,0,0,1-1.725-1.725h0a1.725,1.725,0,0,1,1.725-1.725H1405.5a1.725,1.725,0,0,1,1.725,1.725h0A1.725,1.725,0,0,1,1405.5,385.409Z" transform="translate(-1371.261 -381.959)"/></g><g transform="translate(38.599 7.084)"><path class="g" d="M1515.213,385.075h-24.894a1.725,1.725,0,0,1-1.725-1.725h0a1.725,1.725,0,0,1,1.725-1.725h24.894a1.725,1.725,0,0,1,1.725,1.725h0A1.725,1.725,0,0,1,1515.213,385.075Z" transform="translate(-1488.594 -381.625)"/></g><path class="g" d="M1395.57,363.479h-22.918a1.725,1.725,0,0,1-1.725-1.725h0a1.725,1.725,0,0,1,1.725-1.725h22.918a1.725,1.725,0,0,1,1.725,1.725h0A1.725,1.725,0,0,1,1395.57,363.479Z" transform="translate(-1370.927 -360.029)"/></g><rect class="g" width="67.795" height="24.712" rx="7.333" transform="translate(50.543 63.687)"/></g></g></svg>