<svg xmlns="http://www.w3.org/2000/svg" width="45.057" height="45.013" viewBox="0 0 45.057 45.013"><defs><style>.a{fill:#355b97;stroke:#fff;stroke-width:3px;}.b{fill:#fec62e;}</style></defs><g transform="translate(-1241.5 -1101.5)"><g transform="translate(1240.8 1100.6)"><path class="a" d="M42.933,19.832l-1.721-1.986a5.548,5.548,0,0,1-1.324-3.177l-.221-2.6A5.568,5.568,0,0,0,34.593,6.99l-2.6-.221a5.382,5.382,0,0,1-3.177-1.324L26.825,3.724a5.548,5.548,0,0,0-7.193,0L17.646,5.445a5.548,5.548,0,0,1-3.177,1.324l-2.6.221A5.568,5.568,0,0,0,6.79,12.065l-.221,2.6a5.382,5.382,0,0,1-1.324,3.177L3.524,19.832a5.548,5.548,0,0,0,0,7.193l1.721,1.986a5.548,5.548,0,0,1,1.324,3.177l.221,2.6a5.568,5.568,0,0,0,5.075,5.075l2.6.221a5.382,5.382,0,0,1,3.177,1.324l1.986,1.677a5.548,5.548,0,0,0,7.193,0l1.986-1.677a5.548,5.548,0,0,1,3.177-1.324l2.6-.221a5.568,5.568,0,0,0,5.075-5.075l.221-2.6a5.382,5.382,0,0,1,1.324-3.177l1.721-1.986A5.547,5.547,0,0,0,42.933,19.832ZM23.295,35.013A11.607,11.607,0,1,1,34.9,23.407,11.621,11.621,0,0,1,23.295,35.013Z"/></g><path class="b" d="M52.407,42.784l-4.493-.911a.558.558,0,0,1-.364-.243l-2.307-4.007a.568.568,0,0,0-.971,0l-2.307,4.007a.41.41,0,0,1-.364.243l-4.493.911a.544.544,0,0,0-.3.911l3.1,3.4a.4.4,0,0,1,.121.425l-.486,4.554a.541.541,0,0,0,.789.546l4.19-1.882a.519.519,0,0,1,.425,0l4.19,1.882a.553.553,0,0,0,.789-.546l-.486-4.554a.878.878,0,0,1,.121-.425l3.1-3.4A.535.535,0,0,0,52.407,42.784Z" transform="translate(1219.348 1078.65)"/></g></svg>