<svg xmlns="http://www.w3.org/2000/svg" width="17.667" height="18" viewBox="0 0 17.667 18"><defs><style>.a{fill:#355b97;}</style></defs><g transform="translate(-23.5 -23)"><g transform="translate(23.5 23)"><path class="a" d="M35.5,38a3.167,3.167,0,0,1-6.325,0h-3.5a2.167,2.167,0,0,1-.17-4.327v-3.84a6.833,6.833,0,0,1,13.667,0v3.84A2.167,2.167,0,0,1,39,38Zm-1.672,0H30.842a1.5,1.5,0,0,0,2.982,0ZM39,35.333a1.5,1.5,0,0,1-1.5-1.5v-4a5.167,5.167,0,0,0-10.333,0v4a1.5,1.5,0,0,1-1.5,1.5.5.5,0,1,0,0,1H39a.5.5,0,1,0,0-1Z" transform="translate(-23.5 -23)"/></g></g></svg>