<svg xmlns="http://www.w3.org/2000/svg" width="21" height="21" viewBox="0 0 21 21"><defs><style>.a{fill:#fec62e;}</style></defs><g transform="translate(-21.5 -26.5)"><path class="a" d="M38.5,43.5v8.818h8.818V43.5Zm7.285,5.176H43.676v2.109H42.142V48.676H40.034V47.142h2.109V45.034h1.534v2.109h2.109Z" transform="translate(-10.909 -10.909)"/><path class="a" d="M35.118,48.116a.59.59,0,0,1,.511-.584h0a.561.561,0,0,1,.584.511h0a.561.561,0,0,1-.511.584h-.037A.531.531,0,0,1,35.118,48.116Zm-1.753.365a.6.6,0,0,1-.438-.657h0a.6.6,0,0,1,.657-.438h0a.6.6,0,0,1,.438.657h0a.55.55,0,0,1-.548.438h0C33.438,48.518,33.4,48.482,33.365,48.482Zm3.907-.657a.528.528,0,0,1,.329-.694h0a.528.528,0,0,1,.694.329h0a.528.528,0,0,1-.329.694h0a.329.329,0,0,1-.183.037h0A.549.549,0,0,1,37.272,47.824Zm-6.1-.11a.544.544,0,0,1-.219-.73h0a.544.544,0,0,1,.73-.219h0a.544.544,0,0,1,.219.73h0a.57.57,0,0,1-.475.292h0A.528.528,0,0,1,31.174,47.715Zm8.107-.767a.567.567,0,0,1,.11-.767h0a.567.567,0,0,1,.767.11h0a.541.541,0,0,1-.146.767h0a.589.589,0,0,1-.329.11h0A.562.562,0,0,1,39.281,46.948Zm-10.042-.584A.565.565,0,0,1,29.2,45.6h0a.565.565,0,0,1,.767-.037h0a.565.565,0,0,1,.037.767h0a.586.586,0,0,1-.4.183h0A.523.523,0,0,1,29.239,46.363ZM41,45.56a.5.5,0,0,1-.073-.767h0a.532.532,0,0,1,.767-.073h0a.566.566,0,0,1,.073.767h0a.491.491,0,0,1-.438.183h0A.51.51,0,0,1,41,45.56Zm-13.219-.986a.584.584,0,0,1,.183-.767h0a.584.584,0,0,1,.767.183h0a.584.584,0,0,1-.183.767h0a.688.688,0,0,1-.292.073h0A.463.463,0,0,1,27.778,44.574Zm14.46-.8a.55.55,0,0,1-.292-.73h0a.55.55,0,0,1,.73-.292h0a.551.551,0,0,1,.292.73h0a.517.517,0,0,1-.511.329h0A.463.463,0,0,1,42.238,43.771Zm-15.41-1.351a.523.523,0,0,1,.365-.657h0a.578.578,0,0,1,.694.365h0a.579.579,0,0,1-.365.694h0c-.037,0-.11.037-.146.037h0A.629.629,0,0,1,26.829,42.419Zm16.14-.73a.567.567,0,0,1-.475-.621h0a.567.567,0,0,1,.621-.475h0a.567.567,0,0,1,.475.621h0a.549.549,0,0,1-.548.475h0C43.005,41.725,43.005,41.689,42.969,41.689ZM26.5,40.119h0a.57.57,0,0,1,.548-.584h0a.562.562,0,0,1,.548.548h0a.562.562,0,0,1-.548.548h0A.508.508,0,0,1,26.5,40.119Zm0,0ZM42.494,39.06a.567.567,0,0,1,.475-.621h0a.567.567,0,0,1,.621.475h0a.567.567,0,0,1-.475.621h-.073A.553.553,0,0,1,42.494,39.06Zm-15.3-.621a.52.52,0,0,1-.365-.694h0a.5.5,0,0,1,.657-.365h0a.534.534,0,0,1,.365.694h0a.537.537,0,0,1-.511.4h0C27.3,38.475,27.23,38.439,27.194,38.439Zm14.752-1.351h0a.563.563,0,0,1,.292-.73h0a.55.55,0,0,1,.73.292h0a.563.563,0,0,1-.292.73h0a.463.463,0,0,1-.219.037h0A.517.517,0,0,1,41.946,37.087Zm-14.022-.73a.567.567,0,0,1-.183-.767h0a.576.576,0,0,1,.767-.183h0a.576.576,0,0,1,.183.767h0a.532.532,0,0,1-.475.256h0A.3.3,0,0,1,27.924,36.357Zm12.963-1.023a.566.566,0,0,1,.073-.767h0a.566.566,0,0,1,.767.073h0a.566.566,0,0,1-.073.767h0a.617.617,0,0,1-.365.11h0A.39.39,0,0,1,40.887,35.335ZM29.2,34.568a.531.531,0,0,1,.037-.767h0a.529.529,0,0,1,.767.037h0a.529.529,0,0,1-.037.767h0a.523.523,0,0,1-.365.146h0A.465.465,0,0,1,29.2,34.568Zm10.188-.621a.574.574,0,0,1-.146-.767h0a.574.574,0,0,1,.767-.146h0a.574.574,0,0,1,.146.767h0a.571.571,0,0,1-.438.219h0A.372.372,0,0,1,39.39,33.947Zm-8.508-.73a.544.544,0,0,1,.219-.73h0a.544.544,0,0,1,.73.219h0a.544.544,0,0,1-.219.73h0a.677.677,0,0,1-.256.073h0A.57.57,0,0,1,30.882,33.216Zm6.682-.183a.528.528,0,0,1-.329-.694h0a.528.528,0,0,1,.694-.329h0a.528.528,0,0,1,.329.694h0a.549.549,0,0,1-.511.365h0A1.581,1.581,0,0,0,37.564,33.034ZM32.89,32.34a.541.541,0,0,1,.438-.657h0a.569.569,0,0,1,.657.438h0a.569.569,0,0,1-.438.657h-.11A.582.582,0,0,1,32.89,32.34Zm2.7.256h0a.561.561,0,0,1-.511-.584h0a.564.564,0,0,1,.584-.511h0a.539.539,0,0,1,.511.584h0a.564.564,0,0,1-.584.511Z" transform="translate(-3.083 -3.083)"/><path class="a" d="M32,47.5A10.5,10.5,0,1,1,42.5,37,10.519,10.519,0,0,1,32,47.5Zm0-19.895A9.395,9.395,0,1,0,41.395,37,9.387,9.387,0,0,0,32,27.605Z" transform="translate(0 0)"/></g></svg>