<svg xmlns="http://www.w3.org/2000/svg" width="17.365" height="18" viewBox="0 0 17.365 18"><defs><style>.a{fill:#355b97;}</style></defs><g transform="translate(-1658.539 -46.924)"><path class="a" d="M13.615,17.23A3.615,3.615,0,1,0,10,13.615a3.615,3.615,0,0,0,3.615,3.615Zm0-6.025a2.41,2.41,0,1,1-2.41,2.41A2.41,2.41,0,0,1,13.615,11.205Z" transform="translate(1653.6 42.309)"/><path class="a" d="M3.358,10.492l-.942.558a1.7,1.7,0,0,0-.6,2.328l1.3,2.244a1.7,1.7,0,0,0,2.328.6l.936-.54a.6.6,0,0,1,.882.516v1.074A1.71,1.71,0,0,0,8.92,19h2.592a1.71,1.71,0,0,0,1.7-1.7v-1.08a.6.6,0,0,1,.9-.5l.93.534a1.7,1.7,0,0,0,2.328-.6l1.3-2.244a1.7,1.7,0,0,0-.6-2.328l-.96-.558a.6.6,0,0,1,0-.984l.96-.558a1.7,1.7,0,0,0,.6-2.328L17.362,4.378a1.7,1.7,0,0,0-2.328-.6l-.93.534a.6.6,0,0,1-.888-.534V2.7a1.71,1.71,0,0,0-1.7-1.7H8.92a1.71,1.71,0,0,0-1.7,1.7v1.08a.6.6,0,0,1-.882.51l-.918-.54a1.7,1.7,0,0,0-2.328.6L1.774,6.622a1.7,1.7,0,0,0,.6,2.328l.96.558a.6.6,0,0,1,0,.984Zm.6-2.028-.942-.552a.51.51,0,0,1-.186-.69L4.108,4.978a.51.51,0,0,1,.708-.186l.936.54A1.8,1.8,0,0,0,8.416,3.784V2.7a.51.51,0,0,1,.5-.5h2.592a.51.51,0,0,1,.5.5V3.778A1.8,1.8,0,0,0,14.7,5.332l.912-.54a.51.51,0,0,1,.69.186l1.3,2.244a.51.51,0,0,1-.186.69l-.96.552a1.8,1.8,0,0,0,0,3.072l.96.552a.51.51,0,0,1,.186.69l-1.3,2.244a.51.51,0,0,1-.69.186l-.93-.54a1.8,1.8,0,0,0-1.8,0,1.764,1.764,0,0,0-.87,1.548V17.3a.51.51,0,0,1-.5.5H8.92a.51.51,0,0,1-.5-.5V16.222a1.8,1.8,0,0,0-1.8-1.8,1.746,1.746,0,0,0-.888.24l-.912.546a.51.51,0,0,1-.69-.186L2.812,12.778a.51.51,0,0,1,.2-.69l.96-.552a1.8,1.8,0,0,0,0-3.072Z" transform="translate(1657 45.924)"/></g></svg>