<svg xmlns="http://www.w3.org/2000/svg" width="284" height="283" viewBox="0 0 284 283">
    <defs>
        <style>
            .cls-2,.cls-3{fill:#fff}.cls-3,.cls-5,.cls-6{fill-rule:evenodd}.cls-5{fill:#49508f}.cls-6{fill:#375c95}
        </style>
    </defs>
    <g id="Groupe_3529" transform="translate(-773.5 -439)">
        <ellipse id="Ellipse_33" cx="142" cy="141.5" fill="#f5f5fb" opacity="0.663" rx="142" ry="141.5" transform="translate(773.5 439)"/>
        <g id="Groupe_3433" transform="translate(838 492.776)">
            <ellipse id="Ellipse_63" cx="62.323" cy="5.952" class="cls-2" rx="62.323" ry="5.952" transform="translate(15.831 161.611)"/>
            <path id="Tracé_3686" d="M2942.645 505.01a26.371 26.371 0 0 0-48.989 3.146 14.328 14.328 0 0 0-13.627 14.5c.007.748 78.149.514 78.149 0 .045-12.016-4.08-17.756-13.583-17.756a17.266 17.266 0 0 0-1.951.11z" class="cls-3" transform="translate(-2880.029 -489.059)"/>
            <path id="Tracé_3687" d="M3337.323 496.623a18.257 18.257 0 0 1 33.915 2.178 9.921 9.921 0 0 1 9.435 10.039c0 .518-54.1.356-54.1 0-.031-8.318 2.825-12.292 9.4-12.292a12.029 12.029 0 0 1 1.35.076z" class="cls-3" transform="translate(-3233.389 -486.117)"/>
            <g id="Groupe_3432" transform="translate(2.229 22.209)">
                <path id="Tracé_3688" fill="#9ac3ea" d="M3028.949 681.166c-5.772 13.166-25.563 16.221-37.551 3.8l-.007-.008a29.78 29.78 0 0 1-5.119-7.273l3.14 6.956c-.6.4-1.2.782-1.8 1.151-26.846 16.663-45.487 5.759-52.668-6.362-.006-.013-.014-.02-.019-.032a26.8 26.8 0 0 1-1.39-2.678l2.256 5.382c-1.323.641-2.62 1.2-3.889 1.679-27.447 10.462-43.662-13.68-33.378-26.673l1.17.939a13.551 13.551 0 0 1-.661-1.4 17.5 17.5 0 0 1-1.136-4.132c-2.051-13.509 9.785-31.692 28.663-33.636.086-.232.186-.466.285-.689a22.129 22.129 0 0 1 2.183-3.894c6.625-9.476 20.518-14.437 32.83-10.442a27.255 27.255 0 0 1 4.14 1.72c.008 0 .008.007.014.007l-.119.106-.185.171c.02-.013.047-.026.066-.039 18.123-12.749 47.695-13.958 58.115 14.99.357 1 .7 2.037 1.013 3.113l-6.513-.586a28.525 28.525 0 0 1 8.985 3.113c21.14 11.527 24.69 47.685 1.573 54.719z" transform="translate(-2894.431 -596.26)"/>
                <path id="Tracé_3689" d="M3333.617 934.745l3.553 7.871c-.68.45-1.361.885-2.034 1.3-2.073-4.719-6.389-16.042-4.953-25.259 1.159 9.1 7.721 21.557 9.226 24.317a33.628 33.628 0 0 1-5.792-8.229z" class="cls-2" transform="translate(-3238.251 -850.61)"/>
                <path id="Tracé_3690" d="M3065.242 929.4c-1.323.642-2.62 1.2-3.889 1.679-1.428-4.872-3.511-14.1-1.574-21.336a38.388 38.388 0 0 0 4.6 16.954 26.777 26.777 0 0 1-1.389-2.678z" class="cls-2" transform="translate(-3023.878 -843.553)"/>
                <path id="Tracé_3691" d="M3447 714.844s-11.677-7.717-21.377 5.507c4.351-12.4 13.323-12.378 17.839-11.472.358 1 .7 2.038 1.013 3.114l-6.513-.587a28.5 28.5 0 0 1 8.985 3.114z" class="cls-2" transform="translate(-3314.003 -684.33)"/>
                <path id="Tracé_3692" d="M2925.208 859.152c-7.868-3.432-13.324-1.633-16.736.864a17.46 17.46 0 0 1-1.136-4.131c4.099-2.176 10.347-3.154 17.872 3.267z" class="cls-2" transform="translate(-2903.866 -799.63)"/>
                <path id="Tracé_3693" d="M3059.917 693c-3.961-7.993-9.569-9.978-13.861-10.124a22.224 22.224 0 0 1 2.183-3.893c4.561.946 10.038 4.192 11.678 14.017z" class="cls-2" transform="translate(-3013.64 -660.947)"/>
                <path id="Tracé_3694" d="M3205.86 630.668a1.086 1.086 0 0 0-.107.112 1.3 1.3 0 0 0-.119.133c-2.95 3.267-6.287 9.58-1.309 19-4.655-4.688-5.977-9.06-5.786-12.715v-.046a15.275 15.275 0 0 1 3.18-8.206 27.1 27.1 0 0 1 4.141 1.718z" class="cls-2" transform="translate(-3134.291 -621.355)"/>
                <path id="Tracé_3695" d="M3389.943 789.015c-6.251 13.387-26.594 16.5-38.972 3.68a.982.982 0 1 1 1.412-1.364c11.472 11.883 30.423 9.083 35.947-3.514l.613-.545c8.852-2.695 13.6-9.865 14.835-18.186 1.886-12.669-4.269-28.013-16.593-34.732a.982.982 0 1 1 .941-1.724c13.043 7.112 19.591 23.337 17.595 36.745-1.33 8.93-6.409 16.609-15.778 19.641z" class="cls-5" transform="translate(-3254.711 -703.304)"/>
                <path id="Tracé_3696" d="M2927.834 926.074c-16.226 6.185-28.41-.062-33.092-8.8a15.822 15.822 0 0 1-1.614-11.466.982.982 0 1 0-1.9-.5 17.784 17.784 0 0 0 1.782 12.892c5.036 9.395 18.073 16.358 35.523 9.706a.982.982 0 1 0-.7-1.835z" class="cls-5" transform="translate(-2890.708 -839.468)"/>
                <path id="Tracé_3697" d="M2970.847 600.763c11.06-7.448 26-10.717 38.5-6.038 8.574 3.209 16.033 10.134 20.319 22.04a.982.982 0 0 1-1.848.666c-4.05-11.251-11.056-17.835-19.159-20.867-12.213-4.57-26.849-1.122-37.467 6.347l-.107.067.021-.014a.982.982 0 0 1-1.508-.625 26.022 26.022 0 0 0-3.189-1.262c-11.895-3.859-25.322.915-31.722 10.069a21.244 21.244 0 0 0-2.09 3.729c-.091.207-.183.422-.263.636a.98.98 0 0 1-.819.632c-18.273 1.882-29.778 19.438-27.793 32.513a.982.982 0 0 1-1.941.295c-2.1-13.8 9.8-32.375 28.944-34.7l.073-.167a23.245 23.245 0 0 1 2.28-4.067c6.85-9.8 21.208-14.944 33.935-10.815a28.08 28.08 0 0 1 3.838 1.554z" class="cls-6" transform="translate(-2899.28 -592.551)"/>
                <path id="Tracé_3698" fill="#fec62e" d="M3157.263 802.008a10.458 10.458 0 0 0 9.063-14.616q-2.9-6.652-6.06-13.183c-2.075-4.376-4.419-8.646-6.671-12.94-1.082-2.167-2.4-4.244-3.587-6.372-1.212-2.115-2.433-4.227-3.768-6.3a145.838 145.838 0 0 0-8.375-12.255 3.537 3.537 0 0 0-6.315 2.557 144.3 144.3 0 0 0 2.5 14.626c.471 2.421 1.069 4.773 1.674 7.151.619 2.356 1.118 4.758 1.845 7.069 1.3 4.412 2.531 8.854 3.98 13.214-5.964.191-11.923.469-17.876.91l-1.178.082a9.748 9.748 0 0 0-8.2 13.525c1.6 3.778 3.219 7.557 5 11.276s3.434 7.486 5.4 11.141q2.769 5.538 5.9 10.954c2.06 3.62 4.239 7.2 6.647 10.689a3.521 3.521 0 0 0 6.413-2.29c-.356-4.227-.934-8.374-1.638-12.483q-1.021-6.172-2.39-12.214c-.678-3.432-1.561-6.783-2.422-10.15l20.045-.4z" transform="translate(-3067.026 -705.253)"/>
                <path id="Tracé_3699" d="M3120.113 989.046c-1.974-3.666-3.632-7.432-5.417-11.168s-3.414-7.526-5.023-11.316a10.732 10.732 0 0 1 9.022-14.889h.013l1.172-.081c5.967-.442 11.94-.722 17.918-.912a.982.982 0 0 1 .063 1.963c-5.95.189-11.9.467-17.837.908h-.005l-1.164.08a8.768 8.768 0 0 0-7.375 12.163c1.6 3.764 3.206 7.53 4.987 11.237s3.42 7.457 5.381 11.1l.014.026c1.837 3.675 3.784 7.309 5.874 10.909 2.046 3.595 4.209 7.148 6.6 10.619a2.539 2.539 0 0 0 4.623-1.653c-.353-4.2-.928-8.318-1.628-12.405q-1.016-6.144-2.379-12.157v-.026c-.676-3.414-1.553-6.748-2.411-10.1a.982.982 0 0 1 1.9-.487c.865 3.379 1.75 6.743 2.432 10.188q1.372 6.068 2.4 12.253c.708 4.136 1.29 8.31 1.648 12.567a4.5 4.5 0 0 1-8.2 2.928c-2.425-3.514-4.618-7.115-6.688-10.753-2.1-3.623-4.066-7.288-5.92-11z" class="cls-6" transform="translate(-3063.3 -875.949)"/>
                <path id="Tracé_3700" d="M3221.875 799.266a11.442 11.442 0 0 0 9.914-15.988q-2.906-6.672-6.079-13.222c-2.076-4.378-4.426-8.661-6.685-12.966-1.08-2.162-2.4-4.254-3.6-6.4-1.224-2.138-2.455-4.266-3.8-6.347a146.7 146.7 0 0 0-8.425-12.323 4.519 4.519 0 0 0-8.068 3.265 145.39 145.39 0 0 0 2.522 14.728c.471 2.417 1.071 4.789 1.682 7.184.625 2.378 1.128 4.795 1.86 7.121a.982.982 0 0 0 1.874-.59c-.723-2.3-1.217-4.683-1.833-7.024-.6-2.351-1.192-4.686-1.66-7.088a143.637 143.637 0 0 1-2.493-14.549 2.555 2.555 0 0 1 4.564-1.844 145.02 145.02 0 0 1 8.317 12.171c1.334 2.067 2.546 4.166 3.749 6.265 1.179 2.106 2.485 4.169 3.561 6.322 2.255 4.3 4.593 8.559 6.663 12.922 2.117 4.351 4.121 8.734 6.047 13.155a9.479 9.479 0 0 1-8.211 13.243.982.982 0 1 0 .1 1.961z" class="cls-6" transform="translate(-3131.589 -701.53)"/>
            </g>
        </g>
    </g>
</svg>
