<svg xmlns="http://www.w3.org/2000/svg" width="98" height="98" viewBox="0 0 98 98"><defs><style>.a{fill:#eaf4fe;}.b{fill:#02044f;}.c{fill:#f3f5f9;}.d{fill:#e2dff4;}.e{fill:#99c2ec;}</style></defs><g transform="translate(-1206 -804)"><circle class="a" cx="49" cy="49" r="49" transform="translate(1206 804)"/><g transform="translate(1211.211 815.5)"><g transform="translate(0 38.28)"><path class="b" d="M2.291,249.316A2.289,2.289,0,0,1,0,247.025V205.791A2.29,2.29,0,0,1,2.291,203.5H29.933a2.29,2.29,0,0,1,2.291,2.291v6.872H48.412a2.29,2.29,0,0,1,2.291,2.291v27.49a2.29,2.29,0,0,1-2.291,2.291H6.872a2.294,2.294,0,0,0-2.291,2.291A2.289,2.289,0,0,1,2.291,249.316Z" transform="translate(0 -203.5)"/></g><path class="b" d="M189.061,212.663H172.872v-6.872a2.289,2.289,0,0,0-2.291-2.291H166v41.234h23.061a2.289,2.289,0,0,0,2.291-2.291v-27.49A2.289,2.289,0,0,0,189.061,212.663Z" transform="translate(-140.648 -165.22)"/><g transform="translate(9.163 47.444)"><path class="c" d="M80.77,268.082H62.291a2.291,2.291,0,0,1,0-4.582H80.77a2.291,2.291,0,0,1,0,4.582Z" transform="translate(-60 -263.5)"/></g><path class="d" d="M170.582,263.5H166v4.582h4.582a2.291,2.291,0,0,0,0-4.582Z" transform="translate(-140.648 -216.056)"/><g transform="translate(27.642 8.5)"><path class="e" d="M229.26,56.607a2.289,2.289,0,0,1-2.291-2.291,2.294,2.294,0,0,0-2.291-2.291H183.291A2.289,2.289,0,0,1,181,49.734V10.791A2.289,2.289,0,0,1,183.291,8.5H229.26a2.289,2.289,0,0,1,2.291,2.291V54.316A2.289,2.289,0,0,1,229.26,56.607Z" transform="translate(-181 -8.5)"/></g><path class="e" d="M369.908,8.5H347V52.025h18.326a2.294,2.294,0,0,1,2.291,2.291,2.291,2.291,0,0,0,4.582,0V10.791A2.289,2.289,0,0,0,369.908,8.5Z" transform="translate(-294.006)"/><g transform="translate(9.163 17.663)"><g transform="translate(36.958 0)"><path class="c" d="M315.745,75.372a6.965,6.965,0,0,1-3.436,5.956,2.31,2.31,0,0,0-1.145,1.97,2.291,2.291,0,0,1-4.582,0,6.947,6.947,0,0,1,2.291-5.086,4.178,4.178,0,0,1,1.145-.871,2.31,2.31,0,0,0,1.145-1.97,2.291,2.291,0,0,0-4.582,0,2.291,2.291,0,1,1-4.582,0,6.872,6.872,0,1,1,13.745,0Z" transform="translate(-302 -68.5)"/></g><g transform="translate(41.274 21.071)"><circle class="c" cx="2" cy="2" r="2" transform="translate(0.351 -0.234)"/></g><g transform="translate(0 48.107)"><path class="c" d="M90.086,388.082h-27.8a2.291,2.291,0,0,1,0-4.582h27.8a2.291,2.291,0,0,1,0,4.582Z" transform="translate(-60 -383.5)"/></g><g transform="translate(0 38.944)"><path class="c" d="M90.086,328.082h-27.8a2.291,2.291,0,0,1,0-4.582h27.8a2.291,2.291,0,1,1,0,4.582Z" transform="translate(-60 -323.5)"/></g></g><g transform="translate(25.352 17.663)"><path class="d" d="M349.291,205.791A2.291,2.291,0,0,0,347,203.5v4.582A2.291,2.291,0,0,0,349.291,205.791Z" transform="translate(-319.358 -182.883)"/><path class="d" d="M353.872,75.372a6.965,6.965,0,0,1-3.436,5.956,2.31,2.31,0,0,0-1.145,1.97A2.268,2.268,0,0,1,347,85.589V78.213a4.176,4.176,0,0,1,1.145-.871,2.31,2.31,0,0,0,1.145-1.97A2.268,2.268,0,0,0,347,73.082V68.5a6.863,6.863,0,0,1,6.872,6.872Z" transform="translate(-319.358 -68.5)"/><path class="d" d="M179.9,383.5H166v4.582h13.9a2.291,2.291,0,1,0,0-4.582Z" transform="translate(-166 -335.393)"/><path class="d" d="M179.9,323.5H166v4.582h13.9a2.291,2.291,0,1,0,0-4.582Z" transform="translate(-166 -284.556)"/></g></g></g></svg>