<svg xmlns="http://www.w3.org/2000/svg" width="78.5" height="73.44" viewBox="0 0 78.5 73.44"><defs><style>.a{fill:#f5f5fb;}.b{fill:#99c2ec;}.c{fill:#355b97;stroke:#375c95;}.d{fill:#fec62e;stroke:#fff;stroke-width:3px;}.e{fill:#fefeff;font-size:14px;font-family:Roboto-Regular, Roboto;letter-spacing:0.02em;}.f{stroke:none;}.g{fill:none;}</style></defs><g transform="translate(-1656.5 -775)"><g transform="translate(-90)"><path class="a" d="M-1339.548,1331.744v-52.556h57.222v41.754h-31.112" transform="translate(3092.652 -489.516)"/><g transform="translate(1747 787.869)"><g transform="translate(0)"><path class="b" d="M37.987,32.289a4.989,4.989,0,1,1,0-9.979,1.691,1.691,0,0,1,.189.009,5,5,0,0,1,4.785,4.657,2.059,2.059,0,0,1,.02.326A5,5,0,0,1,37.987,32.289Z" transform="translate(-6.551 -4.429)"/><path class="b" d="M37.987,32.289a4.989,4.989,0,1,1,0-9.979,1.691,1.691,0,0,1,.189.009,5,5,0,0,1,4.785,4.657,2.059,2.059,0,0,1,.02.326A5,5,0,0,1,37.987,32.289Z" transform="translate(-18.551 -4.429)"/><path class="b" d="M37.987,32.289a4.989,4.989,0,1,1,0-9.979,1.691,1.691,0,0,1,.189.009,5,5,0,0,1,4.785,4.657,2.059,2.059,0,0,1,.02.326A5,5,0,0,1,37.987,32.289Z" transform="translate(5.449 -4.429)"/><rect class="c" width="3.44" height="1.672" rx="0.836" transform="translate(43.213 47.303)"/><path class="c" d="M0,0V57.658A2.342,2.342,0,0,0,1.354,59.8a2.341,2.341,0,0,0,2.509-.3A48.751,48.751,0,0,1,34.824,48.906h5.851a.8.8,0,0,0,0-1.6H34.824a53.482,53.482,0,0,0-13.112,1.6A49,49,0,0,0,2.853,58.252a.761.761,0,0,1-1.25-.593V1.6h61.1V47.3H49.157a.8.8,0,0,0,0,1.6H64.311V0Z" transform="translate(0)"/></g></g></g><g class="d" transform="translate(1706 775)"><circle class="f" cx="14.5" cy="14.5" r="14.5"/><circle class="g" cx="14.5" cy="14.5" r="13"/></g><text class="e" transform="translate(1717 795)"><tspan x="0" y="0">0</tspan></text></g></svg>