<svg xmlns="http://www.w3.org/2000/svg" width="16.962" height="18" viewBox="0 0 16.962 18"><defs><style>.a{fill:#355b97;}</style></defs><g transform="translate(-227.538 -220.4) rotate(180)"><path class="a" d="M-239.184-236.881a.732.732,0,0,1-.684-.759.732.732,0,0,1,.684-.759h8.962a2.753,2.753,0,0,1,2.684,2.835v12.329a2.769,2.769,0,0,1-2.684,2.835h-8.962a.732.732,0,0,1-.684-.76.732.732,0,0,1,.684-.759h8.962a1.3,1.3,0,0,0,1.316-1.291v-12.329a1.319,1.319,0,0,0-1.316-1.291h-8.962Zm-2.684,6.734h7.7c.253,0,.456.354.456.759,0,.43-.2.759-.456.759h-7.7l2.785,2.785a.764.764,0,0,1,0,1.089.764.764,0,0,1-1.089,0l-4.1-4.1a.764.764,0,0,1,0-1.089l4.1-4.1a.764.764,0,0,1,1.089,0,.764.764,0,0,1,0,1.089Z" transform="translate(0 0)"/></g></svg>