<svg xmlns="http://www.w3.org/2000/svg" width="84.927" height="69.59" viewBox="0 0 84.927 69.59"><defs><style>.a{fill:#99c2ec;}</style></defs><g transform="translate(716 -797.39)"><path class="a" d="M43.583,961.39a23.745,23.745,0,0,0-23.229,18.874h-.228a20.127,20.127,0,0,0,0,40.253h7.387a1.811,1.811,0,1,0,0-3.622H20.126a16.5,16.5,0,0,1,0-33.009c.485,0,1,.026,1.567.08a1.813,1.813,0,0,0,1.965-1.559,20.123,20.123,0,0,1,40.06,2.741c0,.4-.074,1.434-.074,1.434a1.811,1.811,0,0,0,1.988,1.93c.482-.048.968-.073,1.444-.073a14.228,14.228,0,1,1,0,28.455H58.964a1.811,1.811,0,0,0,0,3.622h8.111a17.85,17.85,0,0,0,.262-35.7A23.786,23.786,0,0,0,43.583,961.39Zm0,8.512A15.276,15.276,0,0,0,28.5,983.067a1.811,1.811,0,1,0,3.589.49,11.641,11.641,0,0,1,11.491-10.032,1.811,1.811,0,1,0,0-3.623Zm-.345,31.529a2.983,2.983,0,0,0-1.993.761l-6.588,5.886a1.811,1.811,0,1,0,2.413,2.7l4.356-3.892v22.281a1.811,1.811,0,0,0,3.622,0v-22.282l4.357,3.892a1.811,1.811,0,1,0,2.413-2.7l-6.588-5.885a2.984,2.984,0,0,0-1.993-.761Z" transform="translate(-716 -164)"/></g></svg>