<svg xmlns="http://www.w3.org/2000/svg" width="949.953" height="688.949" viewBox="0 0 949.953 688.949"><defs><style>.a{fill:none;stroke:#02044f;}.b{fill:#02044f;}.c{fill:#99c2ec;}.d{fill:#355b97;}.e{fill:#fec62e;}</style></defs><g transform="translate(-774.5 -237.771)"><line class="a" x2="949.953" transform="translate(774.5 926.22)"/><g transform="translate(636.102 54.045)"><g transform="translate(508.165 366.383)"><path class="b" d="M1329.548,1240.779H1220.469a.219.219,0,1,1,0-.438h108.86v-41.929c0-7.541,2.983-14.223,8.865-19.862a112.5,112.5,0,0,1,22.563-16.219c9.107-5.134,19.174-10.345,29.921-15.489a241.056,241.056,0,0,0,31.64-18.281c20.979-13.986,35.75-30.41,43.906-48.817,8.159-18.429,12.3-39.117,12.3-61.488,0-26.116-4.609-48.576-13.7-66.756s-21.144-33.073-35.827-44.26a147.451,147.451,0,0,0-49.54-24.594,207.335,207.335,0,0,0-34.666-6.71c-5.835,2.482-13.06,3.845-21.476,4.051l-13.957,2.642V957.3a.219.219,0,0,1-.219.219H1279.5a.219.219,0,0,1-.219-.2l-5.07-67.667-2.031,67.657a.219.219,0,0,1-.219.213h-32.89a.22.22,0,0,1-.219-.226l1.816-61.564c-1.845,1.025-3.629,2.06-5.307,3.079-27.694,16.814-45.345,44.517-57.628,66.774a248.783,248.783,0,0,0-18.526,41.739l86.236,52.85c1.732-3.164,22.945-41.906,25.861-46.605A89.437,89.437,0,0,1,1282.59,999.1,63.153,63.153,0,0,1,1298.48,987.1c6.109-3.286,13.484-4.953,21.92-4.953a48.33,48.33,0,0,1,29.688,9.545c8.464,6.348,12.755,15.049,12.755,25.862,0,9.867-3.569,19.031-10.609,27.236a127.736,127.736,0,0,1-25.024,22.206,230.51,230.51,0,0,1-28.882,16.906c-9.763,4.764-17.011,8.446-22.159,11.255-12.612,6.547-22.773,13.872-30.206,21.774a99.871,99.871,0,0,0-8.837,10.766.219.219,0,0,1-.358-.252,100.293,100.293,0,0,1,8.877-10.814c7.467-7.938,17.668-15.292,30.319-21.86,5.149-2.811,12.4-6.5,22.172-11.262a230.1,230.1,0,0,0,28.827-16.874A127.278,127.278,0,0,0,1351.9,1044.5c6.97-8.124,10.5-17.191,10.5-26.951,0-10.668-4.232-19.251-12.58-25.511a47.9,47.9,0,0,0-29.426-9.457c-8.363,0-15.668,1.649-21.712,4.9a62.708,62.708,0,0,0-15.78,11.922,89,89,0,0,0-11.232,14.39c-3.018,4.865-25.73,46.368-25.96,46.787a.219.219,0,0,1-.136.106.214.214,0,0,1-.171-.025l-86.578-53.059a.22.22,0,0,1-.1-.251c.057-.185,5.786-18.744,18.613-41.985,8.4-15.218,16.12-26.988,24.3-37.039,10.35-12.721,21.3-22.5,33.487-29.9,1.785-1.084,3.688-2.185,5.659-3.274a.219.219,0,0,1,.325.2l-1.82,61.723h32.451l2.041-68a.219.219,0,0,1,.179-.209l.375-.071a.22.22,0,0,1,.259.2l5.1,68.078h29.213V882.446a.219.219,0,0,1,.179-.215l14.171-2.68c8.421-.209,15.609-1.568,21.4-4.042a.228.228,0,0,1,.109-.016,207.784,207.784,0,0,1,34.8,6.73,147.883,147.883,0,0,1,49.687,24.667c14.737,11.228,26.833,26.17,35.954,44.412s13.746,40.768,13.746,66.953c0,22.433-4.15,43.18-12.334,61.666s-23.015,34.971-44.062,49a241.535,241.535,0,0,1-31.7,18.313c-10.738,5.14-20.8,10.346-29.9,15.475a112.064,112.064,0,0,0-22.475,16.154c-5.793,5.553-8.73,12.129-8.73,19.546v42.148A.219.219,0,0,1,1329.548,1240.779Z" transform="translate(-1158.727 -875.492)"/></g><path class="c" d="M1545.189,952.007q-13.72-27.44-35.893-44.332a146.949,146.949,0,0,0-49.613-24.631c-.915-.26-1.829-.506-2.738-.753-.778-.208-1.557-.415-2.335-.61a.323.323,0,0,0-.065-.019c-.824-.208-1.648-.415-2.465-.616q-2.53-.613-5.06-1.168-2.209-.487-4.417-.915a1.655,1.655,0,0,0-.175-.033q-.759-.156-1.518-.292c-.629-.117-1.258-.233-1.894-.344-.688-.123-1.375-.24-2.069-.357-.837-.143-1.674-.273-2.51-.4-.675-.1-1.349-.2-2.024-.3-.454-.065-.915-.13-1.369-.188q-1.848-.253-3.7-.467c-.286-.039-.577-.071-.863-.1-.521-.062-1.036-.115-1.552-.165-7.713,3.295-18.488,4.923-33.442,3.653q-1.091.252-2.177.518v77.418h-29.635l-4.848-64.71c-.254.129-.506.263-.759.393l-1.931,64.317h-32.89l1.176-39.883c-13.954,14.135-24.788,31.071-34.165,48.057-12.961,23.489-18.592,41.945-18.592,41.945l65.214,39.966c7-12.727,16.854-30.593,18.787-33.706a88.425,88.425,0,0,1,11.261-14.427,62.672,62.672,0,0,1,15.828-11.962q9.147-4.914,21.816-4.924a52.107,52.107,0,0,1,14.219,1.888,51.164,51.164,0,0,1,14.323-1.888q16.892,0,29.561,9.5t12.669,25.689q0,14.78-10.561,27.1a126.9,126.9,0,0,1-24.981,22.166,229.347,229.347,0,0,1-28.854,16.885q-14.43,7.045-22.166,11.261-19,9.867-30.262,21.816a87.2,87.2,0,0,0-16.886,24.981,90.708,90.708,0,0,0-7.039,27.447q-1.421,14.43-1.408,29.2v42.153h80.536v-42.153q0-11.249,8.8-19.7a111.474,111.474,0,0,1,22.517-16.185q13.729-7.736,29.912-15.484a240.145,240.145,0,0,0,31.669-18.3q31.664-21.105,43.982-48.905,12.3-27.79,12.312-61.581Q1558.909,979.463,1545.189,952.007Z" transform="translate(-730.733 -509.719)"/><path class="d" d="M1707.376,369.447l5.79,11.846s-4.762,37.01,3.095,58.309h48.966l1.14-22.168-4.825-28.085,24.811-4.731s-2.139-42.045-37.123-43.336c0,0-2.241,7.607-9.116,7.445a6.043,6.043,0,0,1-6.33-5.619S1714.578,349.78,1707.376,369.447Z" transform="translate(-1054.343 -115.954)"/><path class="d" d="M1945.462,2667.615h0a26.306,26.306,0,0,0,26.158,23.517l183.9,0-.245-15.413-174.6-19.615" transform="translate(-1229.564 -1819.561)"/><path class="d" d="M2320.316,2509.294l-59.264-59.947a16.528,16.528,0,0,0-22.737-.737l-40.556,36.046s8.566,3.523,9.015,8.117l27.536,3.257,15.285-11.375,23.676,18.91Z" transform="translate(-1415.244 -1663.783)"/><rect class="b" width="28.543" height="115.417" transform="translate(681.096 756.155)"/><path class="c" d="M0,0H80.536V115.417H0Z" transform="translate(600.56 756.155)"/><path class="b" d="M1576.542,1282.14a39.027,39.027,0,0,0-7.492,3.036,62.668,62.668,0,0,0-15.828,11.962,88.439,88.439,0,0,0-11.261,14.427c-3.056,4.93-33.27,59.948-33.27,59.948l-21.24-13.15c7-12.728,24.034-43.685,25.967-46.8a88.439,88.439,0,0,1,11.261-14.427,62.675,62.675,0,0,1,15.828-11.962q9.146-4.914,21.816-4.923A52.106,52.106,0,0,1,1576.542,1282.14Z" transform="translate(-892.487 -806.995)"/><path class="b" d="M2740.084,2686.524l13.314-21.374,1.035,33.389-14-.6Z" transform="translate(-1814.371 -1826.219)"/><path class="b" d="M2042.933,2236.208c-.181.538-.059,1.064.274,1.177s.748-.234.929-.771.059-1.064-.273-1.176S2043.114,2235.671,2042.933,2236.208Z" transform="translate(-1301.237 -1509.954)"/><g transform="translate(725.505 720.041)"><path class="b" d="M1986.863,2224.347h-.024c-.132-.014-3.234-.374-4.487-2.444a4.339,4.339,0,0,1-.062-3.965,4.386,4.386,0,0,1,2.783-2.927c2.181-.6,4.435,1.129,4.531,1.2a.219.219,0,1,1-.269.345c-.022-.017-2.179-1.669-4.147-1.126a3.981,3.981,0,0,0-2.489,2.664,3.929,3.929,0,0,0,.029,3.576c1.138,1.885,4.13,2.234,4.16,2.238a.219.219,0,0,1-.023.437Z" transform="translate(-1981.847 -2214.883)"/></g><g transform="translate(741.056 722.956)"><path class="b" d="M2044.089,2227.649a.219.219,0,0,1-.2-.12,2.322,2.322,0,0,0-2.869-1.031.219.219,0,0,1-.125-.42,2.789,2.789,0,0,1,3.386,1.256.219.219,0,0,1-.1.293A.212.212,0,0,1,2044.089,2227.649Z" transform="translate(-2040.743 -2225.922)"/></g><g transform="translate(726.904 721.718)"><path class="b" d="M1987.365,2223.887a.22.22,0,0,1-.2-.315,3.834,3.834,0,0,1,2.326-2.244,3.118,3.118,0,0,1,2.374.395.219.219,0,0,1-.244.364,2.716,2.716,0,0,0-2.021-.334,3.433,3.433,0,0,0-2.04,2.012A.219.219,0,0,1,1987.365,2223.887Z" transform="translate(-1987.146 -2221.235)"/></g><g transform="translate(728.229 722.223)"><path class="b" d="M1993.893,2227.551h-.019a.218.218,0,0,1-.2-.236,4.939,4.939,0,0,0-1.441-3.782.219.219,0,1,1,.294-.325,5.3,5.3,0,0,1,1.583,4.145A.219.219,0,0,1,1993.893,2227.551Z" transform="translate(-1992.162 -2223.15)"/></g><g transform="translate(737.612 735.62)"><path class="b" d="M2029.763,2276.624a.219.219,0,0,1-.146-.056,9.269,9.269,0,0,1-1.888-2.353.219.219,0,1,1,.382-.216,8.817,8.817,0,0,0,1.8,2.242.219.219,0,0,1-.146.382Z" transform="translate(-2027.701 -2273.888)"/></g><path class="b" d="M2003.432,2156.152a5.354,5.354,0,0,0-3.271-6.59,5.184,5.184,0,0,0-1.761-.266,12.211,12.211,0,0,0-6.4-5.523,17.359,17.359,0,0,0-10.19-1.053,10.724,10.724,0,0,0-8.255,7.355l-3.9,17.5,3.514-1.95s.364-2.711,2.561-3.6a4.324,4.324,0,0,1,4.768,1.009l2.787-5.883S2000.147,2169.12,2003.432,2156.152Z" transform="translate(-1247.365 -1441.492)"/><g transform="translate(729.236 719.152)"><path class="b" d="M2001.342,2234.279a9.806,9.806,0,0,1-3.13-.522l-2.084-.7a.219.219,0,0,1,.14-.415l2.084.7a8.907,8.907,0,0,0,7.083-.516,9.548,9.548,0,0,0,4.661-6.118.218.218,0,0,1,.184-.159l3.263-.413-1.988-3.455a.22.22,0,0,1-.011-.2l4.7-10.835a.219.219,0,0,1,.4.175l-4.659,10.734,2.1,3.645a.22.22,0,0,1-.163.327l-3.446.436a10.073,10.073,0,0,1-4.838,6.248A9.137,9.137,0,0,1,2001.342,2234.279Z" transform="translate(-1995.978 -2211.518)"/></g><path class="b" d="M2217.19,2512.46l27.428-47.094,2.639,1.538-28.423,48.8,0,.026-56.11-6.638.359-3.033Z" transform="translate(-1389.458 -1679.187)"/><path class="b" d="M1509.195,2352.105v114.536h-108.2V2352.105h108.2m.438-.438H1400.554v115.412h109.079V2351.667Z" transform="translate(-828.536 -1595.509)"/><g transform="translate(732.914 741.43)"><path class="b" d="M2043.172,2361.875a.219.219,0,0,1-.212-.165c-11.881-46.416-32.75-61.742-32.96-61.891a.219.219,0,0,1-.088-.217l.624-3.531a.219.219,0,1,1,.431.076l-.6,3.4c1.677,1.281,21.549,17.252,33.018,62.056a.219.219,0,0,1-.158.266A.212.212,0,0,1,2043.172,2361.875Z" transform="translate(-2009.908 -2295.89)"/></g><g transform="translate(708.774 725.868)"><path class="b" d="M1925.606,2359.358a.215.215,0,0,1-.116-.033.219.219,0,0,1-.1-.155c-.069-.492-6.907-49.488-6.907-74.769,0-10.688,2.66-17.7,4.891-21.7a20.784,20.784,0,0,1,4.854-6.159l3.55-19.41a.222.222,0,0,1,.255-.177.22.22,0,0,1,.176.255l-3.566,19.494a.222.222,0,0,1-.086.137,20.217,20.217,0,0,0-4.816,6.1c-2.2,3.952-4.82,10.882-4.82,21.459,0,24.3,6.326,70.551,6.866,74.449l56.756-18.557a.219.219,0,1,1,.136.417l-57.005,18.638A.2.2,0,0,1,1925.606,2359.358Z" transform="translate(-1918.483 -2236.952)"/></g><g transform="translate(715.679 829.197)"><path class="b" d="M1971.009,2670.88a26.477,26.477,0,0,1-26.376-23.713.219.219,0,0,1,.195-.241.225.225,0,0,1,.241.195,26.039,26.039,0,0,0,25.941,23.321l183.683,0v-23.1l-152.863-18.615a.219.219,0,0,1,.053-.435l153.055,18.638a.218.218,0,0,1,.193.217v23.515a.219.219,0,0,1-.219.22Z" transform="translate(-1944.631 -2628.286)"/></g><g transform="translate(782.296 780.432)"><path class="b" d="M2319.7,2508.9a.219.219,0,0,1-.156-.064l-59.264-59.947a16.3,16.3,0,0,0-22.435-.728l-40.555,36.046a.22.22,0,0,1-.292-.328l40.557-36.046a16.743,16.743,0,0,1,23.038.747l59.264,59.947a.219.219,0,0,1,0,.31A.216.216,0,0,1,2319.7,2508.9Z" transform="translate(-2196.928 -2443.602)"/></g><g transform="translate(815.989 820.653)"><path class="b" d="M2366.572,2615.277a.223.223,0,0,1-.137-.048l-23.544-18.8-18.006,13.4a.219.219,0,0,1-.262-.352l18.142-13.5a.219.219,0,0,1,.268,0l23.677,18.909a.219.219,0,0,1-.137.39Z" transform="translate(-2324.534 -2595.929)"/></g><g transform="translate(834.132 814.225)"><path class="b" d="M2393.462,2578.449a.219.219,0,0,1-.219-.219V2571.8a.219.219,0,1,1,.438,0v6.429A.219.219,0,0,1,2393.462,2578.449Z" transform="translate(-2393.243 -2571.582)"/></g><g transform="translate(719.31 755.936)"><path class="b" d="M2012.7,2421.983h-.022c-13.622-1.373-24.948-5.96-33.663-13.634a57.178,57.178,0,0,1-15.822-24.117,88.549,88.549,0,0,1-4.675-33.2.224.224,0,0,1,.237-.2.22.22,0,0,1,.2.238,88.084,88.084,0,0,0,4.656,33.029,56.741,56.741,0,0,0,15.7,23.929c8.611,7.58,19.8,12.123,33.255,13.505l5.77-12.637c-14.111-4.365-22.382-14.4-26.842-22.073a57.825,57.825,0,0,1-6.381-15.866.219.219,0,0,1,.43-.085,57.4,57.4,0,0,0,6.338,15.744c4.445,7.643,12.708,17.653,26.823,21.935a.218.218,0,0,1,.136.119.22.22,0,0,1,0,.181l-5.939,13.008A.22.22,0,0,1,2012.7,2421.983Z" transform="translate(-1958.386 -2350.829)"/></g><g transform="translate(777.001 818.773)"><path class="b" d="M2191.405,2599.242a.218.218,0,0,1-.2-.122l-.831-1.681a10.878,10.878,0,0,0-5.9-5.364l-7.465-2.846a.219.219,0,0,1,.156-.409l7.465,2.846a11.313,11.313,0,0,1,6.133,5.578l.831,1.682a.219.219,0,0,1-.1.293A.217.217,0,0,1,2191.405,2599.242Z" transform="translate(-2176.876 -2588.805)"/></g><g transform="translate(718.499 744.962)"><path class="b" d="M1955.533,2310.1a.219.219,0,0,1-.006-.438l14.415-.4a.227.227,0,0,1,.225.213.219.219,0,0,1-.213.225l-14.415.4Z" transform="translate(-1955.314 -2309.266)"/></g><path class="b" d="M1461.163,1183.388l-16.722,18.828,32.312-8.474-3.379-9.844Z" transform="translate(-860.835 -735.708)"/><path class="b" d="M1612.355,1186.88l-16.722,18.828,32.312-8.474-3.553-10.354Z" transform="translate(-972.105 -738.277)"/><g transform="translate(673.146 195.325)"><path class="b" d="M1795.225,253.565h-2.2a9.487,9.487,0,0,1-9.476-9.476V227.874a.219.219,0,0,1,.438,0v16.215a9.048,9.048,0,0,0,9.037,9.038h2.2a.219.219,0,0,1,0,.438Z" transform="translate(-1783.55 -227.655)"/></g><g transform="translate(679.221 208.48)"><path class="b" d="M1813.4,301.987a6.941,6.941,0,0,1-6.84-5.8l0-6.734a.219.219,0,0,1,.438,0v6.7a6.486,6.486,0,0,0,10.173,4.179.207.207,0,0,1,.044-.024c2.171-.9,4.459-5.562,4.7-6.06l.092-16.549a.223.223,0,0,1,.22-.218.218.218,0,0,1,.218.22l-.092,16.6a.222.222,0,0,1-.021.092c-.1.216-2.494,5.277-4.925,6.312A6.891,6.891,0,0,1,1813.4,301.987Z" transform="translate(-1806.558 -277.477)"/></g><g transform="translate(694.667 202.089)"><path class="b" d="M1866.858,262.032a8.287,8.287,0,0,1-1.633-.157.219.219,0,0,1,.094-.428c.029.007,2.976.63,4.656-.793a3.93,3.93,0,0,0,1.169-3.38,3.634,3.634,0,0,0-1.443-3.158c-1.642-.991-4.153.156-4.178.167a.219.219,0,0,1-.185-.4c.112-.051,2.751-1.255,4.589-.145,1.012.61,1.568,1.792,1.654,3.511a4.339,4.339,0,0,1-1.324,3.738A5.27,5.27,0,0,1,1866.858,262.032Z" transform="translate(-1865.053 -253.271)"/></g><g transform="translate(677.876 202.38)"><path class="b" d="M1803.933,263.354a.221.221,0,0,1-.132-.044l-1.69-1.27a1.623,1.623,0,0,1-.231-2.384l1.3-1.445-.165-3.607a.219.219,0,1,1,.438-.02l.17,3.7a.217.217,0,0,1-.056.157l-1.362,1.512a1.185,1.185,0,0,0,.169,1.741l1.69,1.27a.219.219,0,0,1-.132.395Z" transform="translate(-1801.464 -254.374)"/></g><g transform="translate(683.915 199.406)"><path class="b" d="M1824.553,244.495a.219.219,0,0,1-.177-.348,2.789,2.789,0,0,1,3.546-.684.219.219,0,1,1-.192.394,2.308,2.308,0,0,0-3,.547A.22.22,0,0,1,1824.553,244.495Z" transform="translate(-1824.334 -243.108)"/></g><g transform="translate(675.546 199.698)"><path class="b" d="M1792.857,245.309a.219.219,0,0,1-.155-.374,2.789,2.789,0,0,1,3.609-.11.219.219,0,0,1-.253.358,2.323,2.323,0,0,0-3.048.062A.219.219,0,0,1,1792.857,245.309Z" transform="translate(-1792.638 -244.215)"/></g><g transform="translate(695.936 203.33)"><path class="b" d="M1873.668,261.557a.219.219,0,0,1-.217-.191,3.43,3.43,0,0,0-1.292-2.558,2.722,2.722,0,0,0-2.021-.328.219.219,0,0,1-.116-.423,3.123,3.123,0,0,1,2.376.383,3.835,3.835,0,0,1,1.488,2.869.22.22,0,0,1-.189.246Z" transform="translate(-1869.861 -257.972)"/></g><g transform="translate(696.117 204.436)"><path class="b" d="M1870.765,265.871a.208.208,0,0,1-.052-.006.219.219,0,0,1-.161-.265,5.3,5.3,0,0,1,2.822-3.423.219.219,0,0,1,.175.4,4.939,4.939,0,0,0-2.572,3.125A.219.219,0,0,1,1870.765,265.871Z" transform="translate(-1870.546 -262.159)"/></g><path class="b" d="M1814.65,199.765l.288,4.1a6.5,6.5,0,0,1,3.013-1.068s.69-6.552.6-9.064c-.149-4.011-.76-8.143-13.623-9.058-10.369-.738-8.79,10.807-6.528,12.366,1.4.963,3.008.856,6.258-.021,1.481-.4,2.819-1.125,4.211-1.482A4.7,4.7,0,0,1,1814.65,199.765Z" transform="translate(-1120.104 -0.675)"/><g transform="translate(671.892 183.726)"><path class="b" d="M1801.744,203.412a.223.223,0,0,1-.094-.021.219.219,0,0,1-.124-.182l-.288-4.1a4.553,4.553,0,0,0-1.9-3.344,4.347,4.347,0,0,0-3.609-.685,17.261,17.261,0,0,0-2.063.724,19.7,19.7,0,0,1-2.145.758c-3,.81-9.385,1.215-11.4-.863-.97-1-2.025-4.261-.675-7.2,1.112-2.422,4.15-5.206,12.3-4.713,13.516.816,13.69,5.5,13.829,9.269.093,2.5-.57,8.827-.6,9.1a.219.219,0,0,1-.207.2,6.328,6.328,0,0,0-2.9,1.029A.218.218,0,0,1,1801.744,203.412Zm-4.95-8.908a4.817,4.817,0,0,1,2.8.9,4.991,4.991,0,0,1,2.085,3.666v0l.262,3.738a6.609,6.609,0,0,1,2.621-.893c.11-1.077.66-6.616.577-8.851-.169-4.564-1.264-8.114-13.417-8.848-7.9-.478-10.821,2.161-11.876,4.458a6.9,6.9,0,0,0,.591,6.713c1.738,1.792,7.659,1.638,10.972.745a19.346,19.346,0,0,0,2.1-.742,17.823,17.823,0,0,1,2.117-.741A4.731,4.731,0,0,1,1796.793,194.5Z" transform="translate(-1778.802 -183.726)"/></g><g transform="translate(588.291 334.44)"><path class="b" d="M1495.291,868.488H1462.4a.22.22,0,0,1-.219-.226l3.042-103.156a10.856,10.856,0,0,1,10.9-10.587h28.59a.219.219,0,0,1,0,.438h-28.59a10.419,10.419,0,0,0-10.465,10.161l-3.035,102.931h32.451l2.15-71.619a.219.219,0,0,1,.438.013l-2.156,71.832A.22.22,0,0,1,1495.291,868.488Z" transform="translate(-1462.182 -754.519)"/></g><g transform="translate(621.055 256.745)"><path class="b" d="M1623.787,651.932h-29.635a.22.22,0,0,1-.219-.2L1586.3,549.862a11.072,11.072,0,0,1,11.04-11.9h34.828a.219.219,0,0,1,0,.438h-34.828a10.633,10.633,0,0,0-10.6,11.427l7.617,101.665h29.213V573.576a.219.219,0,0,1,.241-.218c23.031,2.326,38.954-1.743,47.336-12.092,10.569-13.048,5.349-31.984,4.789-33.876h-58.763a.219.219,0,0,1-.218-.235c3.526-48.251,8.672-66.549,8.724-66.728a.219.219,0,0,1,.421.121c-.052.178-5.17,18.388-8.691,66.4h58.69a.219.219,0,0,1,.209.152c.065.2,6.407,20.578-4.819,34.438-6.943,8.571-18.963,12.888-35.81,12.889q-5.495,0-11.67-.613v77.894A.219.219,0,0,1,1623.787,651.932Z" transform="translate(-1586.269 -460.268)"/></g><path class="b" d="M1969.686,949.175q-13.72-27.44-35.893-44.332a146.949,146.949,0,0,0-49.612-24.631,199.066,199.066,0,0,0-54.186-7.739q-3.617,0-7.177.123-.931.463-1.93.889a206.256,206.256,0,0,1,34.751,6.727,146.952,146.952,0,0,1,49.613,24.631q22.166,16.892,35.892,44.332t13.72,66.855q0,33.785-12.312,61.581t-43.982,48.905a240.152,240.152,0,0,1-31.669,18.3q-16.2,7.756-29.912,15.484a111.448,111.448,0,0,0-22.516,16.185q-8.806,8.446-8.8,19.7v42.152h28.543v-42.152q0-11.249,8.8-19.7a111.45,111.45,0,0,1,22.516-16.185q13.73-7.736,29.912-15.484a240.163,240.163,0,0,0,31.67-18.3q31.663-21.106,43.982-48.905,12.3-27.79,12.312-61.581Q1983.406,976.632,1969.686,949.175Z" transform="translate(-1126.687 -506.888)"/><g transform="translate(694.667 225.109)"><path class="b" d="M1919.486,487.6a.22.22,0,0,1-.212-.163l-.532-2.022a12.964,12.964,0,0,0-5.252-7.423l-3.332-2.264a.22.22,0,0,1-.092-.14c-3.328-17.325-4.152-35.6-4.949-53.267-1.918-42.528-3.574-79.256-39.857-81.434a.219.219,0,0,1-.205-.232.215.215,0,0,1,.232-.206c36.677,2.2,38.341,39.113,40.269,81.852.795,17.625,1.617,35.848,4.925,53.115l3.257,2.213a13.4,13.4,0,0,1,5.429,7.674l.532,2.022a.219.219,0,0,1-.156.268A.224.224,0,0,1,1919.486,487.6Z" transform="translate(-1865.054 -340.452)"/></g><g transform="translate(683.915 202.682)"><path class="b" d="M1826.326,256.894a2.951,2.951,0,0,1-1.939-1.014.219.219,0,0,1,.333-.285,2.482,2.482,0,0,0,1.673.859,1.677,1.677,0,0,0,1.253-.842.219.219,0,0,1,.36.25,2.086,2.086,0,0,1-1.593,1.029Z" transform="translate(-1824.334 -255.518)"/></g><g transform="translate(674.801 202.682)"><path class="b" d="M1791.812,256.894a2.95,2.95,0,0,1-1.939-1.014.219.219,0,0,1,.332-.285,2.506,2.506,0,0,0,1.673.859,1.678,1.678,0,0,0,1.254-.842.219.219,0,0,1,.36.25,2.087,2.087,0,0,1-1.593,1.029Z" transform="translate(-1789.82 -255.518)"/></g><g transform="translate(679.471 213.138)"><path class="b" d="M1809.746,298.206a6.94,6.94,0,0,1-2.1-.328.219.219,0,0,1,.149-.412c.173.062,4.264,1.487,5.8-2.216a.219.219,0,0,1,.405.168A4.312,4.312,0,0,1,1809.746,298.206Z" transform="translate(-1807.505 -295.116)"/></g><g transform="translate(588.685 197.298)"><path class="e" d="M0,0H56.9a7.176,7.176,0,0,1,7.176,7.176v0A7.176,7.176,0,0,1,56.9,14.352H0a0,0,0,0,1,0,0V0A0,0,0,0,1,0,0Z" transform="translate(9.153 3.795)"/><g transform="translate(8.934)"><path class="b" d="M1556.475,253.491h-58.746a.219.219,0,0,1-.219-.219V235.344a.219.219,0,0,1,.219-.219h58.746a5.558,5.558,0,0,1,5.552,5.552v7.263A5.558,5.558,0,0,1,1556.475,253.491Zm-58.527-.438h58.527a5.119,5.119,0,0,0,5.114-5.113v-7.263a5.119,5.119,0,0,0-5.114-5.113h-58.527Z" transform="translate(-1497.51 -235.125)"/></g><path class="b" d="M1741.3,241.457h-6.65a5.311,5.311,0,0,1,1.682,3.88V252.6a5.309,5.309,0,0,1-1.274,3.454h6.242a5.534,5.534,0,0,0,5.534-5.534v-3.529A5.534,5.534,0,0,0,1741.3,241.457Z" transform="translate(-1663.102 -239.785)"/><circle class="b" cx="9.153" cy="9.153" r="9.153" transform="translate(25.444 0.03)"/><circle class="b" cx="9.153" cy="9.153" r="9.153" transform="translate(0 0.03)"/></g><g transform="translate(609.786 215.226)"><path class="b" d="M1572.314,362.869a22.114,22.114,0,0,1-12.774-3.763c-9.918-6.776-13.659-21.62-15.051-32.881a127.747,127.747,0,0,1-.657-23,.219.219,0,1,1,.437.035c-.034.425-3.226,42.68,15.52,55.485,7.913,5.406,18.674,4.863,31.986-1.615a.219.219,0,0,1,.192.394C1584.644,361.086,1578.077,362.869,1572.314,362.869Z" transform="translate(-1543.591 -303.022)"/></g><g transform="translate(626.406 215.226)"><path class="b" d="M1622.558,336.993a10.751,10.751,0,0,1-2.856-.4,12.112,12.112,0,0,1-8.667-9.352l-4.5-23.963a.219.219,0,0,1,.175-.256.222.222,0,0,1,.255.175l4.5,23.965a11.666,11.666,0,0,0,8.352,9.008,8.86,8.86,0,0,0,9.441-2.672c8.826-10.291,16.586-14.846,21.542-16.855,5.393-2.186,8.65-1.929,8.787-1.916a.219.219,0,0,1-.039.436c-.13-.013-13.214-.9-29.957,18.62A9.125,9.125,0,0,1,1622.558,336.993Z" transform="translate(-1606.536 -303.023)"/></g><g transform="translate(649.078 245.63)"><path class="b" d="M1702.143,438.1a.219.219,0,0,1-.2-.123l-9.525-19.49a.219.219,0,1,1,.394-.193l9.525,19.49a.219.219,0,0,1-.2.315Z" transform="translate(-1692.399 -418.17)"/></g><g transform="translate(609.782 191.91)"><path class="b" d="M1543.8,220.546a.219.219,0,0,1-.183-.339c.143-.218,3.553-5.34,8.471-5.484,2.981-.082,5.844,1.691,8.513,5.285a.219.219,0,0,1-.352.261c-2.578-3.472-5.331-5.2-8.148-5.108-4.692.138-8.083,5.235-8.117,5.286A.219.219,0,0,1,1543.8,220.546Z" transform="translate(-1543.576 -214.72)"/></g><g transform="translate(651.738 323.429)"><path class="b" d="M1702.691,723.933a.219.219,0,0,1-.219-.219v-10.68a.219.219,0,1,1,.438,0v10.68A.219.219,0,0,1,1702.691,723.933Z" transform="translate(-1702.472 -712.815)"/></g><g transform="translate(706.144 267.064)"><path class="b" d="M1941.469,602.644a.218.218,0,0,1-.138-.049l-3.4-2.761a6.545,6.545,0,0,0-7.389-.571l-3.263,1.9a2.789,2.789,0,0,1-2.856-4.791l4.715-2.873a33.9,33.9,0,0,1,1.494-3.861c-14.763-31.251-22.038-89.462-22.11-90.047a.219.219,0,0,1,.435-.054c.072.585,7.353,58.841,22.116,90.006a.219.219,0,0,1,0,.189,32.867,32.867,0,0,0-1.54,3.976.222.222,0,0,1-.1.122l-4.786,2.916a2.351,2.351,0,0,0-.2,3.881,2.343,2.343,0,0,0,2.6.157l3.263-1.9a6.986,6.986,0,0,1,7.885.609l3.4,2.761a.219.219,0,0,1-.138.389Z" transform="translate(-1908.523 -499.347)"/></g><g transform="translate(706.978 268.444)"><path class="b" d="M1911.9,509.744a.219.219,0,0,1-.041-.434l24.811-4.731a.219.219,0,1,1,.082.431l-24.811,4.731A.238.238,0,0,1,1911.9,509.744Z" transform="translate(-1911.682 -504.575)"/></g><g transform="translate(710.664 301.26)"><path class="b" d="M1925.858,651.465h-.011a.219.219,0,0,1-.208-.23l1.141-22.168a.208.208,0,0,1,.23-.208.219.219,0,0,1,.208.231l-1.14,22.168A.22.22,0,0,1,1925.858,651.465Z" transform="translate(-1925.639 -628.858)"/></g><g transform="translate(357.483 706.771)"><path class="b" d="M588.273,2298.1a.211.211,0,0,1-.088-.019.219.219,0,0,1-.112-.289l58.663-133.034a.219.219,0,0,1,.4.177L588.473,2297.97A.22.22,0,0,1,588.273,2298.1Z" transform="translate(-588.054 -2164.629)"/></g><g transform="translate(449.167 561.562)"><path class="b" d="M935.505,1685.447a.212.212,0,0,1-.088-.019.219.219,0,0,1-.112-.289l31.009-70.322a.219.219,0,0,1,.4.177l-31.009,70.323A.219.219,0,0,1,935.505,1685.447Z" transform="translate(-935.286 -1614.687)"/></g><g transform="translate(485.036 499.413)"><path class="b" d="M1071.35,1429a.223.223,0,0,1-.1-.024.219.219,0,0,1-.094-.3l25.288-49.249a.219.219,0,0,1,.39.2l-25.288,49.249A.22.22,0,0,1,1071.35,1429Z" transform="translate(-1071.131 -1379.31)"/></g><g transform="translate(407.557 527.141)"><path class="b" d="M777.918,1820.418a.219.219,0,0,1-.2-.308l148.012-335.656a.219.219,0,1,1,.4.177L778.119,1820.288A.22.22,0,0,1,777.918,1820.418Z" transform="translate(-777.699 -1484.324)"/></g><g transform="translate(500.718 517.136)"><path class="b" d="M1178.18,1473.688a.217.217,0,0,1-.108-.028l-47.437-26.815a.219.219,0,0,1,.216-.382l47.437,26.815a.219.219,0,0,1-.108.41Z" transform="translate(-1130.523 -1446.434)"/></g><g transform="translate(504.653 560.994)"><path class="b" d="M1173.382,1629.97a.222.222,0,0,1-.114-.032l-27.737-17a.219.219,0,0,1,.229-.374l27.737,17a.219.219,0,0,1-.115.406Z" transform="translate(-1145.426 -1612.533)"/></g><g transform="translate(470.314 583.928)"><path class="b" d="M1063,1728.879a.22.22,0,0,1-.114-.032l-47.4-29.051a.219.219,0,0,1,.229-.374l47.4,29.051a.219.219,0,0,1-.115.406Z" transform="translate(-1015.375 -1699.389)"/></g><g transform="translate(454.705 619.326)"><path class="b" d="M1003.881,1862.941a.218.218,0,0,1-.114-.033l-47.4-29.051a.219.219,0,0,1,.229-.374l47.4,29.051a.219.219,0,0,1-.115.406Z" transform="translate(-956.259 -1833.451)"/></g><g transform="translate(459.71 665.439)"><path class="b" d="M1002.62,2025.193a.219.219,0,0,1-.114-.032L975.318,2008.5a.219.219,0,1,1,.229-.373l27.188,16.662a.219.219,0,0,1-.115.406Z" transform="translate(-975.213 -2008.093)"/></g><g transform="translate(458.37 707.569)"><path class="b" d="M983.626,2176.344a.221.221,0,0,1-.116-.033l-13.268-8.256a.219.219,0,0,1,.232-.372l13.269,8.256a.219.219,0,0,1-.116.405Z" transform="translate(-970.139 -2167.649)"/></g><g transform="translate(447.32 741.011)"><path class="b" d="M939.507,2301.479a.22.22,0,0,1-.114-.032l-11-6.739a.219.219,0,0,1,.229-.374l11,6.739a.219.219,0,0,1-.115.406Z" transform="translate(-928.291 -2294.302)"/></g><g transform="translate(410.891 718.685)"><path class="b" d="M796.632,2213.918a.217.217,0,0,1-.114-.032l-6.086-3.73a.219.219,0,0,1,.229-.374l6.087,3.731a.219.219,0,0,1-.115.406Z" transform="translate(-790.326 -2209.749)"/></g><g transform="translate(397.452 750.61)"><path class="b" d="M787.071,2359.555a.213.213,0,0,1-.112-.031l-47.425-28.46a.219.219,0,0,1,.226-.376l47.425,28.461a.219.219,0,0,1-.113.407Z" transform="translate(-739.427 -2330.656)"/></g><g transform="translate(383.845 779.07)"><path class="b" d="M736.058,2467.656a.216.216,0,0,1-.113-.031L688,2438.852a.219.219,0,0,1,.226-.376l47.944,28.773a.219.219,0,0,1-.113.407Z" transform="translate(-687.894 -2438.444)"/></g><g transform="translate(369.768 811.944)"><path class="b" d="M682.414,2591.957a.218.218,0,0,1-.113-.032l-47.613-28.574a.219.219,0,0,1,.226-.376l47.613,28.575a.22.22,0,0,1-.113.407Z" transform="translate(-634.581 -2562.943)"/></g><path class="b" d="M995.387,1574.146a11.479,11.479,0,0,0,11.764-4.8l44.591-92.007-5.251-2.759Z" transform="translate(-530.351 -950.01)"/><path class="b" d="M1129.922,1242.974l4.712-9.665a37.954,37.954,0,1,0-13.639-6.648l-4.711,9.665Zm-12.853-59.605a30.085,30.085,0,1,1,13.86,40.225A30.085,30.085,0,0,1,1117.069,1183.368Z" transform="translate(-611.867 -717.455)"/><g transform="translate(496.55 573.789)"><path class="d" d="M1279.09,2039.333c31.318,27.28,11.822,174.009,11.822,174.009h-20.933l-3.554-136.461-19.267,136.461-16.2-.388c-.782-98.26,25.388-173.621,25.388-173.621Z" transform="translate(-1200.26 -1939.435)"/><g transform="translate(75.046 27.03)"><path class="b" d="M1405.809,1780.646a.219.219,0,0,1-.087-.42c.229-.1,5.578-2.513,3.371-9.869-2.213-7.379-9.817-6.532-9.892-6.523a.219.219,0,0,1-.054-.435c.08-.01,8.047-.9,10.366,6.831s-3.558,10.372-3.617,10.4A.219.219,0,0,1,1405.809,1780.646Z" transform="translate(-1398.955 -1763.363)"/></g><g transform="translate(58.111 34.398)"><path class="b" d="M1340.626,1803.576a5.813,5.813,0,0,1-5.807-5.806v-6.284a.219.219,0,0,1,.438,0v6.284a5.368,5.368,0,0,0,10.736,0v-6.284a.219.219,0,1,1,.438,0v6.284A5.813,5.813,0,0,1,1340.626,1803.576Z" transform="translate(-1334.819 -1791.266)"/></g><path class="b" d="M1382.618,1757.61s12.6,3.023,9.159,16.9c0,0-11.833-2.1-13.808-1.509v-6.284s2.114-.409,3.755-3.847C1382.42,1761.409,1382.618,1757.61,1382.618,1757.61Z" transform="translate(-1308.464 -1732.099)"/><path class="b" d="M1292.338,1757.61s-12.316,4.707-8.873,18.583c0,0,11.546-3.786,13.521-3.193v-6.284s-2.114-.409-3.755-3.847C1292.536,1761.409,1292.338,1757.61,1292.338,1757.61Z" transform="translate(-1238.467 -1732.099)"/><g transform="translate(74.907 19.98)"><path class="b" d="M1401.4,1739.512a.219.219,0,0,1-.217-.191,2.585,2.585,0,0,0-.967-1.924,2.038,2.038,0,0,0-1.509-.246.219.219,0,0,1-.115-.423,2.447,2.447,0,0,1,1.864.3,2.99,2.99,0,0,1,1.163,2.236.219.219,0,0,1-.189.245Z" transform="translate(-1398.43 -1736.661)"/></g><g transform="translate(75.046 20.827)"><path class="b" d="M1399.174,1742.82a.21.21,0,0,1-.053-.006.219.219,0,0,1-.161-.265,4.114,4.114,0,0,1,2.193-2.659.219.219,0,0,1,.175.4,3.735,3.735,0,0,0-1.943,2.362A.219.219,0,0,1,1399.174,1742.82Z" transform="translate(-1398.955 -1739.872)"/></g><g transform="translate(73.934 18.732)"><path class="b" d="M1396.178,1739.051a6.4,6.4,0,0,1-1.261-.121.219.219,0,0,1,.094-.428c.023.005,2.258.478,3.526-.6a2.963,2.963,0,0,0,.877-2.55,3.057,3.057,0,0,0-1.144-2.55,3.956,3.956,0,0,0-3.071-.194.219.219,0,1,1-.146-.413,4.337,4.337,0,0,1,3.461.244,3.463,3.463,0,0,1,1.338,2.892,3.374,3.374,0,0,1-1.033,2.907A4.093,4.093,0,0,1,1396.178,1739.051Z" transform="translate(-1394.745 -1731.937)"/></g><g transform="translate(49.723 19.98)"><path class="b" d="M1303.271,1739.513l-.028,0a.22.22,0,0,1-.189-.246,2.988,2.988,0,0,1,1.163-2.236,2.451,2.451,0,0,1,1.864-.3.219.219,0,0,1-.115.423,2.037,2.037,0,0,0-1.509.245,2.586,2.586,0,0,0-.968,1.924A.219.219,0,0,1,1303.271,1739.513Z" transform="translate(-1303.052 -1736.662)"/></g><g transform="translate(50.269 20.827)"><path class="b" d="M1307.4,1742.82a.219.219,0,0,1-.213-.167,3.737,3.737,0,0,0-1.942-2.362.219.219,0,0,1,.174-.4,4.113,4.113,0,0,1,2.193,2.659.219.219,0,0,1-.16.265A.213.213,0,0,1,1307.4,1742.82Z" transform="translate(-1305.116 -1739.872)"/></g><g transform="translate(48.771 18.732)"><path class="b" d="M1303.126,1739.051a4.092,4.092,0,0,1-2.641-.812,3.373,3.373,0,0,1-1.033-2.907,3.464,3.464,0,0,1,1.338-2.892,4.337,4.337,0,0,1,3.461-.244.219.219,0,1,1-.145.413,3.969,3.969,0,0,0-3.073.2,3.059,3.059,0,0,0-1.142,2.549,2.964,2.964,0,0,0,.879,2.551c1.271,1.076,3.5.6,3.524.6a.219.219,0,1,1,.094.428A6.394,6.394,0,0,1,1303.126,1739.051Z" transform="translate(-1299.445 -1731.937)"/></g><g transform="translate(66.43 15.58)"><path class="b" d="M1366.542,1721.232a.219.219,0,0,1-.152-.378,2.666,2.666,0,0,1,3.426-.409.219.219,0,0,1-.259.354,2.2,2.2,0,0,0-2.863.373A.218.218,0,0,1,1366.542,1721.232Z" transform="translate(-1366.323 -1720)"/></g><g transform="translate(57.179 15.575)"><path class="b" d="M1334.673,1721.069a.218.218,0,0,1-.157-.065,2.2,2.2,0,0,0-2.886-.1.219.219,0,1,1-.247-.362,2.664,2.664,0,0,1,3.446.158.219.219,0,0,1-.157.371Z" transform="translate(-1331.288 -1719.982)"/></g><g transform="translate(53.224 6.492)"><path class="b" d="M1326.807,1715.882a6.329,6.329,0,0,1-2.806-.659l-3.073-1.516a7.267,7.267,0,0,1-4.032-6.087l-.57-10.784a10.693,10.693,0,1,1,21.356,0l-.564,10.681a7.245,7.245,0,0,1-4.175,6.156l-.093-.2.093.2-3.453,1.611A6.342,6.342,0,0,1,1326.807,1715.882Zm.2-29.865a10.255,10.255,0,0,0-10.24,10.8l.57,10.783a6.827,6.827,0,0,0,3.788,5.718l3.073,1.516a5.877,5.877,0,0,0,5.11.056l3.452-1.611a6.808,6.808,0,0,0,3.923-5.783l.564-10.679a10.254,10.254,0,0,0-10.24-10.8Z" transform="translate(-1316.311 -1685.579)"/></g><path class="b" d="M1326.178,1661.64a24.883,24.883,0,0,0-10.264-.21l-.4.114s-9.753,1.528-7.424,18.4l1.642.1a57.221,57.221,0,0,0,13.346-9.527c1.472,2.157,4.27,7.6,8.01,9.669l1.879-.258S1336.2,1664.676,1326.178,1661.64Z" transform="translate(-1256.773 -1660.994)"/><g transform="translate(66.141 7.503)"><path class="b" d="M1373.4,1701.324a.25.25,0,0,1-.056-.007c-6.746-1.766-8.119-11.594-8.119-11.689a.219.219,0,0,1,.438-.005c.013.146,1.326,9.577,7.792,11.27a.219.219,0,0,1-.055.431Zm-7.736-11.7h0Z" transform="translate(-1365.23 -1689.409)"/></g><path class="b" d="M1355.439,1848.578c0,.494-.248.9-.553.9s-.553-.4-.553-.9.248-.9.553-.9S1355.439,1848.084,1355.439,1848.578Z" transform="translate(-1291.069 -1798.389)"/><path class="b" d="M1355.439,1873.467c0,.494-.248.895-.553.895s-.553-.4-.553-.895.248-.9.553-.9S1355.439,1872.973,1355.439,1873.467Z" transform="translate(-1291.069 -1816.706)"/><path class="b" d="M1390.626,2760.285l-4.026,7.569h16.969l-6.085-7.569s0,3.644-3.065,3.784C1390.894,2764.231,1390.626,2760.285,1390.626,2760.285Z" transform="translate(-1314.816 -2470.024)"/><g transform="translate(82.448 273.688)"><path class="b" d="M1427.208,2714.311a.192.192,0,0,1-.043,0,.219.219,0,0,1-.171-.258c.012-.064,1.294-6.427,3-16.348a.219.219,0,0,1,.432.074c-1.7,9.929-2.988,16.3-3,16.36A.22.22,0,0,1,1427.208,2714.311Z" transform="translate(-1426.988 -2697.518)"/></g><g transform="translate(75.405 273.691)"><path class="b" d="M1400.719,2714.32a.219.219,0,0,1-.219-.219c0-.062,0-6.33-.186-16.347a.219.219,0,0,1,.215-.223h0a.219.219,0,0,1,.219.215c.184,10.021.186,16.292.186,16.354A.219.219,0,0,1,1400.719,2714.32Z" transform="translate(-1400.314 -2697.531)"/></g><g transform="translate(69.286 40.628)"><path class="b" d="M1406.042,1868.3a26.444,26.444,0,0,1-3.375-.2.219.219,0,0,1-.187-.236c.01-.117,1-11.769-1.92-14.73a.219.219,0,0,1,.139-.372l10.571-.87a.219.219,0,0,1,.036.437l-10.141.834c2.53,3.3,1.895,12.929,1.77,14.529,1.483.174,10.664,1.023,15.472-3.814,2.567-2.583,3.491-6.373,2.746-11.267-3.179-20.874-14.9-29.891-24.177-33.78a46.582,46.582,0,0,0-19.6-3.48.219.219,0,1,1-.037-.437,47.034,47.034,0,0,1,19.789,3.506c9.385,3.93,21.247,13.04,24.457,34.125.767,5.039-.2,8.956-2.869,11.642C1415.255,1867.673,1409.63,1868.3,1406.042,1868.3Z" transform="translate(-1377.139 -1814.863)"/></g><g transform="translate(24.844 99.679)"><path class="b" d="M1230.881,2212.95h-.006l-21.818-.522a.219.219,0,0,1-.214-.217,632.663,632.663,0,0,1,11.629-123.634c5.991-30.747,12.157-49.734,12.219-49.922a.219.219,0,0,1,.208-.151h29.912a.218.218,0,0,1,.144.054c7.184,6.258,12.275,19.322,15.132,38.832,2.281,15.576,3.155,35.284,2.6,58.573-.948,39.646-5.786,76.431-5.835,76.8a.219.219,0,0,1-.217.19H1253.7a.219.219,0,0,1-.219-.214L1250,2078.9l-18.9,133.857A.219.219,0,0,1,1230.881,2212.95Zm23.034-.438h20.527c.378-2.913,4.894-38.414,5.806-76.563.557-23.265-.316-42.946-2.594-58.5-2.833-19.346-7.854-32.3-14.925-38.509h-29.67c-.593,1.85-6.455,20.452-12.158,49.727a632.318,632.318,0,0,0-11.622,123.326l21.411.512,19.24-136.268a.226.226,0,0,1,.229-.189.22.22,0,0,1,.207.213Z" transform="translate(-1208.826 -2038.503)"/></g><g transform="translate(58.921 128.607)"><path class="b" d="M1345.13,2157.118a.219.219,0,0,1-.17-.081l-7.025-8.62a.219.219,0,0,1,.34-.277l7.025,8.62a.219.219,0,0,1-.17.358Z" transform="translate(-1337.885 -2148.059)"/></g><path class="b" d="M1201.956,2758.221c4.791,2.6,12.326-3.477,12.326-3.477l2.705,8.576-23.737.455Z" transform="translate(-1172.52 -2465.946)"/><g transform="translate(41.544 273.596)"><path class="b" d="M1272.292,2712.592h-.019a.218.218,0,0,1-.2-.237l1.286-14.983a.219.219,0,1,1,.436.037l-1.286,14.984A.219.219,0,0,1,1272.292,2712.592Z" transform="translate(-1272.073 -2697.17)"/></g><g transform="translate(29.217 273.3)"><path class="b" d="M1225.608,2715.244a.219.219,0,0,1-.123-.4l6.1-4.1-4.918-14.4a.219.219,0,1,1,.415-.141l4.972,14.56a.22.22,0,0,1-.085.253l-6.237,4.2A.22.22,0,0,1,1225.608,2715.244Z" transform="translate(-1225.388 -2696.05)"/></g><g transform="translate(80.516 81.5)"><g transform="translate(1.164 0)"><path class="b" d="M1430.327,1973.561h-4.291a1.954,1.954,0,0,1,0-3.908h6.208a.219.219,0,1,1,0,.438h-6.208a1.516,1.516,0,0,0,0,3.032h4.291a.219.219,0,1,1,0,.438Z" transform="translate(-1424.083 -1969.653)"/></g><g transform="translate(0 3.47)"><path class="b" d="M1427.082,1986.7h-5.455a1.954,1.954,0,1,1,0-3.908h5.455a.219.219,0,1,1,0,.438h-5.455a1.516,1.516,0,0,0,0,3.032h5.455a.219.219,0,1,1,0,.438Z" transform="translate(-1419.673 -1982.795)"/></g><g transform="translate(1.918)"><path class="b" d="M1433.695,1980.5h-4.8a1.954,1.954,0,0,1,0-3.908h3.537a.219.219,0,0,1,0,.439h-3.537a1.516,1.516,0,0,0,0,3.031h4.8a2.732,2.732,0,0,0,2.39-1.269c1.36-2.02,1.125-6.2.053-8.838a.219.219,0,0,1,.406-.165c1.11,2.73,1.39,7.043-.095,9.249A3.149,3.149,0,0,1,1433.695,1980.5Z" transform="translate(-1426.936 -1969.653)"/></g></g><g transform="translate(44.783 60.851)"><path class="b" d="M1285.646,1910.3a.219.219,0,0,1-.216-.181c-.018-.1-1.817-10.427-.755-18.476a.219.219,0,1,1,.435.057c-1.054,7.983.734,18.24.752,18.342a.22.22,0,0,1-.216.257Z" transform="translate(-1284.341 -1891.452)"/></g><g transform="translate(79.608 62.605)"><path class="b" d="M1432.2,1914.233a.22.22,0,0,1-.207-.145c-3.593-10.042-15.512-15.521-15.632-15.575a.219.219,0,1,1,.18-.4c.122.055,12.208,5.608,15.865,15.827a.219.219,0,0,1-.133.28A.216.216,0,0,1,1432.2,1914.233Z" transform="translate(-1416.233 -1898.094)"/></g><g transform="translate(84.111 66.713)"><path class="b" d="M1433.507,1926.639l-.037,0a.219.219,0,0,1-.179-.253l2.127-12.547a.219.219,0,1,1,.432.073l-2.127,12.547A.219.219,0,0,1,1433.507,1926.639Z" transform="translate(-1433.287 -1913.654)"/></g><g transform="translate(3.053 40.285)"><path class="b" d="M1158.016,1864.582a12.18,12.18,0,0,1-2.438-.25c-15.792-3.214-29.129-36.8-29.262-37.141a.219.219,0,0,1,.068-.252l8.985-7.087a.219.219,0,0,1,.311.04l19.679,26.077c2.422-11.137,7.238-25.275,16.508-30.476,5.445-3.056,9.79-1.586,9.973-1.521a.219.219,0,0,1-.145.413c-.043-.015-4.358-1.467-9.628,1.5-9.249,5.2-14.012,19.537-16.38,30.646a.219.219,0,0,1-.39.086l-19.832-26.28-8.681,6.847c.99,2.456,13.859,33.663,28.881,36.721,4.349.885,8.529-.681,12.424-4.656a.219.219,0,1,1,.313.307C1165.125,1862.9,1161.641,1864.582,1158.016,1864.582Z" transform="translate(-1126.3 -1813.562)"/></g><g transform="translate(0 31.591)"><g transform="translate(0 1.84)"><path class="b" d="M1120.339,1806.392a.22.22,0,0,1-.188-.106l-3.3-5.491a16.082,16.082,0,0,1-1.9-10.507c.261-1.553.929-2.681,1.59-2.681a.711.711,0,0,1,.521.238c.942.972.84,5.071.825,5.535a.219.219,0,0,1-.438-.014c.039-1.21-.013-4.505-.7-5.216a.275.275,0,0,0-.206-.1c-.314,0-.908.824-1.158,2.315a15.637,15.637,0,0,0,1.848,10.214l3.3,5.486a.219.219,0,0,1-.188.332Z" transform="translate(-1114.737 -1787.607)"/></g><g transform="translate(2.547)"><path class="b" d="M1132.11,1797.466a.219.219,0,0,1-.186-.1l-1.224-1.977a.219.219,0,0,1,.155-.332,3.814,3.814,0,0,0,2.818-1.494,4.322,4.322,0,0,0,.248-3.457.588.588,0,0,0-.421-.415.6.6,0,0,0-.582.158,1.17,1.17,0,0,0-.342.585c-.292,1.428-.855,2.117-1.693,2.053a1.874,1.874,0,0,1-1.607-.843,1.912,1.912,0,0,1,.018-1.763c1.023-1.81,2.1-1.5,2.881-1.273a1.463,1.463,0,0,0,.726.1.678.678,0,0,0,.408-.407,1.224,1.224,0,0,0-.039-1,2.666,2.666,0,0,0-2.335-.884,3.8,3.8,0,0,0-3.466,2.669.219.219,0,0,1-.432-.071c.287-2.77.477-7.154-.179-7.881-.056-.063-.1-.063-.109-.063-.675,0-1.538,2.152-1.934,3.679a.219.219,0,0,1-.424-.11c.173-.669,1.1-4.007,2.358-4.007a.576.576,0,0,1,.435.208c.773.857.565,4.906.4,7.01a4.374,4.374,0,0,1,3.307-1.869,3.032,3.032,0,0,1,2.772,1.121,1.658,1.658,0,0,1,.052,1.366,1.108,1.108,0,0,1-.684.655,1.733,1.733,0,0,1-.976-.1c-.75-.217-1.526-.441-2.371,1.053a1.511,1.511,0,0,0-.028,1.342,1.485,1.485,0,0,0,1.262.625c.573.047.989-.527,1.229-1.7a1.6,1.6,0,0,1,.462-.807,1.032,1.032,0,0,1,1-.272,1.02,1.02,0,0,1,.733.721,4.737,4.737,0,0,1-.3,3.815,4.043,4.043,0,0,1-2.8,1.634l1.052,1.7a.219.219,0,0,1-.071.3A.216.216,0,0,1,1132.11,1797.466Z" transform="translate(-1124.384 -1780.638)"/></g><g transform="translate(3.414 11.443)"><path class="b" d="M1130.979,1826.836a.219.219,0,0,1-.195-.118c-1.17-2.261-2.831-2.3-2.9-2.3a.219.219,0,0,1,0-.438c.081,0,1.991.029,3.29,2.54a.219.219,0,0,1-.195.32Z" transform="translate(-1127.665 -1823.977)"/></g><g transform="translate(6.058 11.401)"><path class="b" d="M1137.9,1825.979a.222.222,0,0,1-.066-.01.219.219,0,0,1-.142-.276,2.88,2.88,0,0,1,3.018-1.869.219.219,0,0,1-.048.436,2.4,2.4,0,0,0-2.553,1.566A.22.22,0,0,1,1137.9,1825.979Z" transform="translate(-1137.68 -1823.815)"/></g></g><path class="b" d="M1324.715,1954.29a1.735,1.735,0,0,1,0-3.47H1322.8a1.735,1.735,0,1,1,0-3.47h1.164a1.735,1.735,0,1,1,0-3.47h3.637v-9.544h-42.213v27.724H1327.6v-7.77Z" transform="translate(-1240.327 -1862.162)"/><path class="b" d="M1372.426,1729.776c0,.54.27.978.6.978s.6-.438.6-.978-.27-.978-.6-.978S1372.426,1729.236,1372.426,1729.776Z" transform="translate(-1304.385 -1710.895)"/><ellipse class="b" cx="0.604" cy="0.978" rx="0.604" ry="0.978" transform="translate(58.384 17.903)"/><g transform="translate(62.608 24.91)"><path class="b" d="M1353.129,1756a3.077,3.077,0,0,1-1.15-.248.219.219,0,0,1,.181-.4,2,2,0,0,0,1.669.019.219.219,0,1,1,.247.362A1.656,1.656,0,0,1,1353.129,1756Z" transform="translate(-1351.85 -1755.336)"/></g><path class="b" d="M1340.947,1770.8a9.022,9.022,0,0,0,6.918.132.572.572,0,0,1,.75.754,4.385,4.385,0,0,1-4.217,2.726,4.573,4.573,0,0,1-4.173-2.829A.573.573,0,0,1,1340.947,1770.8Z" transform="translate(-1280.642 -1741.775)"/><path class="b" d="M1350.393,1777.688a3.275,3.275,0,0,1,1.2.1c.274.094.555.323.519.61-.029.234-.254.388-.468.486a3.708,3.708,0,0,1-2.7.06c-.429-.145-1.22-.659-.523-.995A5.4,5.4,0,0,1,1350.393,1777.688Z" transform="translate(-1286.517 -1746.867)"/><path class="b" d="M1303,1980.9a1.5,1.5,0,1,1-1.5-1.5A1.5,1.5,0,0,1,1303,1980.9Z" transform="translate(-1251.085 -1895.328)"/></g><path class="b" d="M833.042,2379.569c-4.67,2.81-12.469-2.924-12.469-2.924l-2.32,8.689,23.733-.6Z" transform="translate(-399.988 -1613.892)"/><g transform="translate(378.055 577.748)"><path class="b" d="M732.736,1836.046h0l-26.67-.174a.219.219,0,0,1-.217-.205l-4.773-73.762-29.923-40.769a26.663,26.663,0,0,1-3.272-25.682,101.42,101.42,0,0,1,11.044-19.382.219.219,0,0,1,.351.263,100.959,100.959,0,0,0-10.989,19.284,26.222,26.222,0,0,0,3.219,25.257l29.961,40.821a.222.222,0,0,1,.042.115l4.764,73.623,26.231.171-5.326-80.471-20.858-55.324a.219.219,0,0,1,0-.14l2.178-7.232a.219.219,0,0,1,.42.126l-2.157,7.161,20.844,55.285a.213.213,0,0,1,.013.063l5.343,80.739a.219.219,0,0,1-.219.234Z" transform="translate(-665.967 -1675.984)"/></g><g transform="translate(419.488 737.207)"><path class="b" d="M823.981,2305.662a.219.219,0,0,1-.219-.212l-.878-25.326a.219.219,0,1,1,.438-.015l.878,25.326a.219.219,0,0,1-.211.227Z" transform="translate(-822.884 -2279.897)"/></g><g transform="translate(427.551 737.208)"><path class="b" d="M858.923,2308.587a.218.218,0,0,1-.107-.028l-5.285-2.968a.218.218,0,0,1-.106-.242l6.109-25.282a.219.219,0,1,1,.426.1l-6.07,25.121,5.14,2.887a.219.219,0,0,1-.107.41Z" transform="translate(-853.419 -2279.899)"/></g><g transform="translate(444.404 710.189)"><path class="b" d="M922.561,2203.524a.212.212,0,0,1-.118-.036l-5.1-3.282a.218.218,0,0,1-.08-.275l10.161-22.23a.219.219,0,1,1,.4.183l-10.082,22.057,4.936,3.179a.219.219,0,0,1-.119.4Z" transform="translate(-917.247 -2177.574)"/></g><path class="d" d="M782.131,1436.237l-15.87,13.874,6.8,7s-2.061,3.959-10.673,5.11l-10.26,23.2-21.11-4.123s10.734-75.614,30.149-70.385C774.094,1414.393,782.131,1436.237,782.131,1436.237Z" transform="translate(-335.784 -902.963)"/><g transform="translate(391.113 507.427)"><path class="b" d="M740.649,1484.91a.232.232,0,0,1-.04,0l-25.008-4.693a.219.219,0,0,1-.178-.237,249.681,249.681,0,0,1,6.661-35.718c2.826-10.318,6.11-18.47,9.763-24.232,4.6-7.252,9.8-10.725,15.473-10.335a.22.22,0,0,1,.2.234.223.223,0,0,1-.234.2c-12.5-.869-20.372,18.141-24.782,34.24a249.3,249.3,0,0,0-6.628,35.45l24.639,4.623,10.189-23.042a.218.218,0,0,1,.177-.129c.077-.008,7.723-.862,10.514-5.015a.219.219,0,0,1,.364.245c-2.738,4.073-9.645,5.062-10.705,5.191l-10.209,23.086A.22.22,0,0,1,740.649,1484.91Z" transform="translate(-715.422 -1409.662)"/></g><g transform="translate(455.396 516.984)"><path class="e" d="M997.762,1597.993a86.412,86.412,0,0,1-15.494,4.992l-22.225,45.593a11.522,11.522,0,0,0,5.308,15.405l.63.307a5.278,5.278,0,0,0,7.058-2.432l30.123-61.8Z" transform="translate(-958.875 -1557.823)"/><path class="e" d="M1087.509,1445.858l-8.21,16.842h0l-7.338,15.054c3.159.181,6.208.247,8.98.146l5.376-5.174a2.058,2.058,0,0,1,3.044,2.755l-3.468,4.411,4.157.692,6.093-12.5,7.1-14.559Z" transform="translate(-1042.101 -1445.858)"/></g><path class="b" d="M815.05,1283.638s9.408.467,15.63-5.674c0,0,.217-8.1-9.738-9.649a11.344,11.344,0,0,0-10.522,7.088,127.321,127.321,0,0,0-5.091,14.881s-4.229-2.217-5.018,3.081l-1.941.884c0,.091,0,.177,0,.271,0,0-4.62,4.307,1.152,9.422s12.111-.513,13.735-3.659,1.214-8.816.429-10.48c0,0-4.656-.013-3.718-4.4S815.05,1283.638,815.05,1283.638Z" transform="translate(-384.066 -798.208)"/><path class="b" d="M899.636,1335.6c-.13.524.027,1.014.35,1.094s.692-.279.822-.8-.026-1.014-.35-1.094S899.767,1335.079,899.636,1335.6Z" transform="translate(-459.849 -847.132)"/><g transform="translate(439.463 485.367)"><path class="b" d="M901.867,1327.456a.219.219,0,0,1-.177-.09,2.2,2.2,0,0,0-2.84-.518.219.219,0,0,1-.192-.394,2.663,2.663,0,0,1,3.387.655.219.219,0,0,1-.177.347Z" transform="translate(-898.534 -1326.115)"/></g><g transform="translate(425.47 484.484)"><g transform="translate(1.015 1.306)"><path class="b" d="M849.6,1330.027a.22.22,0,0,1-.2-.3,2.991,2.991,0,0,1,1.668-1.889,2.45,2.45,0,0,1,1.881.158.219.219,0,0,1-.214.383,2.037,2.037,0,0,0-1.523-.126,2.584,2.584,0,0,0-1.4,1.634A.22.22,0,0,1,849.6,1330.027Z" transform="translate(-849.383 -1327.715)"/></g><g transform="translate(1.922 1.792)"><path class="b" d="M854.437,1332.929h0a.219.219,0,0,1-.219-.219,3.739,3.739,0,0,0-1.315-2.761.219.219,0,0,1,.266-.348,4.115,4.115,0,0,1,1.487,3.109A.219.219,0,0,1,854.437,1332.929Z" transform="translate(-852.817 -1329.556)"/></g><path class="b" d="M849.688,1330.1h-.006c-.1,0-2.52-.086-3.62-1.611a3.373,3.373,0,0,1-.3-3.07,3.465,3.465,0,0,1,2-2.484,4.34,4.34,0,0,1,3.418.6.219.219,0,0,1-.241.366,3.965,3.965,0,0,0-3.029-.552,3.06,3.06,0,0,0-1.724,2.2,2.964,2.964,0,0,0,.237,2.686c.972,1.349,3.255,1.43,3.278,1.43a.219.219,0,0,1-.006.438Z" transform="translate(-845.538 -1322.77)"/></g><g transform="translate(433.547 503.935)"><path class="b" d="M876.349,1405.5a.211.211,0,0,1-.052-.006.219.219,0,0,1-.16-.265l2.124-8.624a.219.219,0,0,1,.426.1l-2.125,8.624A.219.219,0,0,1,876.349,1405.5Z" transform="translate(-876.129 -1396.436)"/></g><g transform="translate(414.079 469.684)"><path class="b" d="M822.549,1301.572a9.108,9.108,0,0,1-2.193-.27l-2.031-.5a.219.219,0,1,1,.106-.425l2.031.5a8.589,8.589,0,0,0,10.407-6.265l.34-1.368a.219.219,0,0,1,.087-.127l1.318-.922a1.382,1.382,0,0,0-.17-2.366l-.186-.094a.219.219,0,0,1-.112-.256l1.015-3.579c.042-.1,3.219-7.742.489-13.205-1.25-2.5-3.556-4.187-6.853-5.006-8.043-2-13.34,1.576-15.745,10.624-.041.156-.077.289-.107.395-.333,1.167-1.368,5.357-2.178,8.666a.219.219,0,0,1-.273.159,4.106,4.106,0,0,0-3.83.439c-1.985,1.578-1.824,5.328-1.822,5.366a.219.219,0,1,1-.438.021c-.008-.163-.172-4.013,1.987-5.73a4.407,4.407,0,0,1,4-.577c.8-3.276,1.8-7.316,2.129-8.464.03-.1.064-.234.1-.387a19.119,19.119,0,0,1,3.715-7.709c3.015-3.463,7.241-4.548,12.559-3.227,3.428.852,5.83,2.614,7.14,5.237,1.477,2.957,1.269,6.486.835,8.925a24.019,24.019,0,0,1-1.3,4.62l-.957,3.379.025.012a1.82,1.82,0,0,1,.224,3.117l-1.25.875-.32,1.289a9.038,9.038,0,0,1-8.745,6.854Z" transform="translate(-802.397 -1266.719)"/></g><g transform="translate(436.588 497.633)"><path class="b" d="M890.422,1375.285a.215.215,0,0,1-.1-.026,7.537,7.537,0,0,1-2.635-2.346.219.219,0,0,1,.36-.25,7.1,7.1,0,0,0,2.481,2.208.219.219,0,0,1-.1.412Z" transform="translate(-887.645 -1372.569)"/></g><g transform="translate(430.765 479.536)"><path class="b" d="M869.285,1310.324a31.125,31.125,0,0,1-3.5-.181.219.219,0,0,1-.191-.237.224.224,0,0,1,.23-.2c.1.006,9.515.458,15.461-5.609a.219.219,0,1,1,.313.307c-3.546,3.618-8.288,4.97-11.649,5.468,3.524-.074,8.474-.725,11.35-3.505a.219.219,0,1,1,.3.315c-2.592,2.506-6.762,3.313-9.8,3.548C870.905,1310.3,870.052,1310.324,869.285,1310.324Z" transform="translate(-865.592 -1304.032)"/></g><g transform="translate(412.321 491.375)"><path class="b" d="M804.008,1365.379a8.152,8.152,0,0,1-6.2-2.893c-1.968-2.24-2.616-5.173-1.576-7.13a5.769,5.769,0,0,1,6.281-2.893.219.219,0,0,1-.1.426,5.241,5.241,0,0,0-5.792,2.672c-.956,1.8-.332,4.529,1.518,6.636a7.783,7.783,0,0,0,8.871,2.18c9.22-3.455,5.855-15.108,5.82-15.225a.219.219,0,1,1,.42-.125c.036.121,3.512,12.164-6.086,15.761A8.982,8.982,0,0,1,804.008,1365.379Z" transform="translate(-795.741 -1348.87)"/></g><g transform="translate(416.121 582.236)"><path class="b" d="M852.514,1821.613H852.5l-15.528-1a.219.219,0,0,1-.2-.233.216.216,0,0,1,.233-.2l15.3.984,1.958-61.755-44.091-66.083a.219.219,0,0,1,.365-.243l44.13,66.141a.221.221,0,0,1,.036.129l-1.967,62.051a.219.219,0,0,1-.072.155A.217.217,0,0,1,852.514,1821.613Z" transform="translate(-810.133 -1692.983)"/></g><path class="b" d="M895.7,2275.024a6.849,6.849,0,0,1-4.988.266l.093,1.4-9.135-.06-1.082,3.249,23.727.834Z" transform="translate(-445.863 -1539.103)"/><g transform="translate(422.777 507.445)"><path class="b" d="M878.15,1466.078a46.757,46.757,0,0,1-20.136-4.322,39.171,39.171,0,0,1-15.157-12.2.219.219,0,0,1,.04-.285l15.778-13.794q-.23-.492-.438-1c-3-7.28-8.092-16.959-15.29-21.727-4.288-2.84-7.334-2.574-7.364-2.572a.222.222,0,0,1-.24-.2.219.219,0,0,1,.2-.24c.128-.013,3.2-.292,7.608,2.614,7.312,4.818,12.463,14.6,15.5,21.954a23.644,23.644,0,0,0,18.169,14.283c8.6,1.319,20.759,2.821,29.9,2.5l5.316-5.116a2.277,2.277,0,0,1,3.368,3.048l-3.24,4.12,9.489,1.581a.219.219,0,0,1,.161.313l-4.17,8.553a.218.218,0,0,1-.275.108l-10.508-4.026C898.959,1463,888.791,1466.078,878.15,1466.078Zm-34.819-16.61a39.25,39.25,0,0,0,14.891,11.9c9.391,4.422,25.434,7.641,48.537-2.133a.223.223,0,0,1,.164,0l10.4,3.986,3.953-8.109-9.565-1.593a.22.22,0,0,1-.136-.352l3.468-4.411a1.838,1.838,0,0,0-2.72-2.461l-5.377,5.174a.22.22,0,0,1-.144.061c-9.178.337-21.414-1.177-30.062-2.5a24.1,24.1,0,0,1-17.873-13.142Z" transform="translate(-835.341 -1409.729)"/></g><path class="b" d="M1024.9,1455.947l-20.748-10.114a.163.163,0,0,0-.219.075l-15.507,31.812.355.018,15.375-31.54,20.454,9.971-12.349,25.333h0l-7.243,14.858-24.568,50.4a11.377,11.377,0,0,1-20.454-9.97l22.365-45.881c-.136.03-.274.064-.409.093l-22.25,45.645A11.7,11.7,0,1,0,980.74,1546.9l31.786-65.207v0l12.445-25.53A.163.163,0,0,0,1024.9,1455.947Z" transform="translate(-503.215 -928.843)"/><g transform="translate(418.556 533.066)"><path class="b" d="M831.276,1521.063a.218.218,0,0,1-.158-.067c-.09-.094-9.066-9.386-11.733-13.9a.219.219,0,1,1,.377-.223c2.641,4.473,11.58,13.729,11.671,13.822a.219.219,0,0,1-.157.371Z" transform="translate(-819.355 -1506.762)"/></g><g transform="translate(434.609 556.266)"><path class="b" d="M920.062,1609.387h-.008c-12.144-.432-28.8-3.177-39.181-13.8-.22-.226-.43-.44-.519-.507a.219.219,0,0,1-.114-.394c.211-.158.367,0,.947.595,10.281,10.518,26.819,13.238,38.883,13.667a.219.219,0,0,1-.008.438Z" transform="translate(-880.152 -1594.629)"/></g><g transform="translate(219.898 686.841)"><path class="b" d="M308.77,2163.3c-5.292-5.179-11.5-9.863-18.762-11.29s-15.729,1.2-19.271,7.7c-4,7.345-.672,16.451,3.371,23.773,10.174,18.426,24.582,34.156,39.719,48.781,3.025,2.923,6.2,5.883,10.145,7.346,19.232,7.134,12.251-23.208,9.983-32.161A94.473,94.473,0,0,0,308.77,2163.3Z" transform="translate(-267.338 -2147.162)"/><g transform="translate(0)"><path class="b" d="M327.793,2230.771a16.413,16.413,0,0,1-5.623-1.165c-4.136-1.534-7.415-4.5-10.971-7.937-26.1-25.223-36.529-41.273-42.694-52.437-5.976-10.822-7.161-19.242-3.621-25.74,4.036-7.41,13.585-9.827,20.93-8.384,6.666,1.31,13.1,5.181,20.259,12.183a101.045,101.045,0,0,1,27.107,47.519c3.191,12.6,5.733,28.752-.284,34.157A7.356,7.356,0,0,1,327.793,2230.771Zm-46.174-95.624c-6.311,0-13.134,2.649-16.351,8.554-3.462,6.356-2.278,14.638,3.62,25.318,11.708,21.2,28.924,39.107,42.615,52.335,3.52,3.4,6.763,6.337,10.819,7.841,4.537,1.684,8,1.5,10.28-.555,4.567-4.1,4.622-16.079.152-33.723a100.6,100.6,0,0,0-26.988-47.313c-7.092-6.94-13.459-10.774-20.037-12.066A21.379,21.379,0,0,0,281.619,2135.147Z" transform="translate(-262.898 -2134.71)"/></g><g transform="translate(19.788 13.976)"><path class="b" d="M388.879,2319.593l-.437-.028a171.17,171.17,0,0,0-50.6-131.609l.306-.314C372.987,2221.666,391.952,2270.993,388.879,2319.593Z" transform="translate(-337.84 -2187.642)"/></g><ellipse class="b" cx="31.523" cy="4.943" rx="31.523" ry="4.943" transform="translate(36.824 140.297)"/><g transform="translate(36.605 145.021)"><path class="b" d="M433.274,2724.215c-16.195,0-23.966-10.906-27.633-20.055a62.657,62.657,0,0,1-4.11-20,.219.219,0,0,1,.217-.221h0a.219.219,0,0,1,.219.217,62.185,62.185,0,0,0,4.083,19.849c3.617,9.019,11.277,19.77,27.222,19.77,9.171,0,16.507-2.88,21.8-8.56,10.734-11.512,9.514-30.847,9.5-31.042a.219.219,0,0,1,.437-.031c.014.2,1.245,19.722-9.617,31.371C450.015,2721.288,442.571,2724.215,433.274,2724.215Z" transform="translate(-401.531 -2683.94)"/></g><g transform="translate(37.933 155.676)"><path class="b" d="M437.87,2730.335a90.017,90.017,0,0,1-31.166-5.615.219.219,0,0,1,.151-.412c34.038,12.511,60.686.134,60.952.008a.219.219,0,0,1,.189.4C467.818,2724.8,455.9,2730.335,437.87,2730.335Z" transform="translate(-406.56 -2724.294)"/></g><g transform="translate(68.833 83.389)"><path class="b" d="M523.931,2477.83l-.346-.27c15.807-20.25,34.558-26.97,34.746-27.036l.145.414C558.289,2451,539.654,2457.687,523.931,2477.83Z" transform="translate(-523.585 -2450.524)"/></g><g transform="translate(71.183 73.472)"><path class="b" d="M537.142,2448.244c-2.047,0-3.437-.613-4.136-1.826-1.826-3.172,1.5-9.7,4.615-14.614a45.092,45.092,0,0,1,18.1-16.388c4.018-1.982,7.3-2.731,10.326-2.358,3.351.413,7.1,2.793,7.8,6.544.605,3.283-1.075,6.717-5.135,10.5-7.921,7.375-17.71,12.577-25.354,16.286a14.714,14.714,0,0,1-5.789,1.849Q537.349,2448.244,537.142,2448.244Zm27.385-34.84a19.653,19.653,0,0,0-8.614,2.405h0a44.651,44.651,0,0,0-17.922,16.23c-4.31,6.8-5.945,11.833-4.605,14.16.657,1.142,2.064,1.682,4.161,1.6a14.353,14.353,0,0,0,5.614-1.806c7.616-3.695,17.368-8.877,25.247-16.212,3.942-3.67,5.578-6.973,5-10.1-.653-3.544-4.227-5.8-7.419-6.189A11.925,11.925,0,0,0,564.528,2413.4Z" transform="translate(-532.486 -2412.965)"/></g></g></g></g></svg>