<svg xmlns="http://www.w3.org/2000/svg" width="327.983" height="165.839" viewBox="0 0 327.983 165.839"><defs><style>.a{fill:#eaf4fe;}.b{fill:#69aeeb;}.c{fill:#fff;}.d{fill:#ec9568;}.e{fill:#212957;}.f{fill:#fec12f;}.g{fill:#f7b68b;}.h{fill:#ffab01;}.i{fill:#0561fc;}.j{fill:#0450cf;}.k{fill:#61aff6;}.l{fill:#fd2227;}</style></defs><g transform="translate(-234.731 -431.302)"><path class="a" d="M523.3,443.783c-84.267-37.8-107.429,21.328-143.581,31.723-27.032,7.772-74.677,12.63-110.838,34.354-28.814,17.311-38.438,55.787-32.459,87.281H541.8C544.167,536.324,597.869,477.23,523.3,443.783Z" transform="translate(0 0)"/><g transform="translate(508.933 473.911)"><path class="b" d="M2045.483,756.552h-1.333l-.013-.922V717.236h.055a5.545,5.545,0,0,1,5.459-4.767h33.742v38.942h-33.742a4.223,4.223,0,0,0-4.219,4.219c0,.053,0,.105.007.157Zm-.051-38.427v33.958a5.5,5.5,0,0,1,4.219-1.967H2082.1V713.764h-32.446a4.238,4.238,0,0,0-4.214,4.133Z" transform="translate(-2044.138 -712.469)"/><g transform="translate(0 37.647)"><path class="b" d="M2083.393,971.923h-33.742a5.514,5.514,0,0,1,0-11.028h33.742Zm-33.742-9.733a4.219,4.219,0,0,0,0,8.437H2082.1V962.19Z" transform="translate(-2044.138 -960.895)"/></g><path class="c" d="M2103.548,1008.4l-3.531-2.239-3.528,2.239v-8.352h7.059Z" transform="translate(-2088.556 -956.467)"/><g transform="translate(5.151 42.791)"><line class="c" x2="33.457" transform="translate(0 0.648)"/><rect class="b" width="33.457" height="1.295"/></g><g transform="translate(4.503 1.117)"><line class="c" y1="36.877" transform="translate(0.648 0)"/><rect class="b" width="1.295" height="36.877"/></g><rect class="b" width="14.962" height="1.295" transform="translate(14.389 17.625)"/><rect class="b" width="11.453" height="1.295" transform="translate(16.144 12.914)"/></g><g transform="translate(424.97 480.247)"><rect class="c" width="51.581" height="36.413" transform="translate(0 2.836)"/><g transform="translate(2.771)"><path class="b" d="M1532.14,793.541h-1.3a3.033,3.033,0,0,0-3.031-3.029H1508.37V754.281h19.445a4.33,4.33,0,0,1,4.326,4.324Zm-22.475-4.324h18.149a4.312,4.312,0,0,1,3.031,1.241V758.605a3.033,3.033,0,0,0-3.031-3.029h-18.149Z" transform="translate(-1508.37 -754.281)"/><path class="b" d="M1658.634,793.541h-1.3V758.605a4.329,4.329,0,0,1,4.324-4.324h19.444v36.231h-19.444A3.033,3.033,0,0,0,1658.634,793.541Zm3.029-37.965a3.033,3.033,0,0,0-3.029,3.029v31.852a4.31,4.31,0,0,1,3.029-1.241h18.149v-33.64Z" transform="translate(-1634.764 -754.281)"/></g><g transform="translate(7.158 5.443)"><rect class="b" width="8.75" height="1.295"/><rect class="b" width="14.736" height="1.295" transform="translate(0 4.763)"/><rect class="b" width="14.736" height="1.295" transform="translate(0 9.45)"/><rect class="b" width="14.736" height="1.295" transform="translate(0 14.138)"/><rect class="b" width="14.736" height="1.295" transform="translate(0 18.826)"/><rect class="b" width="14.736" height="1.295" transform="translate(0 23.513)"/><rect class="b" width="14.735" height="1.295" transform="translate(22.279 4.763)"/><rect class="b" width="14.735" height="1.295" transform="translate(22.279 9.45)"/><rect class="b" width="14.735" height="1.295" transform="translate(22.279 14.138)"/><rect class="b" width="14.735" height="1.295" transform="translate(22.279 18.826)"/><rect class="b" width="14.735" height="1.295" transform="translate(22.279 23.513)"/></g></g><path class="d" d="M1166.3,1156.584s9.787,34.953,19.573,36.351-4.194-51.73-5.592-56.857S1166.3,1156.584,1166.3,1156.584Z" transform="translate(-790.396 -597.397)"/><path class="e" d="M624.593,462.477s6.524-11.65,3.728-17.709-12.117-13.981-20.971-7.456-13.515,4.194-17.71,1.864-10.122-5.525-23.3.466c-15.379,6.99-8.854,31.691-1.4,37.749s-6.059,7.456-21.9,6.524-42.875,5.126-45.672,22.37c-1.288,7.941,0,49.4,43.341,38.215s67.576,22.835,95.072-20.506C645.176,509.181,613.408,474.129,624.593,462.477Z" transform="translate(-222.592 -3.023)"/><path class="f" d="M1003.566,895.264s10.253-2.33,20.04,6.059,15.534,32.156,15.534,32.156l-19.884,27.341-20.35-26.409S985.857,892.934,1003.566,895.264Z" transform="translate(-644.44 -393.4)"/><path class="g" d="M1187.921,740.088s3.728,8.855,3.262,11.651-4.194,11.185-4.194,11.185l18.176,69.905s.932,18.642-4.194,23.3-5.593,2.8-9.787-.932-7.923-55.925-9.321-74.1-3.262-25.166-3.262-25.166,4.66-2.8,6.524-3.728S1187.455,741.486,1187.921,740.088Z" transform="translate(-800.833 -261.992)"/><path class="g" d="M988.912,641.793c-1.4.932-13.981,13.049-13.515,27.03s1.4,13.981.932,18.641,1.4,19.107-9.321,27.03c-3.022,2.233-7.457-23.3-11.651-36.351-3.14-9.771-9.321-9.787,4.195-21.9s15.845-23.768,16.777-29.826S988.912,641.793,988.912,641.793Z" transform="translate(-607.883 -164.629)"/><path class="h" d="M628.972,872.578s-11.4-10.539-29.36,34.356c-3.728,9.32-23.768,62.318-23.768,62.318h77.362s6.99-30.162,10.719-40.415-6.524-51.51-6.524-51.51l-.932,27.063S638.759,858.441,628.972,872.578Z" transform="translate(-289.42 -372.112)"/><path class="g" d="M846.471,1067.561l17.243,56.391s2.33,5.592,15.845,1.4c15.906-4.936,65.712-16.311,65.712-16.311a76.563,76.563,0,0,1,5.593,6.525c3.262,4.194,10.719.7,10.719.7l4.661,3.5s4.3,2.563,6.291,2.563c1.4,0-15.612-14.68-15.612-14.68l-17.01-5.359-57.089,5.359-14.913-50.8Z" transform="translate(-519.035 -530.744)"/><path class="i" d="M1761.918,710.341a1.864,1.864,0,0,1-2.276,1.331l-7.664-2.007a1.865,1.865,0,0,1-1.332-2.275L1779.8,596.032a1.864,1.864,0,0,1,2.275-1.331l7.664,2.007a1.864,1.864,0,0,1,1.331,2.275Z" transform="translate(-1286.138 -138.585)"/><path class="j" d="M1758.45,727.233a2.531,2.531,0,0,1-.641-.083l-7.664-2.007.328-1.253,7.664,2.007a1.217,1.217,0,0,0,1.486-.868l29.156-111.358,1.253.328-29.157,111.358a2.516,2.516,0,0,1-2.426,1.876Z" transform="translate(-1285.764 -154.732)"/><path class="j" d="M1875.577,1067.927h-29.423v-2.59h29.213c.682-.137,5.352-1.318,5.352-7.889,0-4.4-15.194-44.467-25.408-70.32l2.409-.952c.064.162,6.451,16.34,12.756,33.074,12.832,34.057,12.832,37.174,12.832,38.2,0,4.767-2.048,7.36-3.766,8.7a8.942,8.942,0,0,1-3.871,1.77Z" transform="translate(-1367.224 -470.786)"/><path class="j" d="M1507.779,1511.137v-1.552c0-1.03-.138-1.039-1.167-1.039h-46.138c-1.03,0-3.209.009-3.209,1.039v1.552Z" transform="translate(-1037.268 -913.995)"/><path class="d" d="M1075.894,626.414a44.773,44.773,0,0,1-7.359,19.163,63.889,63.889,0,0,0,6.621,27.89c-.069-1.352-.136-2.887-.194-4.643-.466-13.981,12.117-26.1,13.515-27.03C1088.477,641.793,1076.826,620.356,1075.894,626.414Z" transform="translate(-707.447 -164.629)"/><path class="d" d="M1190.031,745.779c-.946-2.927-2.109-5.691-2.109-5.691-.466,1.4-.932,11.185-2.8,12.117s-6.524,3.728-6.524,3.728a87.015,87.015,0,0,1,1.63,9.322C1185.225,761.361,1188.906,754.255,1190.031,745.779Z" transform="translate(-800.833 -261.992)"/><path class="g" d="M1081.656,515.593s5.593,12.583,3.728,22.836-3.262,21.438-8.389,25.633-9.7-2.908-16.311-10.719c-5.126-6.058-9.908-16.508-6.99-18.175,6.525-3.729,5.126,4.194,6.058,5.127,2.331,2.33,2.8-9.322,1.864-10.719C1056.809,522.361,1076.064,533.3,1081.656,515.593Z" transform="translate(-694.103 -71.517)"/><path class="e" d="M1176.115,650.215a3.2,3.2,0,0,1-.82-.106c-2.409-.635-3.612-4.021-2.682-7.549a8.411,8.411,0,0,1,2.421-4.148,3.952,3.952,0,0,1,3.635-1.1c2.409.635,3.612,4.022,2.682,7.549a8.413,8.413,0,0,1-2.42,4.148A4.3,4.3,0,0,1,1176.115,650.215Zm1.737-12.357a3.671,3.671,0,0,0-2.39,1.039,7.763,7.763,0,0,0-2.224,3.829c-.839,3.182.157,6.213,2.221,6.757a3.332,3.332,0,0,0,3.041-.955,7.76,7.76,0,0,0,2.223-3.828h0c.839-3.182-.157-6.213-2.221-6.757A2.548,2.548,0,0,0,1177.852,637.858Z" transform="translate(-795.486 -174.704)"/><path class="e" d="M1243.771,650.23a3.2,3.2,0,0,1-.82-.106c-2.409-.635-3.612-4.021-2.682-7.549s3.647-5.879,6.056-5.245,3.612,4.022,2.682,7.549h0a8.413,8.413,0,0,1-2.421,4.148A4.294,4.294,0,0,1,1243.771,650.23Zm1.734-12.358c-1.886,0-3.859,2.019-4.61,4.868-.839,3.182.157,6.213,2.221,6.757a3.331,3.331,0,0,0,3.04-.955,7.765,7.765,0,0,0,2.224-3.829h0c.839-3.182-.157-6.214-2.221-6.758A2.561,2.561,0,0,0,1245.505,637.872Z" transform="translate(-852.889 -174.719)"/><path class="c" d="M1260.55,650.809a3.2,3.2,0,0,1-.82-.106l.165-.626a3.331,3.331,0,0,0,3.04-.955,7.765,7.765,0,0,0,2.224-3.829c.839-3.182-.158-6.213-2.221-6.757l.165-.626c2.409.635,3.612,4.021,2.682,7.549a8.415,8.415,0,0,1-2.421,4.148A4.3,4.3,0,0,1,1260.55,650.809Z" transform="translate(-869.668 -175.298)"/><rect class="e" width="0.648" height="13.856" transform="translate(365.541 463.488) rotate(-70.346)"/><path class="d" d="M981.239,1410.5c-12.478,2.317-21.275,3.751-27.394,2.28l.971,3.177s2.33,5.592,15.845,1.4c14.852-4.609,59.254-14.831,65.074-16.165C1033.049,1399.81,1003.906,1406.286,981.239,1410.5Z" transform="translate(-610.138 -822.745)"/><g transform="translate(411.588 569.63)"><rect class="k" width="2.33" height="17.746" transform="translate(0 0.551) rotate(-13.671)"/></g><g transform="translate(407.837 570.22)"><rect class="l" width="2.33" height="17.862" transform="translate(0 0.304) rotate(-7.495)"/></g><path class="d" d="M855.335,1113.9c6.769-2.634,16.249-5.764,22.754-5.618l-4.2-14.306-22.316,7.621Z" transform="translate(-523.364 -562.25)"/><path class="f" d="M720.382,897.074,768.849,878.9s-.465-29.826-6.524-41.011c-3.091-5.708-10.878-5.263-23.3,9.321C728.3,859.791,720.382,897.074,720.382,897.074Z" transform="translate(-412.054 -342.082)"/></g></svg>