<svg xmlns="http://www.w3.org/2000/svg" width="283" height="283" viewBox="0 0 283 283"><defs><style>.a,.g{fill:#fff;}.a{opacity:0.663;}.b{fill:#efeff3;}.c{fill:#99c2ec;}.d{fill:#fec62e;stroke:#fff;stroke-width:3px;}.e{fill:#fefeff;font-size:18px;font-family:Roboto-Regular, Roboto;letter-spacing:0.02em;}.f,.j{fill:none;}.f,.g{stroke:#151a6a;stroke-width:2px;}.h{fill:#151a6a;stroke:#fbfbfd;}.i{stroke:none;}</style></defs><g transform="translate(-818.5 -568.5)"><path class="a" d="M141.5,0A141.5,141.5,0,1,1,0,141.5,141.5,141.5,0,0,1,141.5,0Z" transform="translate(818.5 568.5)"/><ellipse class="b" cx="62.213" cy="5.941" rx="62.213" ry="5.941" transform="translate(902.913 764.398)"/><path class="c" d="M94.445,32.38a15.57,15.57,0,0,0-8.016,2.238c-.027-.206-.062-.413-.1-.619a25.206,25.206,0,0,0-48.7-3.946A17.451,17.451,0,1,0,30.46,63.4h2.133V49.249a9.113,9.113,0,0,1,9.113-9.113H69.995a9.074,9.074,0,0,1,6.464,2.678L87.705,54.059a9.076,9.076,0,0,1,2.668,6.455V63.4h4.072a15.512,15.512,0,0,0,0-31.023Z" transform="translate(909.189 639.533)"/><path class="c" d="M62.343,30.54A5.218,5.218,0,0,0,58.624,29H30.335A5.235,5.235,0,0,0,25.1,34.235V89.689a5.235,5.235,0,0,0,5.235,5.235H69.89a5.235,5.235,0,0,0,5.235-5.235V45.5a5.222,5.222,0,0,0-1.538-3.717ZM60.734,79.413H41.344a1.939,1.939,0,1,1,0-3.878H60.734a1.939,1.939,0,1,1,0,3.878Zm0-15.512H41.344a1.939,1.939,0,1,1,0-3.878H60.734a1.939,1.939,0,1,1,0,3.878Zm0-15.512H41.344a1.939,1.939,0,1,1,0-3.878H60.734a1.939,1.939,0,1,1,0,3.878Z" transform="translate(920.561 654.547)"/><g class="d" transform="translate(989 644)"><circle class="i" cx="19" cy="19" r="19"/><circle class="j" cx="19" cy="19" r="17.5"/></g><text class="e" transform="translate(1003 670)"><tspan x="0" y="0">0</tspan></text><path class="f" d="M-10474.031-4797.386c-.263-6.932,0-65.938,0-65.938s-.658-5.789,6.333-5.789h29.144a11.255,11.255,0,0,1,6.625,3.583c3.131,3.3,8.642,8.487,8.642,8.487s4.147,3.646,4.144,8.069,0,51.588,0,51.588,1.424,5.811-6,5.912-43.534,0-43.534,0S-10473.769-4790.454-10474.031-4797.386Z" transform="translate(11389.354 5532.855)"/><path class="g" d="M-10474.031-4797.386c-.263-6.932,0-65.938,0-65.938s-.658-5.789,6.333-5.789h29.144a11.255,11.255,0,0,1,6.625,3.583c3.131,3.3,8.642,8.487,8.642,8.487s4.147,3.646,4.144,8.069,0,51.588,0,51.588,1.424,5.811-6,5.912-43.534,0-43.534,0S-10473.769-4790.454-10474.031-4797.386Z" transform="translate(11369.991 5548.495)"/><g transform="translate(911.464 702.293)"><path class="h" d="M30.328,21H10.939a1.939,1.939,0,1,0,0,3.878H30.328a1.939,1.939,0,1,0,0-3.878Z" transform="translate(-9 -21)"/><path class="h" d="M30.328,29H10.939a1.939,1.939,0,1,0,0,3.878H30.328a1.939,1.939,0,1,0,0-3.878Z" transform="translate(-9 -13.488)"/><path class="h" d="M30.328,37H10.939a1.939,1.939,0,1,0,0,3.878H30.328a1.939,1.939,0,1,0,0-3.878Z" transform="translate(-9 -5.977)"/></g></g></svg>