<svg xmlns="http://www.w3.org/2000/svg" width="18.367" height="21" viewBox="0 0 18.367 21"><defs><style>.a{fill:#fec62e;}</style></defs><g transform="translate(-32.117)"><g transform="translate(32.117)"><g transform="translate(0)"><path class="a" d="M50.388,10.5a9.182,9.182,0,0,0-7.776-7.776V1.312h.656A1.312,1.312,0,0,0,44.579,0L39.332.039a.144.144,0,0,1,0-.039H38.021a1.312,1.312,0,0,0,1.312,1.312h.656V2.728a9.182,9.182,0,1,0,10.4,7.776ZM41.3,19.676a7.871,7.871,0,1,1,7.871-7.871A7.871,7.871,0,0,1,41.3,19.676Z" transform="translate(-32.117)"/><path class="a" d="M102.717,128a6.528,6.528,0,1,0,6.571,6.528A6.549,6.549,0,0,0,102.717,128Zm0,11.75a5.222,5.222,0,1,1,5.257-5.222A5.24,5.24,0,0,1,102.717,139.75Z" transform="translate(-93.534 -122.678)"/><path class="a" d="M241.451,208h-1.306v3.264a.653.653,0,0,0,.189.463l1.958,1.958.92-.92L241.451,211Z" transform="translate(-231.61 -199.458)"/></g></g></g></svg>