<svg xmlns="http://www.w3.org/2000/svg" width="16.833" height="16.057" viewBox="0 0 16.833 16.057"><defs><style>.a{fill:#fec62e;}</style></defs><path class="a" d="M84.592,42.989l-4.678-.948a.58.58,0,0,1-.379-.253l-2.4-4.172a.563.563,0,0,0-1.011,0l-2.339,4.172a.427.427,0,0,1-.379.253l-4.678.948a.566.566,0,0,0-.316.948l3.224,3.54a.419.419,0,0,1,.126.443l-.506,4.8a.55.55,0,0,0,.569.632.38.38,0,0,0,.253-.063l4.362-1.96c.063-.063.126-.063.253-.063a.38.38,0,0,1,.253.063l4.362,1.96a.38.38,0,0,0,.253.063.55.55,0,0,0,.569-.632l-.506-4.741a.914.914,0,0,1,.126-.443L84.971,44A.664.664,0,0,0,84.592,42.989Zm-4.741,2.845a3,3,0,0,0-.759,2.4l.19,1.454-1.328-.569a3.287,3.287,0,0,0-2.529,0L74.1,49.69l.19-1.454a3,3,0,0,0-.759-2.4l-1.011-1.075,1.391-.316a3.007,3.007,0,0,0,2.023-1.454l.7-1.264.7,1.264a2.953,2.953,0,0,0,2.023,1.454l1.391.316Z" transform="translate(-68.252 -37.3)"/></svg>