<svg xmlns="http://www.w3.org/2000/svg" width="16.83" height="15.953" viewBox="0 0 16.83 15.953"><defs><style>.a{fill:#fec62e;}</style></defs><path class="a" d="M53.053,43.007l-4.677-.948A.58.58,0,0,1,48,41.806l-2.4-4.172a.591.591,0,0,0-1.011,0l-2.4,4.172a.427.427,0,0,1-.379.253l-4.677.948a.566.566,0,0,0-.316.948l3.224,3.54a.419.419,0,0,1,.126.442l-.506,4.741a.563.563,0,0,0,.822.569l4.361-1.959a.54.54,0,0,1,.442,0l4.361,1.959a.576.576,0,0,0,.822-.569l-.506-4.741a.914.914,0,0,1,.126-.442l3.224-3.54A.557.557,0,0,0,53.053,43.007Z" transform="translate(-36.652 -37.35)"/></svg>